{
.appVersion = "937";
copyright = "Copyright 2014 Pria Ravichandran (pria.ravichandran@gmail.com)";
customParameters = (
{
name = license;
value = "Licenced under the SIL Open Font License, Version 1.1, available with a FAQ at: http://scripts.sil.org/OFL";
},
{
name = licenseURL;
value = "http://scripts.sil.org/OFL";
},
{
name = vendorID;
value = PYRS;
},
{
name = glyphOrder;
value = (
.notdef,
uni0000,
CR,
space,
uni00A0,
uni200C,
uni200D,
uni25CC,
A,
B,
C,
D,
E,
F,
G,
H,
I,
J,
K,
L,
M,
N,
O,
P,
Q,
R,
S,
T,
U,
V,
W,
X,
Y,
Z,
a,
b,
c,
d,
e,
f,
g,
h,
i,
j,
k,
l,
m,
n,
o,
p,
q,
r,
s,
t,
u,
v,
w,
x,
y,
z,
fi,
fl,
zero,
one,
two,
three,
four,
five,
six,
seven,
eight,
nine,
grave,
dieresis,
macron,
acute,
circumflex,
caron,
breve,
dotaccent,
ring,
tilde,
hungarumlaut,
ogonek,
cedilla,
commaaccent,
grave.case,
dieresis.case,
macron.case,
acute.case,
circumflex.case,
caron.case,
breve.case,
dotaccent.case,
ring.case,
tilde.case,
hungarumlaut.case,
Thorn,
Eth,
AE,
Dcroat,
Lslash,
OE,
Oslash,
germandbls,
eth,
thorn,
florin,
ae,
dcroat,
oe,
lacute,
lslash,
dotlessi,
oslash,
gcedilla,
Agrave,
Aacute,
Acircumflex,
Atilde,
Adieresis,
Aring,
Abreve,
Aogonek,
Amacron,
Ccedilla,
Cacute,
Ccaron,
Dcaron,
Egrave,
Eacute,
Ecircumflex,
Edieresis,
Emacron,
Edotaccent,
Eogonek,
Ecaron,
Gbreve,
Igrave,
Iacute,
Icircumflex,
Idieresis,
Imacron,
Iogonek,
Idotaccent,
Lacute,
Lcaron,
Ntilde,
Nacute,
Ncaron,
Ograve,
Oacute,
Ocircumflex,
Otilde,
Odieresis,
Omacron,
Ohungarumlaut,
Racute,
Rcaron,
Sacute,
Scaron,
Tcaron,
Ugrave,
Uacute,
Ucircumflex,
Udieresis,
Umacron,
Uring,
Uhungarumlaut,
Uogonek,
Yacute,
Ydieresis,
Zacute,
Zdotaccent,
Zcaron,
Scedilla,
Gcedilla,
Kcedilla,
Lcedilla,
Ncedilla,
Rcedilla,
Tcedilla,
Scommaaccent,
uni021A,
agrave,
aacute,
acircumflex,
atilde,
adieresis,
aring,
amacron,
abreve,
aogonek,
ccedilla,
cacute,
ccaron,
dcaron,
egrave,
eacute,
ecircumflex,
edieresis,
emacron,
edotaccent,
eogonek,
ecaron,
gbreve,
igrave,
iacute,
icircumflex,
idieresis,
imacron,
iogonek,

glyphs = (
{
glyphname = .notdef;
lastChange = "2015-05-09 19:39:39 +0000";
layers = (
{
layerId = "E854A3C3-7B98-494E-8852-CB9ED5BB8961";
paths = (
{
closed = 1;
nodes = (
"576 696 LINE",
"576 0 LINE",
"94 0 LINE",
"94 696 LINE"
);
},
{
closed = 1;
nodes = (
"191 619 LINE",
"191 76 LINE",
"479 76 LINE",
"478 619 LINE"
);
}
);
width = 671;
},
{
layerId = "24C3257D-BF04-43D4-ADFB-51EF390723A7";
paths = (
{
closed = 1;
nodes = (
"602 696 LINE",
"602 0 LINE",
"94 0 LINE",
"94 696 LINE"
);
},
{
closed = 1;
nodes = (
"225 593 LINE",
"225 102 LINE",
"471 102 LINE",
"470 593 LINE"
);
}
);
width = 697;
}
);
},
{
glyphname = uni200C;
lastChange = "2015-05-09 19:39:39 +0000";
layers = (
{
layerId = "E854A3C3-7B98-494E-8852-CB9ED5BB8961";
paths = (
{
closed = 1;
nodes = (
"-30 1237 LINE",
"30 1237 LINE",
"30 -68 LINE",
"-30 -68 LINE"
);
}
);
width = 0;
},
{
layerId = "24C3257D-BF04-43D4-ADFB-51EF390723A7";
paths = (
{
closed = 1;
nodes = (
"-30 1237 LINE",
"30 1237 LINE",
"30 -68 LINE",
"-30 -68 LINE"
);
}
);
width = 0;
}
);
unicode = 200C;
},
{
glyphname = uni200D;
lastChange = "2015-05-09 19:39:39 +0000";
layers = (
{
layerId = "E854A3C3-7B98-494E-8852-CB9ED5BB8961";
paths = (
{
closed = 1;
nodes = (
"74 1320 LINE",
"114 1280 LINE",
"40 1206 LINE",
"114 1132 LINE",
"75 1093 LINE",
"30 1137 LINE",
"30 -68 LINE",
"-30 -68 LINE",
"-30 1136 LINE",
"-74 1093 LINE",
"-113 1132 LINE",
"-39 1206 LINE",
"-113 1280 LINE",
"-73 1320 LINE",
"0 1246 LINE"
);
}
);
width = 0;
},
{
layerId = "24C3257D-BF04-43D4-ADFB-51EF390723A7";
paths = (
{
closed = 1;
nodes = (
"74 1320 LINE",
"114 1280 LINE",
"40 1206 LINE",
"114 1132 LINE",
"75 1093 LINE",
"30 1137 LINE",
"30 -68 LINE",
"-30 -68 LINE",
"-30 1136 LINE",
"-74 1093 LINE",
"-113 1132 LINE",
"-39 1206 LINE",
"-113 1280 LINE",
"-73 1320 LINE",
"0 1246 LINE"
);
}
);
width = 0;
}
);
unicode = 200D;
},
{
glyphname = uni25CC;
lastChange = "2015-05-14 08:34:21 +0000";
layers = (
{
layerId = "E854A3C3-7B98-494E-8852-CB9ED5BB8961";
paths = (
{
closed = 1;
nodes = (
"284 459 OFFCURVE",
"273 471 OFFCURVE",
"273 488 CURVE SMOOTH",
"273 505 OFFCURVE",
"284 518 OFFCURVE",
"302 518 CURVE SMOOTH",
"319 518 OFFCURVE",
"331 505 OFFCURVE",
"331 488 CURVE SMOOTH",
"331 471 OFFCURVE",
"319 459 OFFCURVE",
"302 459 CURVE SMOOTH"
);
},
{
closed = 1;
nodes = (
"374 444 OFFCURVE",
"363 455 OFFCURVE",
"363 473 CURVE SMOOTH",
"363 490 OFFCURVE",
"374 502 OFFCURVE",
"392 502 CURVE SMOOTH",
"409 502 OFFCURVE",
"421 490 OFFCURVE",
"421 473 CURVE SMOOTH",
"421 455 OFFCURVE",
"409 444 OFFCURVE",
"392 444 CURVE SMOOTH"
);
},
{
closed = 1;
nodes = (
"230 502 OFFCURVE",
"242 490 OFFCURVE",
"242 473 CURVE SMOOTH",
"242 455 OFFCURVE",
"230 444 OFFCURVE",
"213 444 CURVE SMOOTH",
"196 444 OFFCURVE",
"184 455 OFFCURVE",
"184 473 CURVE SMOOTH",
"184 490 OFFCURVE",
"196 502 OFFCURVE",
"213 502 CURVE SMOOTH"
);
},
{
closed = 1;
nodes = (
"451 393 OFFCURVE",
"439 405 OFFCURVE",
"439 422 CURVE SMOOTH",
"439 439 OFFCURVE",
"451 452 OFFCURVE",
"468 452 CURVE SMOOTH",
"485 452 OFFCURVE",
"498 439 OFFCURVE",
"498 422 CURVE SMOOTH",
"498 405 OFFCURVE",
"485 393 OFFCURVE",
"468 393 CURVE SMOOTH"
);
},
{
closed = 1;
nodes = (
"154 452 OFFCURVE",
"166 439 OFFCURVE",
"166 422 CURVE SMOOTH",
"166 405 OFFCURVE",
"154 393 OFFCURVE",
"137 393 CURVE SMOOTH",
"120 393 OFFCURVE",
"107 405 OFFCURVE",
"107 422 CURVE SMOOTH",
"107 439 OFFCURVE",
"120 452 OFFCURVE",
"137 452 CURVE SMOOTH"
);
},
{
closed = 1;
nodes = (
"499 314 OFFCURVE",
"487 326 OFFCURVE",
"487 343 CURVE SMOOTH",
"487 360 OFFCURVE",
"499 373 OFFCURVE",
"516 373 CURVE SMOOTH",
"533 373 OFFCURVE",
"545 360 OFFCURVE",
"545 343 CURVE SMOOTH",
"545 326 OFFCURVE",
"533 314 OFFCURVE",
"516 314 CURVE SMOOTH"
);
},
{
closed = 1;
nodes = (
"106 373 OFFCURVE",
"118 360 OFFCURVE",
"118 343 CURVE SMOOTH",
"118 326 OFFCURVE",
"106 314 OFFCURVE",
"89 314 CURVE SMOOTH",
"72 314 OFFCURVE",
"59 326 OFFCURVE",
"59 343 CURVE SMOOTH",
"59 360 OFFCURVE",
"72 373 OFFCURVE",
"89 373 CURVE SMOOTH"
);
},
{
closed = 1;
nodes = (
"513 229 OFFCURVE",
"501 240 OFFCURVE",
"501 257 CURVE SMOOTH",
"501 275 OFFCURVE",
"513 287 OFFCURVE",
"530 287 CURVE SMOOTH",
"547 287 OFFCURVE",
"560 275 OFFCURVE",
"560 257 CURVE SMOOTH",
"560 240 OFFCURVE",
"547 229 OFFCURVE",
"530 229 CURVE SMOOTH"
);
},
{
closed = 1;
nodes = (
"92 287 OFFCURVE",
"104 275 OFFCURVE",
"104 257 CURVE SMOOTH",
"104 240 OFFCURVE",
"92 229 OFFCURVE",
"75 229 CURVE SMOOTH",
"58 229 OFFCURVE",
"45 240 OFFCURVE",
"45 257 CURVE SMOOTH",
"45 275 OFFCURVE",
"58 287 OFFCURVE",
"75 287 CURVE SMOOTH"
);
},
{
closed = 1;
nodes = (
"499 145 OFFCURVE",
"487 157 OFFCURVE",
"487 174 CURVE SMOOTH",
"487 191 OFFCURVE",
"499 203 OFFCURVE",
"516 203 CURVE SMOOTH",
"533 203 OFFCURVE",
"545 191 OFFCURVE",
"545 174 CURVE SMOOTH",
"545 157 OFFCURVE",
"533 145 OFFCURVE",
"516 145 CURVE SMOOTH"
);
},
{
closed = 1;
nodes = (
"106 203 OFFCURVE",
"118 191 OFFCURVE",
"118 174 CURVE SMOOTH",
"118 157 OFFCURVE",
"106 145 OFFCURVE",
"89 145 CURVE SMOOTH",
"72 145 OFFCURVE",
"59 157 OFFCURVE",
"59 174 CURVE SMOOTH",
"59 191 OFFCURVE",
"72 203 OFFCURVE",
"89 203 CURVE SMOOTH"
);
},
{
closed = 1;
nodes = (
"452 65 OFFCURVE",
"440 77 OFFCURVE",
"440 94 CURVE SMOOTH",
"440 111 OFFCURVE",
"452 123 OFFCURVE",
"469 123 CURVE SMOOTH",
"486 123 OFFCURVE",
"499 111 OFFCURVE",
"499 94 CURVE SMOOTH",
"499 77 OFFCURVE",
"486 65 OFFCURVE",
"469 65 CURVE SMOOTH"
);
},
{
closed = 1;
nodes = (
"153 123 OFFCURVE",
"165 111 OFFCURVE",
"165 94 CURVE SMOOTH",
"165 77 OFFCURVE",
"153 65 OFFCURVE",
"136 65 CURVE SMOOTH",
"119 65 OFFCURVE",
"106 77 OFFCURVE",
"106 94 CURVE SMOOTH",
"106 111 OFFCURVE",
"119 123 OFFCURVE",
"136 123 CURVE SMOOTH"
);
},
{
closed = 1;
nodes = (
"230 74 OFFCURVE",
"242 61 OFFCURVE",
"242 44 CURVE SMOOTH",
"242 27 OFFCURVE",
"230 15 OFFCURVE",
"213 15 CURVE SMOOTH",
"196 15 OFFCURVE",
"184 27 OFFCURVE",
"184 44 CURVE SMOOTH",
"184 61 OFFCURVE",
"196 74 OFFCURVE",
"213 74 CURVE SMOOTH"
);
},
{
closed = 1;
nodes = (
"374 15 OFFCURVE",
"363 27 OFFCURVE",
"363 44 CURVE SMOOTH",
"363 61 OFFCURVE",
"374 74 OFFCURVE",
"392 74 CURVE SMOOTH",
"409 74 OFFCURVE",
"421 61 OFFCURVE",
"421 44 CURVE SMOOTH",
"421 27 OFFCURVE",
"409 15 OFFCURVE",
"392 15 CURVE SMOOTH"
);
},
{
closed = 1;
nodes = (
"284 0 OFFCURVE",
"273 12 OFFCURVE",
"273 29 CURVE SMOOTH",
"273 46 OFFCURVE",
"284 59 OFFCURVE",
"302 59 CURVE SMOOTH",
"319 59 OFFCURVE",
"331 46 OFFCURVE",
"331 29 CURVE SMOOTH",
"331 12 OFFCURVE",
"319 0 OFFCURVE",
"302 0 CURVE SMOOTH"
);
}
);
width = 605;
},
{
layerId = "24C3257D-BF04-43D4-ADFB-51EF390723A7";
paths = (
{
closed = 1;
nodes = (
"284 459 OFFCURVE",
"273 471 OFFCURVE",
"273 488 CURVE SMOOTH",
"273 505 OFFCURVE",
"284 518 OFFCURVE",
"302 518 CURVE SMOOTH",
"319 518 OFFCURVE",
"331 505 OFFCURVE",
"331 488 CURVE SMOOTH",
"331 471 OFFCURVE",
"319 459 OFFCURVE",
"302 459 CURVE SMOOTH"
);
},
{
closed = 1;
nodes = (
"374 444 OFFCURVE",
"363 455 OFFCURVE",
"363 473 CURVE SMOOTH",
"363 490 OFFCURVE",
"374 502 OFFCURVE",
"392 502 CURVE SMOOTH",
"409 502 OFFCURVE",
"421 490 OFFCURVE",
"421 473 CURVE SMOOTH",
"421 455 OFFCURVE",
"409 444 OFFCURVE",
"392 444 CURVE SMOOTH"
);
},
{
closed = 1;
nodes = (
"230 502 OFFCURVE",
"242 490 OFFCURVE",
"242 473 CURVE SMOOTH",
"242 455 OFFCURVE",
"230 444 OFFCURVE",
"213 444 CURVE SMOOTH",
"196 444 OFFCURVE",
"184 455 OFFCURVE",
"184 473 CURVE SMOOTH",
"184 490 OFFCURVE",
"196 502 OFFCURVE",
"213 502 CURVE SMOOTH"
);
},
{
closed = 1;
nodes = (
"451 393 OFFCURVE",
"439 405 OFFCURVE",
"439 422 CURVE SMOOTH",
"439 439 OFFCURVE",
"451 452 OFFCURVE",
"468 452 CURVE SMOOTH",
"485 452 OFFCURVE",
"498 439 OFFCURVE",
"498 422 CURVE SMOOTH",
"498 405 OFFCURVE",
"485 393 OFFCURVE",
"468 393 CURVE SMOOTH"
);
},
{
closed = 1;
nodes = (
"154 452 OFFCURVE",
"166 439 OFFCURVE",
"166 422 CURVE SMOOTH",
"166 405 OFFCURVE",
"154 393 OFFCURVE",
"137 393 CURVE SMOOTH",
"120 393 OFFCURVE",
"107 405 OFFCURVE",
"107 422 CURVE SMOOTH",
"107 439 OFFCURVE",
"120 452 OFFCURVE",
"137 452 CURVE SMOOTH"
);
},
{
closed = 1;
nodes = (
"499 314 OFFCURVE",
"487 326 OFFCURVE",
"487 343 CURVE SMOOTH",
"487 360 OFFCURVE",
"499 373 OFFCURVE",
"516 373 CURVE SMOOTH",
"533 373 OFFCURVE",
"545 360 OFFCURVE",
"545 343 CURVE SMOOTH",
"545 326 OFFCURVE",
"533 314 OFFCURVE",
"516 314 CURVE SMOOTH"
);
},
{
closed = 1;
nodes = (
"106 373 OFFCURVE",
"118 360 OFFCURVE",
"118 343 CURVE SMOOTH",
"118 326 OFFCURVE",
"106 314 OFFCURVE",
"89 314 CURVE SMOOTH",
"72 314 OFFCURVE",
"59 326 OFFCURVE",
"59 343 CURVE SMOOTH",
"59 360 OFFCURVE",
"72 373 OFFCURVE",
"89 373 CURVE SMOOTH"
);
},
{
closed = 1;
nodes = (
"513 229 OFFCURVE",
"501 240 OFFCURVE",
"501 257 CURVE SMOOTH",
"501 275 OFFCURVE",
"513 287 OFFCURVE",
"530 287 CURVE SMOOTH",
"547 287 OFFCURVE",
"560 275 OFFCURVE",
"560 257 CURVE SMOOTH",
"560 240 OFFCURVE",
"547 229 OFFCURVE",
"530 229 CURVE SMOOTH"
);
},
{
closed = 1;
nodes = (
"92 287 OFFCURVE",
"104 275 OFFCURVE",
"104 257 CURVE SMOOTH",
"104 240 OFFCURVE",
"92 229 OFFCURVE",
"75 229 CURVE SMOOTH",
"58 229 OFFCURVE",
"45 240 OFFCURVE",
"45 257 CURVE SMOOTH",
"45 275 OFFCURVE",
"58 287 OFFCURVE",
"75 287 CURVE SMOOTH"
);
},
{
closed = 1;
nodes = (
"499 145 OFFCURVE",
"487 157 OFFCURVE",
"487 174 CURVE SMOOTH",
"487 191 OFFCURVE",
"499 203 OFFCURVE",
"516 203 CURVE SMOOTH",
"533 203 OFFCURVE",
"545 191 OFFCURVE",
"545 174 CURVE SMOOTH",
"545 157 OFFCURVE",
"533 145 OFFCURVE",
"516 145 CURVE SMOOTH"
);
},
{
closed = 1;
nodes = (
"106 203 OFFCURVE",
"118 191 OFFCURVE",
"118 174 CURVE SMOOTH",
"118 157 OFFCURVE",
"106 145 OFFCURVE",
"89 145 CURVE SMOOTH",
"72 145 OFFCURVE",
"59 157 OFFCURVE",
"59 174 CURVE SMOOTH",
"59 191 OFFCURVE",
"72 203 OFFCURVE",
"89 203 CURVE SMOOTH"
);
},
{
closed = 1;
nodes = (
"452 65 OFFCURVE",
"440 77 OFFCURVE",
"440 94 CURVE SMOOTH",
"440 111 OFFCURVE",
"452 123 OFFCURVE",
"469 123 CURVE SMOOTH",
"486 123 OFFCURVE",
"499 111 OFFCURVE",
"499 94 CURVE SMOOTH",
"499 77 OFFCURVE",
"486 65 OFFCURVE",
"469 65 CURVE SMOOTH"
);
},
{
closed = 1;
nodes = (
"153 123 OFFCURVE",
"165 111 OFFCURVE",
"165 94 CURVE SMOOTH",
"165 77 OFFCURVE",
"153 65 OFFCURVE",
"136 65 CURVE SMOOTH",
"119 65 OFFCURVE",
"106 77 OFFCURVE",
"106 94 CURVE SMOOTH",
"106 111 OFFCURVE",
"119 123 OFFCURVE",
"136 123 CURVE SMOOTH"
);
},
{
closed = 1;
nodes = (
"230 74 OFFCURVE",
"242 61 OFFCURVE",
"242 44 CURVE SMOOTH",
"242 27 OFFCURVE",
"230 15 OFFCURVE",
"213 15 CURVE SMOOTH",
"196 15 OFFCURVE",
"184 27 OFFCURVE",
"184 44 CURVE SMOOTH",
"184 61 OFFCURVE",
"196 74 OFFCURVE",
"213 74 CURVE SMOOTH"
);
},
{
closed = 1;
nodes = (
"374 15 OFFCURVE",
"363 27 OFFCURVE",
"363 44 CURVE SMOOTH",
"363 61 OFFCURVE",
"374 74 OFFCURVE",
"392 74 CURVE SMOOTH",
"409 74 OFFCURVE",
"421 61 OFFCURVE",
"421 44 CURVE SMOOTH",
"421 27 OFFCURVE",
"409 15 OFFCURVE",
"392 15 CURVE SMOOTH"
);
},
{
closed = 1;
nodes = (
"284 0 OFFCURVE",
"273 12 OFFCURVE",
"273 29 CURVE SMOOTH",
"273 46 OFFCURVE",
"284 59 OFFCURVE",
"302 59 CURVE SMOOTH",
"319 59 OFFCURVE",
"331 46 OFFCURVE",
"331 29 CURVE SMOOTH",
"331 12 OFFCURVE",
"319 0 OFFCURVE",
"302 0 CURVE SMOOTH"
);
}
);
width = 605;
}
);
unicode = 25CC;
},
{
glyphname = A;
lastChange = "2017-03-21 12:01:47 +0000";
layers = (
{
anchors = (
{
name = bottom;
position = "{563, 2}";
},
{
name = topU;
position = "{308, 680}";
}
);
layerId = "E854A3C3-7B98-494E-8852-CB9ED5BB8961";
paths = (
{
closed = 1;
nodes = (
"308 551 LINE",
"199 259 LINE",
"420 259 LINE"
);
},
{
closed = 1;
nodes = (
"353 680 LINE",
"615 6 LINE",
"520 -8 LINE",
"449 182 LINE",
"172 182 LINE",
"104 0 LINE",
"10 0 LINE",
"266 680 LINE"
);
}
);
width = 625;
},
{
anchors = (
{
name = bottom;
position = "{586, 5}";
},
{
name = topU;
position = "{327, 680}";
}
);
layerId = "24C3257D-BF04-43D4-ADFB-51EF390723A7";
paths = (
{
closed = 1;
nodes = (
"327 502 LINE",
"238 265 LINE",
"418 265 LINE"
);
},
{
closed = 1;
nodes = (
"385 680 LINE",
"649 8 LINE",
"519 -10 LINE",
"458 160 LINE",
"200 160 LINE",
"140 0 LINE",
"10 0 LINE",
"275 680 LINE"
);
}
);
width = 659;
}
);
unicode = 0041;
},
{
glyphname = B;
lastChange = "2015-05-09 19:48:28 +0000";
layers = (
{
layerId = "E854A3C3-7B98-494E-8852-CB9ED5BB8961";
paths = (
{
closed = 1;
nodes = (
"90 0 LINE",
"90 680 LINE",
"304 680 LINE SMOOTH",
"441 680 OFFCURVE",
"538 633 OFFCURVE",
"538 496 CURVE SMOOTH",
"538 437 OFFCURVE",
"496 394 OFFCURVE",
"451 365 CURVE",
"523 337 OFFCURVE",
"573 282 OFFCURVE",
"573 194 CURVE SMOOTH",
"573 59 OFFCURVE",
"468 0 OFFCURVE",
"325 0 CURVE SMOOTH"
);
},
{
closed = 1;
nodes = (
"186 599 LINE",
"186 390 LINE",
"279 390 LINE SMOOTH",
"367 391 OFFCURVE",
"439 418 OFFCURVE",
"439 495 CURVE SMOOTH",
"439 579 OFFCURVE",
"383 599 OFFCURVE",
"296 599 CURVE SMOOTH"
);
},
{
closed = 1;
nodes = (
"186 312 LINE",
"186 79 LINE",
"321 79 LINE SMOOTH",
"409 79 OFFCURVE",
"475 111 OFFCURVE",
"475 192 CURVE SMOOTH",
"475 275 OFFCURVE",
"418 312 OFFCURVE",
"331 312 CURVE SMOOTH"
);
}
);
width = 603;
},
{
layerId = "24C3257D-BF04-43D4-ADFB-51EF390723A7";
paths = (
{
closed = 1;
nodes = (
"85 0 LINE",
"85 680 LINE",
"349 680 LINE SMOOTH",
"481 680 OFFCURVE",
"572 627 OFFCURVE",
"572 490 CURVE SMOOTH",
"572 439 OFFCURVE",
"536 398 OFFCURVE",
"499 369 CURVE",
"560 337 OFFCURVE",
"604 284 OFFCURVE",
"604 200 CURVE SMOOTH",
"604 75 OFFCURVE",
"509 0 OFFCURVE",
"364 0 CURVE SMOOTH"
);
},
{
closed = 1;
nodes = (
"214 572 LINE",
"214 403 LINE",
"310 403 LINE SMOOTH",
"382 403 OFFCURVE",
"435 429 OFFCURVE",
"435 488 CURVE SMOOTH",
"435 552 OFFCURVE",
"395 572 OFFCURVE",
"330 572 CURVE SMOOTH"
);
},
{
closed = 1;
nodes = (
"214 298 LINE",
"214 107 LINE",
"354 107 LINE SMOOTH",
"423 107 OFFCURVE",
"469 140 OFFCURVE",
"469 199 CURVE SMOOTH",
"469 263 OFFCURVE",
"427 298 OFFCURVE",
"363 298 CURVE SMOOTH"
);
}
);
width = 629;
}
);
unicode = 0042;
},
{
glyphname = C;
lastChange = "2015-05-09 19:39:39 +0000";
layers = (
{
anchors = (
{
name = bottom;
position = "{357, 0}";
},
{
name = topU;
position = "{363, 680}";
}
);
layerId = "E854A3C3-7B98-494E-8852-CB9ED5BB8961";
paths = (
{
closed = 1;
nodes = (
"506 584 LINE",
"457 601 OFFCURVE",
"426 612 OFFCURVE",
"361 612 CURVE SMOOTH",
"237 612 OFFCURVE",
"140 501 OFFCURVE",
"140 337 CURVE SMOOTH",
"140 190 OFFCURVE",
"218 68 OFFCURVE",
"353 68 CURVE SMOOTH",
"418 68 OFFCURVE",
"465 81 OFFCURVE",
"502 98 CURVE",
"539 26 LINE",
"494 3 OFFCURVE",
"414 -14 OFFCURVE",
"357 -14 CURVE SMOOTH",
"148 -14 OFFCURVE",
"40 145 OFFCURVE",
"40 336 CURVE SMOOTH",
"40 540 OFFCURVE",
"164 694 OFFCURVE",
"363 694 CURVE SMOOTH",
"403 694 OFFCURVE",
"487 682 OFFCURVE",
"536 653 CURVE"
);
}
);
width = 559;
},
{
anchors = (
{
name = bottom;
position = "{357, 0}";
},
{
name = topU;
position = "{364, 680}";
}
);
layerId = "24C3257D-BF04-43D4-ADFB-51EF390723A7";
paths = (
{
closed = 1;
nodes = (
"503 557 LINE",
"444 574 OFFCURVE",
"418 585 OFFCURVE",
"359 585 CURVE SMOOTH",
"251 585 OFFCURVE",
"170 491 OFFCURVE",
"170 338 CURVE SMOOTH",
"170 206 OFFCURVE",
"235 95 OFFCURVE",
"351 95 CURVE SMOOTH",
"408 95 OFFCURVE",
"459 109 OFFCURVE",
"500 126 CURVE",
"549 30 LINE",
"497 3 OFFCURVE",
"414 -14 OFFCURVE",
"358 -14 CURVE SMOOTH",
"146 -14 OFFCURVE",
"35 141 OFFCURVE",
"35 337 CURVE SMOOTH",
"35 546 OFFCURVE",
"164 694 OFFCURVE",
"363 694 CURVE SMOOTH",
"403 694 OFFCURVE",
"484 682 OFFCURVE",
"543 650 CURVE"
);
}
);
width = 564;
}
);
unicode = 0043;
},
{
glyphname = D;
lastChange = "2015-05-09 19:43:59 +0000";
layers = (
{
anchors = (
{
name = topU;
position = "{325, 680}";
}
);
layerId = "E854A3C3-7B98-494E-8852-CB9ED5BB8961";
paths = (
{
closed = 1;
nodes = (
"90 0 LINE",
"90 680 LINE",
"335 680 LINE SMOOTH",
"546 680 OFFCURVE",
"638 535 OFFCURVE",
"638 344 CURVE SMOOTH",
"638 145 OFFCURVE",
"530 0 OFFCURVE",
"331 0 CURVE SMOOTH"
);
},
{
closed = 1;
nodes = (
"186 598 LINE",
"186 80 LINE",
"331 80 LINE SMOOTH",
"456 80 OFFCURVE",
"541 171 OFFCURVE",
"541 343 CURVE SMOOTH",
"541 494 OFFCURVE",
"478 598 OFFCURVE",
"339 598 CURVE SMOOTH"
);
}
);
width = 678;
},
{
anchors = (
{
name = topU;
position = "{327, 680}";
}
);
layerId = "24C3257D-BF04-43D4-ADFB-51EF390723A7";
paths = (
{
closed = 1;
nodes = (
"85 0 LINE",
"85 680 LINE",
"343 680 LINE SMOOTH",
"555 680 OFFCURVE",
"656 539 OFFCURVE",
"656 344 CURVE SMOOTH",
"656 131 OFFCURVE",
"544 3 OFFCURVE",
"343 0 CURVE SMOOTH"
);
},
{
closed = 1;
nodes = (
"214 570 LINE",
"214 109 LINE",
"341 109 LINE SMOOTH",
"450 109 OFFCURVE",
"522 175 OFFCURVE",
"522 344 CURVE SMOOTH",
"522 485 OFFCURVE",
"468 570 OFFCURVE",
"348 570 CURVE SMOOTH"
);
}
);
width = 691;
}
);
unicode = 0044;
},
{
glyphname = E;
lastChange = "2015-05-09 22:09:30 +0000";
layers = (
{
anchors = (
{
name = bottom;
position = "{411, 0}";
},
{
name = topU;
position = "{295, 680}";
}
);
layerId = "E854A3C3-7B98-494E-8852-CB9ED5BB8961";
paths = (
{
closed = 1;
nodes = (
"90 0 LINE",
"90 680 LINE",
"473 680 LINE",
"486 606 LINE",
"186 606 LINE",
"186 383 LINE",
"417 383 LINE",
"430 309 LINE",
"186 309 LINE",
"186 75 LINE",
"509 75 LINE",
"522 0 LINE"
);
}
);
width = 542;
},
{
anchors = (
{
name = bottom;
position = "{440, 0}";
},
{
name = topU;
position = "{302, 680}";
}
);
layerId = "24C3257D-BF04-43D4-ADFB-51EF390723A7";
paths = (
{
closed = 1;
nodes = (
"85 0 LINE",
"85 680 LINE",
"491 680 LINE",
"511 578 LINE",
"214 578 LINE",
"214 395 LINE",
"436 395 LINE",
"457 292 LINE",
"214 292 LINE",
"214 101 LINE",
"540 101 LINE",
"561 0 LINE"
);
}
);
width = 581;
}
);
unicode = 0045;
},
{
glyphname = F;
lastChange = "2015-05-09 19:39:39 +0000";
layers = (
{
layerId = "E854A3C3-7B98-494E-8852-CB9ED5BB8961";
paths = (
{
closed = 1;
nodes = (
"419 305 LINE",
"186 305 LINE",
"186 0 LINE",
"90 0 LINE",
"90 680 LINE",
"457 680 LINE",
"471 606 LINE",
"186 606 LINE",
"186 378 LINE",
"407 378 LINE"
);
}
);
width = 491;
},
{
layerId = "24C3257D-BF04-43D4-ADFB-51EF390723A7";
paths = (
{
closed = 1;
nodes = (
"446 288 LINE",
"214 288 LINE",
"214 0 LINE",
"85 0 LINE",
"85 680 LINE",
"470 680 LINE",
"490 578 LINE",
"214 578 LINE",
"214 389 LINE",
"427 389 LINE"
);
}
);
width = 510;
}
);
unicode = 0046;
},
{
glyphname = G;
lastChange = "2015-05-09 19:39:39 +0000";
layers = (
{
anchors = (
{
name = bottom;
position = "{380, 0}";
},
{
name = topU;
position = "{364, 680}";
}
);
layerId = "E854A3C3-7B98-494E-8852-CB9ED5BB8961";
paths = (
{
closed = 1;
nodes = (
"349 357 LINE",
"578 357 LINE",
"577 34 LINE",
"531 7 OFFCURVE",
"453 -14 OFFCURVE",
"380 -14 CURVE SMOOTH",
"171 -14 OFFCURVE",
"40 139 OFFCURVE",
"40 336 CURVE SMOOTH",
"40 547 OFFCURVE",
"191 694 OFFCURVE",
"391 694 CURVE SMOOTH",
"432 694 OFFCURVE",
"519 682 OFFCURVE",
"567 653 CURVE",
"537 584 LINE",
"488 601 OFFCURVE",
"458 612 OFFCURVE",
"393 612 CURVE SMOOTH",
"261 612 OFFCURVE",
"140 516 OFFCURVE",
"140 337 CURVE SMOOTH",
"140 172 OFFCURVE",
"242 68 OFFCURVE",
"378 68 CURVE SMOOTH",
"423 68 OFFCURVE",
"460 76 OFFCURVE",
"489 85 CURVE",
"489 284 LINE",
"341 284 LINE"
);
}
);
width = 628;
},
{
anchors = (
{
name = bottom;
position = "{374, 0}";
},
{
name = topU;
position = "{389, 680}";
}
);
layerId = "24C3257D-BF04-43D4-ADFB-51EF390723A7";
paths = (
{
closed = 1;
nodes = (
"337 372 LINE",
"585 372 LINE",
"585 36 LINE",
"533 8 OFFCURVE",
"457 -14 OFFCURVE",
"373 -14 CURVE SMOOTH",
"161 -14 OFFCURVE",
"35 142 OFFCURVE",
"35 337 CURVE SMOOTH",
"35 544 OFFCURVE",
"184 694 OFFCURVE",
"389 694 CURVE SMOOTH",
"429 694 OFFCURVE",
"515 682 OFFCURVE",
"575 650 CURVE",
"534 557 LINE",
"475 574 OFFCURVE",
"450 585 OFFCURVE",
"391 585 CURVE SMOOTH",
"271 585 OFFCURVE",
"170 503 OFFCURVE",
"170 338 CURVE SMOOTH",
"170 189 OFFCURVE",
"251 95 OFFCURVE",
"370 95 CURVE SMOOTH",
"414 95 OFFCURVE",
"445 101 OFFCURVE",
"469 106 CURVE",
"469 272 LINE",
"326 272 LINE"
);
}
);
width = 630;
}
);
unicode = 0047;
},
{
glyphname = H;
lastChange = "2015-05-09 22:09:41 +0000";
layers = (
{
layerId = "E854A3C3-7B98-494E-8852-CB9ED5BB8961";
paths = (
{
closed = 1;
nodes = (
"488 0 LINE",
"488 303 LINE",
"186 303 LINE",
"186 0 LINE",
"90 0 LINE",
"90 680 LINE",
"186 685 LINE",
"186 380 LINE",
"488 380 LINE",
"488 680 LINE",
"584 680 LINE",
"584 0 LINE"
);
}
);
width = 674;
},
{
layerId = "24C3257D-BF04-43D4-ADFB-51EF390723A7";
paths = (
{
closed = 1;
nodes = (
"482 0 LINE",
"482 288 LINE",
"214 288 LINE",
"214 0 LINE",
"85 0 LINE",
"85 680 LINE",
"214 685 LINE",
"214 392 LINE",
"482 392 LINE",
"482 680 LINE",
"611 680 LINE",
"611 0 LINE"
);
}
);
width = 696;
}
);
unicode = 0048;
},
{
glyphname = I;
lastChange = "2017-03-21 12:01:59 +0000";
layers = (
{
anchors = (
{
name = bottom;
position = "{135, -3}";
},
{
name = topU;
position = "{140, 680}";
}
);
layerId = "E854A3C3-7B98-494E-8852-CB9ED5BB8961";
paths = (
{
closed = 1;
nodes = (
"90 0 LINE",
"90 680 LINE",
"186 680 LINE",
"186 0 LINE"
);
}
);
width = 276;
},
{
anchors = (
{
name = bottom;
position = "{152, 0}";
},
{
name = topU;
position = "{152, 680}";
}
);
layerId = "24C3257D-BF04-43D4-ADFB-51EF390723A7";
paths = (
{
closed = 1;
nodes = (
"85 0 LINE",
"85 680 LINE",
"214 680 LINE",
"214 0 LINE"
);
}
);
width = 299;
}
);
unicode = 0049;
},
{
glyphname = J;
lastChange = "2015-05-09 19:48:43 +0000";
layers = (
{
layerId = "E854A3C3-7B98-494E-8852-CB9ED5BB8961";
paths = (
{
closed = 1;
nodes = (
"92 680 LINE",
"188 680 LINE",
"188 55 LINE SMOOTH",
"188 -32 OFFCURVE",
"156 -69 OFFCURVE",
"48 -102 CURVE",
"10 -33 LINE",
"78 -8 OFFCURVE",
"92 5 OFFCURVE",
"92 73 CURVE SMOOTH"
);
}
);
width = 268;
},
{
layerId = "24C3257D-BF04-43D4-ADFB-51EF390723A7";
paths = (
{
closed = 1;
nodes = (
"88 680 LINE",
"219 680 LINE",
"219 68 LINE SMOOTH",
"219 -24 OFFCURVE",
"182 -63 OFFCURVE",
"62 -102 CURVE",
"10 -6 LINE",
"81 19 OFFCURVE",
"88 31 OFFCURVE",
"88 87 CURVE SMOOTH"
);
}
);
width = 294;
}
);
unicode = 004A;
},
{
glyphname = K;
lastChange = "2015-05-09 19:48:52 +0000";
layers = (
{
anchors = (
{
name = bottom;
position = "{338, 0}";
}
);
layerId = "E854A3C3-7B98-494E-8852-CB9ED5BB8961";
paths = (
{
closed = 1;
nodes = (
"615 0 LINE",
"323.432 381.885 LINE",
"564 639 LINE",
"496 695 LINE",
"186 365 LINE",
"186 680 LINE",
"90 680 LINE",
"90 0 LINE",
"186 0 LINE",
"186 235 LINE",
"259.021 313.043 LINE",
"498 0 LINE"
);
}
);
width = 625;
},
{
anchors = (
{
name = bottom;
position = "{356, 0}";
}
);
layerId = "24C3257D-BF04-43D4-ADFB-51EF390723A7";
paths = (
{
closed = 1;
nodes = (
"648 0 LINE",
"371.698 376.511 LINE",
"606 621 LINE",
"510 695 LINE",
"215 395 LINE",
"215 680 LINE",
"85 680 LINE",
"85 0 LINE",
"215 0 LINE",
"215 213 LINE",
"282.384 283.314 LINE",
"487 0 LINE"
);
}
);
width = 658;
}
);
unicode = 004B;
},
{
glyphname = L;
lastChange = "2017-03-21 12:49:20 +0000";
layers = (
{
anchors = (
{
name = bottom;
position = "{341, 0}";
},
{
name = topU;
position = "{186, 680}";
}
);
layerId = "E854A3C3-7B98-494E-8852-CB9ED5BB8961";
paths = (
{
closed = 1;
nodes = (
"505 0 LINE",
"90 0 LINE",
"90 680 LINE",
"186 680 LINE",
"186 75 LINE",
"493 75 LINE"
);
}
);
width = 515;
},
{
anchors = (
{
name = bottom;
position = "{369, 0}";
},
{
name = topU;
position = "{214, 680}";
}
);
layerId = "24C3257D-BF04-43D4-ADFB-51EF390723A7";
paths = (
{
closed = 1;
nodes = (
"534 0 LINE",
"85 0 LINE",
"85 680 LINE",
"214 680 LINE",
"214 101 LINE",
"514 101 LINE"
);
}
);
width = 544;
}
);
unicode = 004C;
},
{
glyphname = M;
lastChange = "2015-05-09 19:39:39 +0000";
layers = (
{
layerId = "E854A3C3-7B98-494E-8852-CB9ED5BB8961";
paths = (
{
closed = 1;
nodes = (
"374 218 LINE",
"186 481 LINE",
"186 0 LINE",
"90 0 LINE",
"90 680 LINE",
"149 680 LINE",
"388 344 LINE",
"615 680 LINE",
"675 680 LINE",
"675 0 LINE",
"578 0 LINE",
"578 472 LINE",
"409 223 LINE"
);
}
);
width = 765;
},
{
layerId = "24C3257D-BF04-43D4-ADFB-51EF390723A7";
paths = (
{
closed = 1;
nodes = (
"377 206 LINE",
"214 415 LINE",
"214 0 LINE",
"85 0 LINE",
"85 680 LINE",
"167 680 LINE",
"397 366 LINE",
"606 680 LINE",
"685 680 LINE",
"685 0 LINE",
"554 0 LINE",
"554 392 LINE",
"427 213 LINE"
);
}
);
width = 770;
}
);
unicode = 004D;
},
{
glyphname = N;
lastChange = "2015-05-09 22:10:03 +0000";
layers = (
{
anchors = (
{
name = bottom;
position = "{361, 0}";
},
{
name = topU;
position = "{362, 680}";
}
);
layerId = "E854A3C3-7B98-494E-8852-CB9ED5BB8961";
paths = (
{
closed = 1;
nodes = (
"90 0 LINE",
"90 680 LINE",
"175 680 LINE",
"528 177 LINE",
"528 680 LINE",
"625 680 LINE",
"625 0 LINE",
"539 0 LINE",
"186 507 LINE",
"186 0 LINE"
);
}
);
width = 715;
},
{
anchors = (
{
name = bottom;
position = "{381, 0}";
},
{
name = topU;
position = "{378, 680}";
}
);
layerId = "24C3257D-BF04-43D4-ADFB-51EF390723A7";
paths = (
{
closed = 1;
nodes = (
"85 0 LINE",
"85 680 LINE",
"214 680 LINE",
"529 226 LINE",
"529 680 LINE",
"659 680 LINE",
"659 0 LINE",
"529 0 LINE",
"214 455 LINE",
"214 0 LINE"
);
}
);
width = 744;
}
);
unicode = 004E;
},
{
glyphname = O;
lastChange = "2015-05-09 22:10:13 +0000";
layers = (
{
anchors = (
{
name = topU;
position = "{364, 680}";
}
);
layerId = "E854A3C3-7B98-494E-8852-CB9ED5BB8961";
paths = (
{
closed = 1;
nodes = (
"553 696 OFFCURVE",
"689 548 OFFCURVE",
"689 344 CURVE SMOOTH",
"689 139 OFFCURVE",
"552 -11 OFFCURVE",
"362 -14 CURVE SMOOTH",
"175 -14 OFFCURVE",
"40 133 OFFCURVE",
"40 337 CURVE SMOOTH",
"40 541 OFFCURVE",
"177 692 OFFCURVE",
"365 696 CURVE SMOOTH"
);
},
{
closed = 1;
nodes = (
"140 181 OFFCURVE",
"233 68 OFFCURVE",
"361 68 CURVE SMOOTH",
"492 68 OFFCURVE",
"587 184 OFFCURVE",
"587 344 CURVE SMOOTH",
"587 500 OFFCURVE",
"495 613 OFFCURVE",
"367 613 CURVE SMOOTH",
"235 613 OFFCURVE",
"140 497 OFFCURVE",
"140 338 CURVE SMOOTH"
);
}
);
width = 729;
},
{
anchors = (
{
name = topU;
position = "{368, 680}";
}
);
layerId = "24C3257D-BF04-43D4-ADFB-51EF390723A7";
paths = (
{
closed = 1;
nodes = (
"581 696 OFFCURVE",
"702 539 OFFCURVE",
"702 344 CURVE SMOOTH",
"702 133 OFFCURVE",
"567 -10 OFFCURVE",
"368 -14 CURVE SMOOTH",
"156 -14 OFFCURVE",
"35 142 OFFCURVE",
"35 337 CURVE SMOOTH",
"35 546 OFFCURVE",
"169 692 OFFCURVE",
"368 696 CURVE SMOOTH"
);
},
{
closed = 1;
nodes = (
"170 195 OFFCURVE",
"246 95 OFFCURVE",
"367 95 CURVE SMOOTH",
"476 95 OFFCURVE",
"567 175 OFFCURVE",
"567 344 CURVE SMOOTH",
"567 485 OFFCURVE",
"491 586 OFFCURVE",
"370 586 CURVE SMOOTH",
"263 586 OFFCURVE",
"170 490 OFFCURVE",
"170 338 CURVE SMOOTH"
);
}
);
width = 737;
}
);
unicode = 004F;
},
{
glyphname = P;
lastChange = "2015-05-09 19:39:39 +0000";
layers = (
{
layerId = "E854A3C3-7B98-494E-8852-CB9ED5BB8961";
paths = (
{
closed = 1;
nodes = (
"90 0 LINE",
"90 680 LINE",
"285 680 LINE SMOOTH",
"429 680 OFFCURVE",
"542 620 OFFCURVE",
"542 468 CURVE SMOOTH",
"541 317 OFFCURVE",
"418 250 OFFCURVE",
"275 250 CURVE SMOOTH",
"186 250 LINE",
"186 0 LINE"
);
},
{
closed = 1;
nodes = (
"186 599 LINE",
"186 330 LINE",
"279 330 LINE SMOOTH",
"371 330 OFFCURVE",
"438 369 OFFCURVE",
"442 464 CURVE",
"442 567 OFFCURVE",
"381 599 OFFCURVE",
"284 599 CURVE SMOOTH"
);
}
);
width = 572;
},
{
layerId = "24C3257D-BF04-43D4-ADFB-51EF390723A7";
paths = (
{
closed = 1;
nodes = (
"85 0 LINE",
"85 680 LINE",
"298 680 LINE SMOOTH",
"446 680 OFFCURVE",
"567 618 OFFCURVE",
"567 462 CURVE SMOOTH",
"566 307 OFFCURVE",
"433 237 OFFCURVE",
"289 237 CURVE SMOOTH",
"214 237 LINE",
"214 0 LINE"
);
},
{
closed = 1;
nodes = (
"214 572 LINE",
"214 344 LINE",
"296 344 LINE SMOOTH",
"373 344 OFFCURVE",
"425 378 OFFCURVE",
"430 454 CURVE",
"430 542 OFFCURVE",
"379 572 OFFCURVE",
"294 572 CURVE SMOOTH"
);
}
);
width = 592;
}
);
unicode = 0050;
},
{
glyphname = Q;
lastChange = "2015-05-09 22:10:23 +0000";
layers = (
{
layerId = "E854A3C3-7B98-494E-8852-CB9ED5BB8961";
paths = (
{
closed = 1;
nodes = (
"675 24 LINE",
"619 -25 LINE",
"392 187 LINE",
"458 237 LINE"
);
},
{
closed = 1;
nodes = (
"553 696 OFFCURVE",
"689 548 OFFCURVE",
"689 344 CURVE SMOOTH",
"689 139 OFFCURVE",
"552 -11 OFFCURVE",
"362 -14 CURVE SMOOTH",
"175 -14 OFFCURVE",
"40 133 OFFCURVE",
"40 337 CURVE SMOOTH",
"40 541 OFFCURVE",
"177 692 OFFCURVE",
"365 696 CURVE SMOOTH"
);
},
{
closed = 1;
nodes = (
"140 181 OFFCURVE",
"233 68 OFFCURVE",
"361 68 CURVE SMOOTH",
"492 68 OFFCURVE",
"587 184 OFFCURVE",
"587 344 CURVE SMOOTH",
"587 500 OFFCURVE",
"495 613 OFFCURVE",
"367 613 CURVE SMOOTH",
"235 613 OFFCURVE",
"140 497 OFFCURVE",
"140 338 CURVE SMOOTH"
);
}
);
width = 729;
},
{
layerId = "24C3257D-BF04-43D4-ADFB-51EF390723A7";
paths = (
{
closed = 1;
nodes = (
"684 31 LINE",
"608 -36 LINE",
"367 188 LINE",
"455 255 LINE"
);
},
{
closed = 1;
nodes = (
"581 696 OFFCURVE",
"702 539 OFFCURVE",
"702 344 CURVE SMOOTH",
"702 133 OFFCURVE",
"567 -10 OFFCURVE",
"368 -14 CURVE SMOOTH",
"156 -14 OFFCURVE",
"35 142 OFFCURVE",
"35 337 CURVE SMOOTH",
"35 546 OFFCURVE",
"169 692 OFFCURVE",
"368 696 CURVE SMOOTH"
);
},
{
closed = 1;
nodes = (
"170 195 OFFCURVE",
"246 95 OFFCURVE",
"367 95 CURVE SMOOTH",
"476 95 OFFCURVE",
"567 175 OFFCURVE",
"567 344 CURVE SMOOTH",
"567 485 OFFCURVE",
"491 586 OFFCURVE",
"370 586 CURVE SMOOTH",
"263 586 OFFCURVE",
"170 490 OFFCURVE",
"170 338 CURVE SMOOTH"
);
}
);
width = 737;
}
);
unicode = 0051;
},
{
glyphname = R;
lastChange = "2015-05-09 19:49:29 +0000";
layers = (
{
anchors = (
{
name = bottom;
position = "{325, 0}";
},
{
name = topU;
position = "{287, 680}";
}
);
layerId = "E854A3C3-7B98-494E-8852-CB9ED5BB8961";
paths = (
{
closed = 1;
nodes = (
"186 599 LINE",
"186 350 LINE",
"279 350 LINE SMOOTH",
"368 350 OFFCURVE",
"441 382 OFFCURVE",
"442 474 CURVE SMOOTH",
"442 570 OFFCURVE",
"379 599 OFFCURVE",
"284 599 CURVE SMOOTH"
);
},
{
closed = 1;
nodes = (
"285 680 LINE SMOOTH",
"429 680 OFFCURVE",
"542 621 OFFCURVE",
"542 478 CURVE SMOOTH",
"541 389 OFFCURVE",
"492 329 OFFCURVE",
"423 300 CURVE",
"594 0 LINE",
"490 0 LINE",
"338 275 LINE",
"327 273 OFFCURVE",
"293 272 OFFCURVE",
"275 272 CURVE SMOOTH",
"186 272 LINE",
"186 0 LINE",
"90 0 LINE",
"90 680 LINE"
);
}
);
width = 604;
},
{
anchors = (
{
name = bottom;
position = "{348, 0}";
},
{
name = topU;
position = "{299, 680}";
}
);
layerId = "24C3257D-BF04-43D4-ADFB-51EF390723A7";
paths = (
{
closed = 1;
nodes = (
"214 572 LINE",
"214 364 LINE",
"296 364 LINE SMOOTH",
"373 364 OFFCURVE",
"430 393 OFFCURVE",
"430 465 CURVE SMOOTH",
"430 541 OFFCURVE",
"379 572 OFFCURVE",
"294 572 CURVE SMOOTH"
);
},
{
closed = 1;
nodes = (
"298 680 LINE SMOOTH",
"446 680 OFFCURVE",
"567 614 OFFCURVE",
"567 471 CURVE SMOOTH",
"567 387 OFFCURVE",
"519 325 OFFCURVE",
"451 292 CURVE",
"618 0 LINE",
"480 0 LINE",
"336 260 LINE",
"321 259 OFFCURVE",
"305 258 OFFCURVE",
"289 258 CURVE SMOOTH",
"214 258 LINE",
"214 0 LINE",
"85 0 LINE",
"85 680 LINE"
);
}
);
width = 628;
}
);
unicode = 0052;
},
{
glyphname = S;
lastChange = "2015-05-09 19:39:39 +0000";
layers = (
{
anchors = (
{
name = bottom;
position = "{244, 0}";
},
{
name = topU;
position = "{263, 680}";
}
);
layerId = "E854A3C3-7B98-494E-8852-CB9ED5BB8961";
paths = (
{
closed = 1;
nodes = (
"74 113 LINE",
"111 94 OFFCURVE",
"181 70 OFFCURVE",
"242 70 CURVE SMOOTH",
"339 70 OFFCURVE",
"391 109 OFFCURVE",
"391 168 CURVE SMOOTH",
"391 235 OFFCURVE",
"327 269 OFFCURVE",
"216 318 CURVE SMOOTH",
"99 370 OFFCURVE",
"40 417 OFFCURVE",
"40 520 CURVE SMOOTH",
"40 619 OFFCURVE",
"124 696 OFFCURVE",
"263 696 CURVE SMOOTH",
"331 696 OFFCURVE",
"398 674 OFFCURVE",
"443 651 CURVE",
"411 575 LINE",
"376 592 OFFCURVE",
"334 611 OFFCURVE",
"270 611 CURVE SMOOTH",
"194 611 OFFCURVE",
"136 582 OFFCURVE",
"136 522 CURVE SMOOTH",
"136 453 OFFCURVE",
"195 422 OFFCURVE",
"312 369 CURVE SMOOTH",
"423 319 OFFCURVE",
"488 269 OFFCURVE",
"488 170 CURVE SMOOTH",
"488 63 OFFCURVE",
"400 -13 OFFCURVE",
"243 -13 CURVE SMOOTH",
"186 -13 OFFCURVE",
"79 13 OFFCURVE",
"52 37 CURVE"
);
}
);
width = 518;
},
{
anchors = (
{
name = bottom;
position = "{248, 0}";
},
{
name = topU;
position = "{269, 680}";
}
);
layerId = "24C3257D-BF04-43D4-ADFB-51EF390723A7";
paths = (
{
closed = 1;
nodes = (
"76 150 LINE",
"117 129 OFFCURVE",
"189 102 OFFCURVE",
"246 102 CURVE SMOOTH",
"327 102 OFFCURVE",
"368 128 OFFCURVE",
"368 176 CURVE SMOOTH",
"368 221 OFFCURVE",
"300 251 OFFCURVE",
"238 288 CURVE SMOOTH",
"142 346 OFFCURVE",
"35 409 OFFCURVE",
"35 514 CURVE SMOOTH",
"35 617 OFFCURVE",
"120 696 OFFCURVE",
"269 696 CURVE SMOOTH",
"337 696 OFFCURVE",
"409 670 OFFCURVE",
"461 645 CURVE",
"418 541 LINE",
"377 561 OFFCURVE",
"330 583 OFFCURVE",
"271 583 CURVE SMOOTH",
"214 583 OFFCURVE",
"169 561 OFFCURVE",
"169 514 CURVE SMOOTH",
"169 463 OFFCURVE",
"230 438 OFFCURVE",
"297 398 CURVE SMOOTH",
"394 340 OFFCURVE",
"502 290 OFFCURVE",
"502 174 CURVE SMOOTH",
"502 66 OFFCURVE",
"412 -13 OFFCURVE",
"248 -13 CURVE SMOOTH",
"191 -13 OFFCURVE",
"91 18 OFFCURVE",
"47 45 CURVE"
);
}
);
width = 527;
}
);
unicode = 0053;
},
{
glyphname = T;
lastChange = "2015-05-09 22:10:32 +0000";
layers = (
{
anchors = (
{
name = bottom;
position = "{284, 0}";
},
{
name = topU;
position = "{281, 680}";
}
);
layerId = "E854A3C3-7B98-494E-8852-CB9ED5BB8961";
paths = (
{
closed = 1;
nodes = (
"562 604 LINE",
"328 604 LINE",
"328 0 LINE",
"231 0 LINE",
"231 604 LINE",
"10 604 LINE",
"10 680 LINE",
"549 680 LINE"
);
}
);
width = 572;
},
{
anchors = (
{
name = bottom;
position = "{283, 0}";
},
{
name = topU;
position = "{284, 680}";
}
);
layerId = "24C3257D-BF04-43D4-ADFB-51EF390723A7";
paths = (
{
closed = 1;
nodes = (
"581 578 LINE",
"348 578 LINE",
"348 0 LINE",
"217 0 LINE",
"217 578 LINE",
"10 578 LINE",
"10 680 LINE",
"560 680 LINE"
);
}
);
width = 591;
}
);
unicode = 0054;
},
{
glyphname = U;
lastChange = "2015-05-09 19:44:21 +0000";
layers = (
{
anchors = (
{
name = bottom;
position = "{345, 0}";
},
{
name = topU;
position = "{345, 680}";
}
);
layerId = "E854A3C3-7B98-494E-8852-CB9ED5BB8961";
paths = (
{
closed = 1;
nodes = (
"176 252 LINE SMOOTH",
"176 137 OFFCURVE",
"245 68 OFFCURVE",
"345 68 CURVE SMOOTH",
"449 68 OFFCURVE",
"513 140 OFFCURVE",
"513 252 CURVE SMOOTH",
"513 680 LINE",
"610 680 LINE",
"610 243 LINE SMOOTH",
"610 98 OFFCURVE",
"508 -11 OFFCURVE",
"345 -11 CURVE SMOOTH",
"182 -11 OFFCURVE",
"80 96 OFFCURVE",
"80 243 CURVE SMOOTH",
"80 680 LINE",
"176 680 LINE"
);
}
);
width = 690;
},
{
anchors = (
{
name = bottom;
position = "{355, 0}";
},
{
name = topU;
position = "{355, 680}";
}
);
layerId = "24C3257D-BF04-43D4-ADFB-51EF390723A7";
paths = (
{
closed = 1;
nodes = (
"206 257 LINE SMOOTH",
"206 144 OFFCURVE",
"268 95 OFFCURVE",
"355 95 CURVE SMOOTH",
"443 95 OFFCURVE",
"504 148 OFFCURVE",
"504 257 CURVE SMOOTH",
"504 680 LINE",
"635 680 LINE",
"635 247 LINE SMOOTH",
"635 100 OFFCURVE",
"526 -10 OFFCURVE",
"355 -11 CURVE SMOOTH",
"184 -12 OFFCURVE",
"76 100 OFFCURVE",
"76 247 CURVE SMOOTH",
"75 680 LINE",
"206 680 LINE"
);
}
);
width = 710;
}
);
unicode = 0055;
},
{
glyphname = V;
lastChange = "2015-05-09 19:39:39 +0000";
layers = (
{
layerId = "E854A3C3-7B98-494E-8852-CB9ED5BB8961";
paths = (
{
closed = 1;
nodes = (
"317 129 LINE",
"521 680 LINE",
"615 680 LINE",
"359 0 LINE",
"272 0 LINE",
"10 674 LINE",
"105 688 LINE"
);
}
);
width = 625;
},
{
layerId = "24C3257D-BF04-43D4-ADFB-51EF390723A7";
paths = (
{
closed = 1;
nodes = (
"332 178 LINE",
"519 680 LINE",
"649 680 LINE",
"384 0 LINE",
"274 0 LINE",
"10 672 LINE",
"140 690 LINE"
);
}
);
width = 659;
}
);
unicode = 0056;
},
{
glyphname = W;
lastChange = "2015-05-09 19:39:39 +0000";
layers = (
{
layerId = "E854A3C3-7B98-494E-8852-CB9ED5BB8961";
paths = (
{
closed = 1;
nodes = (
"789 680 LINE",
"645 129 LINE",
"495 680 LINE",
"401 680 LINE",
"257 129 LINE",
"105 688 LINE",
"10 674 LINE",
"212 0 LINE",
"299 0 LINE",
"447 542 LINE",
"600 0 LINE",
"687 0 LINE",
"883 680 LINE"
);
}
);
width = 893;
},
{
layerId = "24C3257D-BF04-43D4-ADFB-51EF390723A7";
paths = (
{
closed = 1;
nodes = (
"785 680 LINE",
"658 178 LINE",
"529 680 LINE",
"399 680 LINE",
"272 178 LINE",
"140 690 LINE",
"10 672 LINE",
"214 0 LINE",
"324 0 LINE",
"462 496 LINE",
"600 0 LINE",
"710 0 LINE",
"915 680 LINE"
);
}
);
width = 925;
}
);
unicode = 0057;
},
{
glyphname = X;
lastChange = "2015-05-09 19:39:39 +0000";
layers = (
{
layerId = "E854A3C3-7B98-494E-8852-CB9ED5BB8961";
paths = (
{
closed = 1;
nodes = (
"10 0 LINE",
"253 344 LINE",
"38 660 LINE",
"116 700 LINE",
"315 402 LINE",
"493 680 LINE",
"594 680 LINE",
"364 335 LINE",
"581 0 LINE",
"478 0 LINE",
"303 276 LINE",
"110 0 LINE"
);
}
);
width = 604;
},
{
layerId = "24C3257D-BF04-43D4-ADFB-51EF390723A7";
paths = (
{
closed = 1;
nodes = (
"10 0 LINE",
"248 344 LINE",
"22 656 LINE",
"135 700 LINE",
"325 428 LINE",
"492 680 LINE",
"627 680 LINE",
"390 339 LINE",
"614 0 LINE",
"478 0 LINE",
"314 256 LINE",
"143 0 LINE"
);
}
);
width = 637;
}
);
unicode = 0058;
},
{
glyphname = Y;
lastChange = "2015-05-09 19:39:39 +0000";
layers = (
{
anchors = (
{
name = topU;
position = "{283, 680}";
}
);
layerId = "E854A3C3-7B98-494E-8852-CB9ED5BB8961";
paths = (
{
closed = 1;
nodes = (
"235 0 LINE",
"235 270 LINE",
"10 663 LINE",
"103 697 LINE",
"283 366 LINE",
"467 680 LINE",
"569 680 LINE",
"332 271 LINE",
"331 0 LINE"
);
}
);
width = 579;
},
{
anchors = (
{
name = topU;
position = "{296, 680}";
}
);
layerId = "24C3257D-BF04-43D4-ADFB-51EF390723A7";
paths = (
{
closed = 1;
nodes = (
"232 0 LINE",
"232 265 LINE",
"10 657 LINE",
"138 694 LINE",
"296 396 LINE",
"461 680 LINE",
"598 680 LINE",
"362 260 LINE",
"362 0 LINE"
);
}
);
width = 608;
}
);
unicode = 0059;
},
{
glyphname = Z;
lastChange = "2015-05-09 22:10:45 +0000";
layers = (
{
anchors = (
{
name = topU;
position = "{309, 680}";
}
);
layerId = "E854A3C3-7B98-494E-8852-CB9ED5BB8961";
paths = (
{
closed = 1;
nodes = (
"541 0 LINE",
"31 0 LINE",
"20 75 LINE",
"435 604 LINE",
"61 604 LINE",
"48 680 LINE",
"534 680 LINE",
"544 604 LINE",
"125 75 LINE",
"531 75 LINE"
);
}
);
width = 564;
},
{
anchors = (
{
name = topU;
position = "{280, 680}";
}
);
layerId = "24C3257D-BF04-43D4-ADFB-51EF390723A7";
paths = (
{
closed = 1;
nodes = (
"562 0 LINE",
"30 0 LINE",
"15 101 LINE",
"403 578 LINE",
"59 578 LINE",
"44 680 LINE",
"539 680 LINE",
"554 578 LINE",
"155 101 LINE",
"547 101 LINE"
);
}
);
width = 577;
}
);
unicode = 005A;
},
{
glyphname = a;
lastChange = "2017-03-21 12:02:59 +0000";
layers = (
{
anchors = (
{
name = bottom;
position = "{387, -1}";
},
{
name = top;
position = "{241, 485}";
}
);
layerId = "E854A3C3-7B98-494E-8852-CB9ED5BB8961";
paths = (
{
closed = 1;
nodes = (
"76 455 LINE",
"113 480 OFFCURVE",
"200 498 OFFCURVE",
"241 498 CURVE SMOOTH",
"353 498 OFFCURVE",
"437 423 OFFCURVE",
"437 329 CURVE SMOOTH",
"437 0 LINE",
"370 0 LINE",
"358 46 LINE",
"325 17 OFFCURVE",
"268 -12 OFFCURVE",
"216 -12 CURVE SMOOTH",
"101 -12 OFFCURVE",
"47 52 OFFCURVE",
"47 140 CURVE SMOOTH",
"47 237 OFFCURVE",
"120 290 OFFCURVE",
"225 290 CURVE SMOOTH",
"340 290 LINE",
"340 362 OFFCURVE",
"319 412 OFFCURVE",
"243 412 CURVE SMOOTH",
"186 412 OFFCURVE",
"139 395 OFFCURVE",
"103 379 CURVE"
);
},
{
closed = 1;
nodes = (
"133 103 OFFCURVE",
"159 64 OFFCURVE",
"214 64 CURVE SMOOTH",
"263 64 OFFCURVE",
"308 91 OFFCURVE",
"341 128 CURVE",
"341 226 LINE",
"223 226 LINE SMOOTH",
"164 226 OFFCURVE",
"133 185 OFFCURVE",
"133 140 CURVE SMOOTH"
);
}
);
width = 493;
},
{
anchors = (
{
name = bottom;
position = "{390, -3}";
},
{
name = top;
position = "{255, 485}";
}
);
layerId = "24C3257D-BF04-43D4-ADFB-51EF390723A7";
paths = (
{
closed = 1;
nodes = (
"67 454 LINE",
"104 479 OFFCURVE",
"200 498 OFFCURVE",
"241 498 CURVE SMOOTH",
"357 498 OFFCURVE",
"452 423 OFFCURVE",
"452 319 CURVE SMOOTH",
"452 0 LINE",
"367 0 LINE",
"345 52 LINE",
"309 14 OFFCURVE",
"265 -12 OFFCURVE",
"217 -12 CURVE SMOOTH",
"98 -12 OFFCURVE",
"42 52 OFFCURVE",
"42 145 CURVE SMOOTH",
"42 245 OFFCURVE",
"117 300 OFFCURVE",
"226 300 CURVE SMOOTH",
"321 300 LINE",
"320 349 OFFCURVE",
"291 378 OFFCURVE",
"243 378 CURVE SMOOTH",
"198 378 OFFCURVE",
"138 363 OFFCURVE",
"102 346 CURVE"
);
},
{
closed = 1;
nodes = (
"153 117 OFFCURVE",
"178 91 OFFCURVE",
"215 91 CURVE SMOOTH",
"251 91 OFFCURVE",
"289 107 OFFCURVE",
"322 139 CURVE",
"322 213 LINE",
"224 213 LINE SMOOTH",
"179 213 OFFCURVE",
"153 180 OFFCURVE",
"153 145 CURVE SMOOTH"
);
}
);
width = 503;
}
);
unicode = 0061;
},
{
glyphname = b;
lastChange = "2015-05-25 07:50:37 +0000";
layers = (
{
layerId = "E854A3C3-7B98-494E-8852-CB9ED5BB8961";
paths = (
{
closed = 1;
nodes = (
"70 0 LINE",
"70 695 LINE",
"166 706 LINE",
"166 63 LINE",
"124 0 LINE"
);
},
{
closed = 1;
nodes = (
"101 412 LINE",
"144 471 OFFCURVE",
"225 498 OFFCURVE",
"266 498 CURVE SMOOTH",
"415 498 OFFCURVE",
"507 395 OFFCURVE",
"507 239 CURVE SMOOTH",
"507 88 OFFCURVE",
"411 -13 OFFCURVE",
"265 -13 CURVE SMOOTH",
"225 -13 OFFCURVE",
"142 10 OFFCURVE",
"99 74 CURVE",
"127 142 LINE",
"168 90 OFFCURVE",
"209 69 OFFCURVE",
"266 69 CURVE SMOOTH",
"357 69 OFFCURVE",
"409 142 OFFCURVE",
"409 238 CURVE SMOOTH",
"409 342 OFFCURVE",
"358 416 OFFCURVE",
"266 416 CURVE SMOOTH",
"207 416 OFFCURVE",
"171 393 OFFCURVE",
"130 343 CURVE"
);
}
);
width = 537;
},
{
layerId = "24C3257D-BF04-43D4-ADFB-51EF390723A7";
paths = (
{
closed = 1;
nodes = (
"65 0 LINE",
"65 695 LINE",
"194 706 LINE",
"194 83 LINE",
"131 0 LINE"
);
},
{
closed = 1;
nodes = (
"113 408 LINE",
"158 463 OFFCURVE",
"216 498 OFFCURVE",
"285 498 CURVE SMOOTH",
"436 498 OFFCURVE",
"529 399 OFFCURVE",
"529 244 CURVE SMOOTH",
"529 92 OFFCURVE",
"438 -12 OFFCURVE",
"281 -12 CURVE SMOOTH",
"219 -12 OFFCURVE",
"143 33 OFFCURVE",
"113 79 CURVE",
"150 167 LINE",
"197 116 OFFCURVE",
"235 99 OFFCURVE",
"280 99 CURVE SMOOTH",
"353 99 OFFCURVE",
"395 161 OFFCURVE",
"395 244 CURVE SMOOTH",
"395 328 OFFCURVE",
"353 387 OFFCURVE",
"280 387 CURVE SMOOTH",
"235 387 OFFCURVE",
"197 365 OFFCURVE",
"150 324 CURVE"
);
}
);
width = 554;
}
);
unicode = 0062;
},
{
glyphname = c;
lastChange = "2015-05-09 19:50:23 +0000";
layers = (
{
anchors = (
{
name = bottom;
position = "{271, 0}";
},
{
name = top;
position = "{248, 485}";
}
);
layerId = "E854A3C3-7B98-494E-8852-CB9ED5BB8961";
paths = (
{
closed = 1;
nodes = (
"436 33 LINE",
"393 4 OFFCURVE",
"312 -13 OFFCURVE",
"271 -13 CURVE SMOOTH",
"122 -13 OFFCURVE",
"30 91 OFFCURVE",
"30 243 CURVE SMOOTH",
"31 394 OFFCURVE",
"124 498 OFFCURVE",
"275 498 CURVE SMOOTH",
"315 498 OFFCURVE",
"395 480 OFFCURVE",
"438 451 CURVE",
"410 383 LINE",
"369 400 OFFCURVE",
"331 416 OFFCURVE",
"274 416 CURVE SMOOTH",
"183 416 OFFCURVE",
"129 340 OFFCURVE",
"128 244 CURVE SMOOTH",
"128 143 OFFCURVE",
"179 69 OFFCURVE",
"271 69 CURVE SMOOTH",
"330 69 OFFCURVE",
"366 82 OFFCURVE",
"407 102 CURVE"
);
}
);
width = 464;
},
{
anchors = (
{
name = bottom;
position = "{270, 0}";
},
{
name = top;
position = "{261, 485}";
}
);
layerId = "24C3257D-BF04-43D4-ADFB-51EF390723A7";
paths = (
{
closed = 1;
nodes = (
"451 38 LINE",
"406 3 OFFCURVE",
"324 -12 OFFCURVE",
"283 -12 CURVE SMOOTH",
"126 -12 OFFCURVE",
"25 87 OFFCURVE",
"25 242 CURVE SMOOTH",
"25 397 OFFCURVE",
"126 498 OFFCURVE",
"283 498 CURVE SMOOTH",
"324 498 OFFCURVE",
"403 480 OFFCURVE",
"451 447 CURVE",
"414 354 LINE",
"367 375 OFFCURVE",
"329 387 OFFCURVE",
"284 387 CURVE SMOOTH",
"211 387 OFFCURVE",
"159 325 OFFCURVE",
"159 242 CURVE SMOOTH",
"159 158 OFFCURVE",
"211 99 OFFCURVE",
"284 99 CURVE SMOOTH",
"329 99 OFFCURVE",
"367 111 OFFCURVE",
"414 132 CURVE"
);
}
);
width = 472;
}
);
unicode = 0063;
},
{
glyphname = d;
lastChange = "2015-05-25 07:50:44 +0000";
layers = (
{
layerId = "E854A3C3-7B98-494E-8852-CB9ED5BB8961";
paths = (
{
closed = 1;
nodes = (
"377 695 LINE",
"474 705 LINE",
"474 0 LINE",
"419 0 LINE",
"377 82 LINE"
);
},
{
closed = 1;
nodes = (
"436 73 LINE",
"393 14 OFFCURVE",
"312 -13 OFFCURVE",
"271 -13 CURVE SMOOTH",
"122 -13 OFFCURVE",
"30 90 OFFCURVE",
"30 246 CURVE SMOOTH",
"30 397 OFFCURVE",
"126 498 OFFCURVE",
"272 498 CURVE SMOOTH",
"312 498 OFFCURVE",
"395 475 OFFCURVE",
"438 411 CURVE",
"410 343 LINE",
"369 395 OFFCURVE",
"328 416 OFFCURVE",
"271 416 CURVE SMOOTH",
"180 416 OFFCURVE",
"128 343 OFFCURVE",
"128 247 CURVE SMOOTH",
"128 143 OFFCURVE",
"179 69 OFFCURVE",
"271 69 CURVE SMOOTH",
"330 69 OFFCURVE",
"366 92 OFFCURVE",
"407 142 CURVE"
);
}
);
width = 544;
},
{
layerId = "24C3257D-BF04-43D4-ADFB-51EF390723A7";
paths = (
{
closed = 1;
nodes = (
"376 695 LINE",
"507 706 LINE",
"507 0 LINE",
"439 0 LINE",
"376 91 LINE"
);
},
{
closed = 1;
nodes = (
"441 78 LINE",
"396 23 OFFCURVE",
"338 -12 OFFCURVE",
"269 -12 CURVE SMOOTH",
"118 -12 OFFCURVE",
"25 87 OFFCURVE",
"25 242 CURVE SMOOTH",
"25 394 OFFCURVE",
"116 498 OFFCURVE",
"273 498 CURVE SMOOTH",
"335 498 OFFCURVE",
"411 453 OFFCURVE",
"441 407 CURVE",
"404 319 LINE",
"357 370 OFFCURVE",
"319 387 OFFCURVE",
"274 387 CURVE SMOOTH",
"201 387 OFFCURVE",
"159 325 OFFCURVE",
"159 242 CURVE SMOOTH",
"159 158 OFFCURVE",
"201 99 OFFCURVE",
"274 99 CURVE SMOOTH",
"319 99 OFFCURVE",
"357 121 OFFCURVE",
"404 162 CURVE"
);
}
);
width = 572;
}
);
unicode = 0064;
},
{
glyphname = e;
lastChange = "2017-03-21 12:02:50 +0000";
layers = (
{
anchors = (
{
name = bottom;
position = "{339, 0}";
},
{
name = top;
position = "{263, 485}";
}
);
layerId = "E854A3C3-7B98-494E-8852-CB9ED5BB8961";
paths = (
{
closed = 1;
nodes = (
"130 221 LINE",
"137 132 OFFCURVE",
"184 68 OFFCURVE",
"293 68 CURVE SMOOTH",
"350 68 OFFCURVE",
"386 86 OFFCURVE",
"439 111 CURVE",
"469 41 LINE",
"421 12 OFFCURVE",
"361 -12 OFFCURVE",
"293 -12 CURVE SMOOTH",
"120 -12 OFFCURVE",
"30 91 OFFCURVE",
"30 243 CURVE SMOOTH",
"30 394 OFFCURVE",
"117 498 OFFCURVE",
"262 498 CURVE SMOOTH",
"410 498 OFFCURVE",
"474 384 OFFCURVE",
"474 247 CURVE SMOOTH",
"474 221 LINE"
);
},
{
closed = 1;
nodes = (
"381 286 LINE",
"369 366 OFFCURVE",
"332 416 OFFCURVE",
"259 416 CURVE SMOOTH",
"184 416 OFFCURVE",
"141 365 OFFCURVE",
"132 286 CURVE"
);
}
);
width = 504;
},
{
anchors = (
{
name = bottom;
position = "{343, 0}";
},
{
name = top;
position = "{267, 485}";
}
);
layerId = "24C3257D-BF04-43D4-ADFB-51EF390723A7";
paths = (
{
closed = 1;
nodes = (
"163 204 LINE",
"175 140 OFFCURVE",
"213 99 OFFCURVE",
"309 99 CURVE SMOOTH",
"366 99 OFFCURVE",
"407 117 OFFCURVE",
"450 142 CURVE",
"488 48 LINE",
"443 13 OFFCURVE",
"390 -12 OFFCURVE",
"306 -12 CURVE SMOOTH",
"118 -12 OFFCURVE",
"25 87 OFFCURVE",
"25 242 CURVE SMOOTH",
"25 397 OFFCURVE",
"118 498 OFFCURVE",
"269 498 CURVE SMOOTH",
"421 498 OFFCURVE",
"490 381 OFFCURVE",
"490 244 CURVE SMOOTH",
"490 204 LINE"
);
},
{
closed = 1;
nodes = (
"367 291 LINE",
"354 356 OFFCURVE",
"318 387 OFFCURVE",
"266 387 CURVE SMOOTH",
"213 387 OFFCURVE",
"175 354 OFFCURVE",
"164 291 CURVE"
);
}
);
width = 515;
}
);
unicode = 0065;
},
{
glyphname = f;
lastChange = "2015-05-09 20:05:19 +0000";
layers = (
{
layerId = "E854A3C3-7B98-494E-8852-CB9ED5BB8961";
paths = (
{
closed = 1;
nodes = (
"15 479 LINE",
"89 479 LINE",
"89 542 LINE SMOOTH",
"89 639 OFFCURVE",
"147 702 OFFCURVE",
"243 702 CURVE SMOOTH",
"272 702 OFFCURVE",
"307 691 OFFCURVE",
"324 680 CURVE",
"300 606 LINE",
"287 611 OFFCURVE",
"267 617 OFFCURVE",
"252 617 CURVE SMOOTH",
"204 617 OFFCURVE",
"185 582 OFFCURVE",
"185 533 CURVE SMOOTH",
"185 479 LINE",
"275 479 LINE",
"306 406 LINE",
"185 406 LINE",
"185 0 LINE",
"89 0 LINE",
"89 406 LINE",
"16 406 LINE"
);
}
);
width = 324;
},
{
layerId = "24C3257D-BF04-43D4-ADFB-51EF390723A7";
paths = (
{
closed = 1;
nodes = (
"12 484 LINE",
"87 484 LINE",
"87 521 LINE SMOOTH",
"87 633 OFFCURVE",
"156 702 OFFCURVE",
"276 702 CURVE SMOOTH",
"307 702 OFFCURVE",
"352 688 OFFCURVE",
"373 671 CURVE",
"336 577 LINE",
"316 585 OFFCURVE",
"298 590 OFFCURVE",
"282 590 CURVE SMOOTH",
"237 590 OFFCURVE",
"217 554 OFFCURVE",
"217 503 CURVE SMOOTH",
"217 484 LINE",
"309 484 LINE",
"350 384 LINE",
"217 384 LINE",
"217 0 LINE",
"87 0 LINE",
"87 384 LINE",
"12 384 LINE"
);
}
);
width = 373;
}
);
unicode = 0066;
},
{
glyphname = g;
lastChange = "2015-05-25 07:50:29 +0000";
layers = (
{
anchors = (
{
name = top;
position = "{261, 485}";
}
);
layerId = "E854A3C3-7B98-494E-8852-CB9ED5BB8961";
paths = (
{
closed = 1;
nodes = (
"474 -43 LINE SMOOTH",
"474 -150 OFFCURVE",
"391 -230 OFFCURVE",
"242 -230 CURVE SMOOTH",
"201 -230 OFFCURVE",
"115 -213 OFFCURVE",
"70 -182 CURVE",
"99 -113 LINE",
"146 -134 OFFCURVE",
"180 -152 OFFCURVE",
"239 -152 CURVE SMOOTH",
"319 -152 OFFCURVE",
"377 -114 OFFCURVE",
"377 -42 CURVE SMOOTH",
"377 412 LINE",
"419 485 LINE",
"474 485 LINE"
);
},
{
closed = 1;
nodes = (
"436 73 LINE",
"393 14 OFFCURVE",
"312 -13 OFFCURVE",
"271 -13 CURVE SMOOTH",
"122 -13 OFFCURVE",
"30 90 OFFCURVE",
"30 246 CURVE SMOOTH",
"30 397 OFFCURVE",
"126 498 OFFCURVE",
"272 498 CURVE SMOOTH",
"312 498 OFFCURVE",
"395 475 OFFCURVE",
"438 411 CURVE",
"410 343 LINE",
"369 395 OFFCURVE",
"328 416 OFFCURVE",
"271 416 CURVE SMOOTH",
"180 416 OFFCURVE",
"128 343 OFFCURVE",
"128 247 CURVE SMOOTH",
"128 143 OFFCURVE",
"179 69 OFFCURVE",
"271 69 CURVE SMOOTH",
"330 69 OFFCURVE",
"366 92 OFFCURVE",
"407 142 CURVE"
);
}
);
width = 540;
},
{
anchors = (
{
name = top;
position = "{261, 485}";
}
);
layerId = "24C3257D-BF04-43D4-ADFB-51EF390723A7";
paths = (
{
closed = 1;
nodes = (
"507 -23 LINE SMOOTH",
"507 -159 OFFCURVE",
"403 -230 OFFCURVE",
"249 -230 CURVE SMOOTH",
"208 -230 OFFCURVE",
"103 -210 OFFCURVE",
"51 -175 CURVE",
"90 -83 LINE",
"150 -112 OFFCURVE",
"197 -125 OFFCURVE",
"246 -126 CURVE SMOOTH",
"323 -125 OFFCURVE",
"376 -86 OFFCURVE",
"376 -22 CURVE SMOOTH",
"376 390 LINE",
"439 485 LINE",
"507 485 LINE"
);
},
{
closed = 1;
nodes = (
"441 78 LINE",
"396 23 OFFCURVE",
"338 -12 OFFCURVE",
"269 -12 CURVE SMOOTH",
"118 -12 OFFCURVE",
"25 87 OFFCURVE",
"25 242 CURVE SMOOTH",
"25 394 OFFCURVE",
"116 498 OFFCURVE",
"273 498 CURVE SMOOTH",
"335 498 OFFCURVE",
"411 453 OFFCURVE",
"441 407 CURVE",
"404 319 LINE",
"357 370 OFFCURVE",
"319 387 OFFCURVE",
"274 387 CURVE SMOOTH",
"201 387 OFFCURVE",
"159 325 OFFCURVE",
"159 242 CURVE SMOOTH",
"159 158 OFFCURVE",
"201 99 OFFCURVE",
"274 99 CURVE SMOOTH",
"319 99 OFFCURVE",
"357 121 OFFCURVE",
"404 162 CURVE"
);
}
);
width = 568;
}
);
unicode = 0067;
},
{
glyphname = h;
lastChange = "2015-05-09 22:29:04 +0000";
layers = (
{
layerId = "E854A3C3-7B98-494E-8852-CB9ED5BB8961";
paths = (
{
closed = 1;
nodes = (
"154 421 LINE",
"203 466 OFFCURVE",
"273 501 OFFCURVE",
"339 501 CURVE SMOOTH",
"449 501 OFFCURVE",
"495 424 OFFCURVE",
"495 320 CURVE SMOOTH",
"495 0 LINE",
"399 0 LINE",
"399 311 LINE SMOOTH",
"399 376 OFFCURVE",
"382 419 OFFCURVE",
"319 419 CURVE SMOOTH",
"270 419 OFFCURVE",
"213 383 OFFCURVE",
"166 342 CURVE"
);
},
{
closed = 1;
nodes = (
"70 0 LINE",
"70 695 LINE",
"166 706 LINE",
"166 0 LINE"
);
}
);
width = 551;
},
{
layerId = "24C3257D-BF04-43D4-ADFB-51EF390723A7";
paths = (
{
closed = 1;
nodes = (
"171 433 LINE",
"233 477 OFFCURVE",
"306 501 OFFCURVE",
"358 501 CURVE SMOOTH",
"490 501 OFFCURVE",
"524 416 OFFCURVE",
"524 304 CURVE SMOOTH",
"524 0 LINE",
"394 0 LINE",
"394 298 LINE SMOOTH",
"394 359 OFFCURVE",
"367 393 OFFCURVE",
"324 393 CURVE SMOOTH",
"273 393 OFFCURVE",
"227 360 OFFCURVE",
"194 336 CURVE"
);
},
{
closed = 1;
nodes = (
"65 0 LINE",
"65 695 LINE",
"194 706 LINE",
"194 0 LINE"
);
}
);
width = 575;
}
);
unicode = 0068;
},
{
glyphname = i;
lastChange = "2015-05-09 22:11:52 +0000";
layers = (
{
anchors = (
{
name = bottom;
position = "{110, 0}";
}
);
layerId = "E854A3C3-7B98-494E-8852-CB9ED5BB8961";
paths = (
{
closed = 1;
nodes = (
"60 0 LINE",
"60 485 LINE",
"157 485 LINE",
"157 0 LINE"
);
},
{
closed = 1;
nodes = (
"74 572 OFFCURVE",
"48 599 OFFCURVE",
"48 632 CURVE SMOOTH",
"48 665 OFFCURVE",
"74 692 OFFCURVE",
"107 692 CURVE SMOOTH",
"140 692 OFFCURVE",
"168 665 OFFCURVE",
"168 632 CURVE SMOOTH",
"168 599 OFFCURVE",
"140 572 OFFCURVE",
"107 572 CURVE SMOOTH"
);
}
);
width = 217;
},
{
anchors = (
{
name = bottom;
position = "{121, 0}";
}
);
layerId = "24C3257D-BF04-43D4-ADFB-51EF390723A7";
paths = (
{
closed = 1;
nodes = (
"55 0 LINE",
"55 485 LINE",
"185 485 LINE",
"185 0 LINE"
);
},
{
closed = 1;
nodes = (
"79 554 OFFCURVE",
"47 586 OFFCURVE",
"47 627 CURVE SMOOTH",
"47 668 OFFCURVE",
"79 700 OFFCURVE",
"119 700 CURVE SMOOTH",
"160 700 OFFCURVE",
"193 668 OFFCURVE",
"193 627 CURVE SMOOTH",
"193 586 OFFCURVE",
"160 554 OFFCURVE",
"119 554 CURVE SMOOTH"
);
}
);
width = 240;
}
);
unicode = 0069;
},
{
glyphname = j;
lastChange = "2015-05-09 22:29:15 +0000";
layers = (
{
layerId = "E854A3C3-7B98-494E-8852-CB9ED5BB8961";
paths = (
{
closed = 1;
nodes = (
"156 572 OFFCURVE",
"184 599 OFFCURVE",
"184 632 CURVE SMOOTH",
"184 665 OFFCURVE",
"156 692 OFFCURVE",
"123 692 CURVE SMOOTH",
"90 692 OFFCURVE",
"63 665 OFFCURVE",
"63 632 CURVE SMOOTH",
"63 599 OFFCURVE",
"90 572 OFFCURVE",
"123 572 CURVE SMOOTH"
);
},
{
closed = 1;
nodes = (
"75 485 LINE",
"75 -13 LINE SMOOTH",
"75 -81 OFFCURVE",
"69 -110 OFFCURVE",
"0 -135 CURVE",
"37 -206 LINE",
"164 -166 OFFCURVE",
"172 -114 OFFCURVE",
"172 2 CURVE SMOOTH",
"172 485 LINE"
);
}
);
width = 240;
},
{
layerId = "24C3257D-BF04-43D4-ADFB-51EF390723A7";
paths = (
{
closed = 1;
nodes = (
"177 554 OFFCURVE",
"210 586 OFFCURVE",
"210 627 CURVE SMOOTH",
"210 668 OFFCURVE",
"177 700 OFFCURVE",
"136 700 CURVE SMOOTH",
"95 700 OFFCURVE",
"63 668 OFFCURVE",
"63 627 CURVE SMOOTH",
"63 586 OFFCURVE",
"95 554 OFFCURVE",
"136 554 CURVE SMOOTH"
);
},
{
closed = 1;
nodes = (
"71 485 LINE",
"71 20 LINE SMOOTH",
"71 -37 OFFCURVE",
"66 -70 OFFCURVE",
"-5 -95 CURVE",
"46 -194 LINE",
"173 -154 OFFCURVE",
"202 -103 OFFCURVE",
"202 -11 CURVE SMOOTH",
"202 485 LINE"
);
}
);
width = 261;
}
);
unicode = 006A;
},
{
glyphname = k;
lastChange = "2015-05-09 22:12:05 +0000";
layers = (
{
anchors = (
{
name = bottom;
position = "{272, 0}";
}
);
layerId = "E854A3C3-7B98-494E-8852-CB9ED5BB8961";
paths = (
{
closed = 1;
nodes = (
"70 0 LINE",
"70 695 LINE",
"166 706 LINE",
"166 287 LINE",
"382 498 LINE",
"438 434 LINE",
"294 296 LINE",
"487 0 LINE",
"375 0 LINE",
"228 234 LINE",
"166 174 LINE",
"166 0 LINE"
);
}
);
width = 487;
},
{
anchors = (
{
name = bottom;
position = "{275, 0}";
}
);
layerId = "24C3257D-BF04-43D4-ADFB-51EF390723A7";
paths = (
{
closed = 1;
nodes = (
"65 0 LINE",
"65 695 LINE",
"194 706 LINE",
"194 308 LINE",
"402 499 LINE",
"475 407 LINE",
"339 288 LINE",
"517 0 LINE",
"368 0 LINE",
"246 205 LINE",
"194 159 LINE",
"194 0 LINE"
);
}
);
width = 517;
}
);
unicode = 006B;
},
{
glyphname = l;
lastChange = "2015-05-09 22:12:15 +0000";
layers = (
{
anchors = (
{
name = bottom;
position = "{121, 0}";
}
);
layerId = "E854A3C3-7B98-494E-8852-CB9ED5BB8961";
paths = (
{
closed = 1;
nodes = (
"70 0 LINE",
"70 695 LINE",
"166 706 LINE",
"166 0 LINE"
);
}
);
width = 236;
},
{
anchors = (
{
name = bottom;
position = "{136, 0}";
}
);
layerId = "24C3257D-BF04-43D4-ADFB-51EF390723A7";
paths = (
{
closed = 1;
nodes = (
"65 0 LINE",
"65 695 LINE",
"194 706 LINE",
"194 0 LINE"
);
}
);
width = 259;
}
);
unicode = 006C;
},
{
glyphname = m;
lastChange = "2015-05-09 19:44:35 +0000";
layers = (
{
layerId = "E854A3C3-7B98-494E-8852-CB9ED5BB8961";
paths = (
{
closed = 1;
nodes = (
"60 0 LINE",
"60 485 LINE",
"127 485 LINE",
"144 421 LINE",
"193 466 OFFCURVE",
"262 501 OFFCURVE",
"323 501 CURVE SMOOTH",
"428 501 OFFCURVE",
"475 424 OFFCURVE",
"475 320 CURVE SMOOTH",
"475 0 LINE",
"379 0 LINE",
"379 311 LINE SMOOTH",
"379 376 OFFCURVE",
"361 419 OFFCURVE",
"303 419 CURVE SMOOTH",
"259 419 OFFCURVE",
"203 383 OFFCURVE",
"156 342 CURVE",
"156 0 LINE"
);
},
{
closed = 1;
nodes = (
"455 421 LINE",
"504 466 OFFCURVE",
"573 501 OFFCURVE",
"634 501 CURVE SMOOTH",
"739 501 OFFCURVE",
"786 424 OFFCURVE",
"786 320 CURVE SMOOTH",
"786 0 LINE",
"690 0 LINE",
"690 311 LINE SMOOTH",
"690 376 OFFCURVE",
"672 419 OFFCURVE",
"614 419 CURVE SMOOTH",
"570 419 OFFCURVE",
"514 383 OFFCURVE",
"467 342 CURVE"
);
}
);
width = 842;
},
{
layerId = "24C3257D-BF04-43D4-ADFB-51EF390723A7";
paths = (
{
closed = 1;
nodes = (
"55 0 LINE",
"55 485 LINE",
"140 485 LINE",
"162 433 LINE",
"224 477 OFFCURVE",
"292 501 OFFCURVE",
"339 501 CURVE SMOOTH",
"454 501 OFFCURVE",
"495 436 OFFCURVE",
"495 324 CURVE SMOOTH",
"495 0 LINE",
"365 0 LINE",
"365 298 LINE SMOOTH",
"365 359 OFFCURVE",
"348 393 OFFCURVE",
"305 393 CURVE SMOOTH",
"259 393 OFFCURVE",
"218 360 OFFCURVE",
"185 336 CURVE",
"185 0 LINE"
);
},
{
closed = 1;
nodes = (
"471 433 LINE",
"533 477 OFFCURVE",
"601 501 OFFCURVE",
"648 501 CURVE SMOOTH",
"763 501 OFFCURVE",
"804 436 OFFCURVE",
"804 324 CURVE SMOOTH",
"804 0 LINE",
"674 0 LINE",
"674 298 LINE SMOOTH",
"674 359 OFFCURVE",
"657 393 OFFCURVE",
"614 393 CURVE SMOOTH",
"568 393 OFFCURVE",
"527 360 OFFCURVE",
"494 336 CURVE"
);
}
);
width = 855;
}
);
unicode = 006D;
},
{
glyphname = n;
lastChange = "2015-05-09 19:44:47 +0000";
layers = (
{
anchors = (
{
name = bottom;
position = "{282, 0}";
},
{
name = top;
position = "{283, 485}";
}
);
layerId = "E854A3C3-7B98-494E-8852-CB9ED5BB8961";
paths = (
{
closed = 1;
nodes = (
"60 0 LINE",
"60 485 LINE",
"127 485 LINE",
"144 421 LINE",
"193 466 OFFCURVE",
"263 501 OFFCURVE",
"329 501 CURVE SMOOTH",
"439 501 OFFCURVE",
"485 424 OFFCURVE",
"485 320 CURVE SMOOTH",
"485 0 LINE",
"389 0 LINE",
"389 311 LINE SMOOTH",
"389 376 OFFCURVE",
"372 419 OFFCURVE",
"309 419 CURVE SMOOTH",
"260 419 OFFCURVE",
"203 383 OFFCURVE",
"156 342 CURVE",
"156 0 LINE"
);
}
);
width = 541;
},
{
anchors = (
{
name = bottom;
position = "{293, 0}";
},
{
name = top;
position = "{296, 485}";
}
);
layerId = "24C3257D-BF04-43D4-ADFB-51EF390723A7";
paths = (
{
closed = 1;
nodes = (
"55 0 LINE",
"55 485 LINE",
"140 485 LINE",
"162 433 LINE",
"224 477 OFFCURVE",
"297 501 OFFCURVE",
"349 501 CURVE SMOOTH",
"481 501 OFFCURVE",
"515 416 OFFCURVE",
"515 304 CURVE SMOOTH",
"515 0 LINE",
"385 0 LINE",
"385 298 LINE SMOOTH",
"385 359 OFFCURVE",
"358 393 OFFCURVE",
"315 393 CURVE SMOOTH",
"264 393 OFFCURVE",
"218 360 OFFCURVE",
"185 336 CURVE",
"185 0 LINE"
);
}
);
width = 566;
}
);
unicode = 006E;
},
{
glyphname = o;
lastChange = "2015-05-09 22:12:25 +0000";
layers = (
{
anchors = (
{
name = top;
position = "{275, 485}";
}
);
layerId = "E854A3C3-7B98-494E-8852-CB9ED5BB8961";
paths = (
{
closed = 1;
nodes = (
"515 394 OFFCURVE",
"423 498 OFFCURVE",
"274 498 CURVE SMOOTH",
"124 498 OFFCURVE",
"31 394 OFFCURVE",
"30 243 CURVE SMOOTH",
"30 91 OFFCURVE",
"122 -13 OFFCURVE",
"270 -13 CURVE SMOOTH",
"421 -13 OFFCURVE",
"515 91 OFFCURVE",
"515 242 CURVE SMOOTH"
);
},
{
closed = 1;
nodes = (
"179 69 OFFCURVE",
"128 143 OFFCURVE",
"128 244 CURVE SMOOTH",
"129 340 OFFCURVE",
"183 416 OFFCURVE",
"274 416 CURVE SMOOTH",
"366 416 OFFCURVE",
"417 342 OFFCURVE",
"417 241 CURVE SMOOTH",
"416 145 OFFCURVE",
"362 69 OFFCURVE",
"271 69 CURVE SMOOTH"
);
}
);
width = 545;
},
{
anchors = (
{
name = top;
position = "{283, 485}";
}
);
layerId = "24C3257D-BF04-43D4-ADFB-51EF390723A7";
paths = (
{
closed = 1;
nodes = (
"543 399 OFFCURVE",
"441 498 OFFCURVE",
"284 498 CURVE SMOOTH",
"127 498 OFFCURVE",
"25 397 OFFCURVE",
"25 242 CURVE SMOOTH",
"25 87 OFFCURVE",
"127 -12 OFFCURVE",
"284 -12 CURVE SMOOTH",
"441 -12 OFFCURVE",
"543 89 OFFCURVE",
"543 244 CURVE SMOOTH"
);
},
{
closed = 1;
nodes = (
"211 99 OFFCURVE",
"159 158 OFFCURVE",
"159 242 CURVE SMOOTH",
"159 325 OFFCURVE",
"211 387 OFFCURVE",
"284 387 CURVE SMOOTH",
"357 387 OFFCURVE",
"409 328 OFFCURVE",
"409 244 CURVE SMOOTH",
"409 161 OFFCURVE",
"357 99 OFFCURVE",
"284 99 CURVE SMOOTH"
);
}
);
width = 568;
}
);
unicode = 006F;
},
{
glyphname = p;
lastChange = "2015-05-25 07:50:55 +0000";
layers = (
{
layerId = "E854A3C3-7B98-494E-8852-CB9ED5BB8961";
paths = (
{
closed = 1;
nodes = (
"66 -219 LINE",
"66 485 LINE",
"120 485 LINE",
"162 425 LINE",
"162 -208 LINE"
);
},
{
closed = 1;
nodes = (
"97 412 LINE",
"140 471 OFFCURVE",
"221 498 OFFCURVE",
"262 498 CURVE SMOOTH",
"411 498 OFFCURVE",
"503 395 OFFCURVE",
"503 239 CURVE SMOOTH",
"503 88 OFFCURVE",
"407 -13 OFFCURVE",
"261 -13 CURVE SMOOTH",
"221 -13 OFFCURVE",
"138 10 OFFCURVE",
"95 74 CURVE",
"123 142 LINE",
"164 90 OFFCURVE",
"205 69 OFFCURVE",
"262 69 CURVE SMOOTH",
"353 69 OFFCURVE",
"405 142 OFFCURVE",
"405 238 CURVE SMOOTH",
"405 342 OFFCURVE",
"354 416 OFFCURVE",
"262 416 CURVE SMOOTH",
"203 416 OFFCURVE",
"167 393 OFFCURVE",
"126 343 CURVE"
);
}
);
width = 533;
},
{
layerId = "24C3257D-BF04-43D4-ADFB-51EF390723A7";
paths = (
{
closed = 1;
nodes = (
"61 -219 LINE",
"61 485 LINE",
"127 485 LINE",
"190 406 LINE",
"190 -209 LINE"
);
},
{
closed = 1;
nodes = (
"109 408 LINE",
"154 463 OFFCURVE",
"212 498 OFFCURVE",
"281 498 CURVE SMOOTH",
"432 498 OFFCURVE",
"525 399 OFFCURVE",
"525 244 CURVE SMOOTH",
"525 92 OFFCURVE",
"434 -12 OFFCURVE",
"277 -12 CURVE SMOOTH",
"215 -12 OFFCURVE",
"139 33 OFFCURVE",
"109 79 CURVE",
"146 167 LINE",
"193 116 OFFCURVE",
"231 99 OFFCURVE",
"276 99 CURVE SMOOTH",
"349 99 OFFCURVE",
"391 161 OFFCURVE",
"391 244 CURVE SMOOTH",
"391 328 OFFCURVE",
"349 387 OFFCURVE",
"276 387 CURVE SMOOTH",
"231 387 OFFCURVE",
"193 365 OFFCURVE",
"146 324 CURVE"
);
}
);
width = 550;
}
);
unicode = 0070;
},
{
glyphname = q;
lastChange = "2015-05-25 07:51:02 +0000";
layers = (
{
layerId = "E854A3C3-7B98-494E-8852-CB9ED5BB8961";
paths = (
{
closed = 1;
nodes = (
"474 485 LINE",
"474 -209 LINE",
"377 -219 LINE",
"377 422 LINE",
"419 485 LINE"
);
},
{
closed = 1;
nodes = (
"436 73 LINE",
"393 14 OFFCURVE",
"312 -13 OFFCURVE",
"271 -13 CURVE SMOOTH",
"122 -13 OFFCURVE",
"30 90 OFFCURVE",
"30 246 CURVE SMOOTH",
"30 397 OFFCURVE",
"126 498 OFFCURVE",
"272 498 CURVE SMOOTH",
"312 498 OFFCURVE",
"395 475 OFFCURVE",
"438 411 CURVE",
"410 343 LINE",
"369 395 OFFCURVE",
"328 416 OFFCURVE",
"271 416 CURVE SMOOTH",
"180 416 OFFCURVE",
"128 343 OFFCURVE",
"128 247 CURVE SMOOTH",
"128 143 OFFCURVE",
"179 69 OFFCURVE",
"271 69 CURVE SMOOTH",
"330 69 OFFCURVE",
"366 92 OFFCURVE",
"407 142 CURVE"
);
}
);
width = 540;
},
{
layerId = "24C3257D-BF04-43D4-ADFB-51EF390723A7";
paths = (
{
closed = 1;
nodes = (
"507 485 LINE",
"507 -209 LINE",
"376 -219 LINE",
"376 389 LINE",
"439 485 LINE"
);
},
{
closed = 1;
nodes = (
"441 78 LINE",
"396 23 OFFCURVE",
"338 -12 OFFCURVE",
"269 -12 CURVE SMOOTH",
"118 -12 OFFCURVE",
"25 87 OFFCURVE",
"25 242 CURVE SMOOTH",
"25 394 OFFCURVE",
"116 498 OFFCURVE",
"273 498 CURVE SMOOTH",
"335 498 OFFCURVE",
"411 453 OFFCURVE",
"441 407 CURVE",
"404 319 LINE",
"357 370 OFFCURVE",
"319 387 OFFCURVE",
"274 387 CURVE SMOOTH",
"201 387 OFFCURVE",
"159 325 OFFCURVE",
"159 242 CURVE SMOOTH",
"159 158 OFFCURVE",
"201 99 OFFCURVE",
"274 99 CURVE SMOOTH",
"319 99 OFFCURVE",
"357 121 OFFCURVE",
"404 162 CURVE"
);
}
);
width = 568;
}
);
unicode = 0071;
},
{
glyphname = r;
lastChange = "2015-05-09 19:51:53 +0000";
layers = (
{
anchors = (
{
name = bottom;
position = "{111, 0}";
},
{
name = top;
position = "{173, 485}";
}
);
layerId = "E854A3C3-7B98-494E-8852-CB9ED5BB8961";
paths = (
{
closed = 1;
nodes = (
"60 0 LINE",
"60 485 LINE",
"114 485 LINE",
"145 406 LINE",
"182 438 OFFCURVE",
"255 485 OFFCURVE",
"307 485 CURVE",
"328 408 LINE",
"275 408 OFFCURVE",
"203 366 OFFCURVE",
"156 321 CURVE",
"156 0 LINE"
);
}
);
width = 338;
},
{
anchors = (
{
name = bottom;
position = "{121, 0}";
},
{
name = top;
position = "{199, 485}";
}
);
layerId = "24C3257D-BF04-43D4-ADFB-51EF390723A7";
paths = (
{
closed = 1;
nodes = (
"55 0 LINE",
"55 485 LINE",
"123 485 LINE",
"166 404 LINE",
"206 439 OFFCURVE",
"279 485 OFFCURVE",
"331 485 CURVE",
"357 381 LINE",
"313 381 OFFCURVE",
"241 345 OFFCURVE",
"185 296 CURVE",
"185 0 LINE"
);
}
);
width = 367;
}
);
unicode = 0072;
},
{
glyphname = s;
lastChange = "2015-05-09 22:12:37 +0000";
layers = (
{
anchors = (
{
name = bottom;
position = "{194, 0}";
},
{
name = top;
position = "{215, 485}";
}
);
layerId = "E854A3C3-7B98-494E-8852-CB9ED5BB8961";
paths = (
{
closed = 1;
nodes = (
"64 98 LINE",
"105 78 OFFCURVE",
"150 65 OFFCURVE",
"194 65 CURVE SMOOTH",
"258 65 OFFCURVE",
"299 90 OFFCURVE",
"299 127 CURVE SMOOTH",
"299 164 OFFCURVE",
"254 191 OFFCURVE",
"191 211 CURVE SMOOTH",
"115 236 OFFCURVE",
"32 278 OFFCURVE",
"32 357 CURVE SMOOTH",
"32 445 OFFCURVE",
"103 498 OFFCURVE",
"216 498 CURVE SMOOTH",
"257 498 OFFCURVE",
"331 481 OFFCURVE",
"372 452 CURVE",
"342 387 LINE",
"305 404 OFFCURVE",
"266 420 OFFCURVE",
"214 420 CURVE SMOOTH",
"163 420 OFFCURVE",
"127 394 OFFCURVE",
"127 359 CURVE SMOOTH",
"128 330 OFFCURVE",
"168 309 OFFCURVE",
"227 289 CURVE SMOOTH",
"307 260 OFFCURVE",
"391 212 OFFCURVE",
"391 132 CURVE SMOOTH",
"391 41 OFFCURVE",
"322 -13 OFFCURVE",
"194 -13 CURVE SMOOTH",
"153 -13 OFFCURVE",
"75 2 OFFCURVE",
"34 31 CURVE"
);
}
);
width = 421;
},
{
anchors = (
{
name = bottom;
position = "{195, 0}";
},
{
name = top;
position = "{218, 485}";
}
);
layerId = "24C3257D-BF04-43D4-ADFB-51EF390723A7";
paths = (
{
closed = 1;
nodes = (
"66 126 LINE",
"113 105 OFFCURVE",
"157 93 OFFCURVE",
"193 93 CURVE SMOOTH",
"227 93 OFFCURVE",
"273 106 OFFCURVE",
"273 135 CURVE SMOOTH",
"273 162 OFFCURVE",
"243 183 OFFCURVE",
"188 200 CURVE SMOOTH",
"111 225 OFFCURVE",
"27 270 OFFCURVE",
"27 350 CURVE SMOOTH",
"27 442 OFFCURVE",
"100 498 OFFCURVE",
"216 498 CURVE SMOOTH",
"257 498 OFFCURVE",
"333 480 OFFCURVE",
"382 447 CURVE",
"343 360 LINE",
"296 381 OFFCURVE",
"259 393 OFFCURVE",
"214 393 CURVE SMOOTH",
"181 393 OFFCURVE",
"156 374 OFFCURVE",
"156 351 CURVE SMOOTH",
"156 331 OFFCURVE",
"199 316 OFFCURVE",
"232 304 CURVE SMOOTH",
"313 275 OFFCURVE",
"397 224 OFFCURVE",
"397 140 CURVE SMOOTH",
"397 44 OFFCURVE",
"327 -12 OFFCURVE",
"195 -12 CURVE SMOOTH",
"154 -12 OFFCURVE",
"72 3 OFFCURVE",
"27 38 CURVE"
);
}
);
width = 422;
}
);
unicode = 0073;
},
{
glyphname = t;
lastChange = "2015-05-09 19:45:01 +0000";
layers = (
{
anchors = (
{
name = bottom;
position = "{210, 0}";
}
);
layerId = "E854A3C3-7B98-494E-8852-CB9ED5BB8961";
paths = (
{
closed = 1;
nodes = (
"298 406 LINE",
"180 406 LINE",
"180 150 LINE SMOOTH",
"180 101 OFFCURVE",
"201 66 OFFCURVE",
"249 66 CURVE SMOOTH",
"265 66 OFFCURVE",
"283 72 OFFCURVE",
"296 77 CURVE",
"321 4 LINE",
"304 -5 OFFCURVE",
"268 -17 OFFCURVE",
"239 -17 CURVE SMOOTH",
"144 -17 OFFCURVE",
"84 36 OFFCURVE",
"84 135 CURVE SMOOTH",
"84 406 LINE",
"16 406 LINE",
"15 479 LINE",
"84 479 LINE",
"84 600 LINE",
"180 622 LINE",
"180 479 LINE",
"268 479 LINE"
);
}
);
width = 341;
},
{
anchors = (
{
name = bottom;
position = "{227, 0}";
}
);
layerId = "24C3257D-BF04-43D4-ADFB-51EF390723A7";
paths = (
{
closed = 1;
nodes = (
"332 384 LINE",
"204 384 LINE",
"204 178 LINE SMOOTH",
"204 127 OFFCURVE",
"228 91 OFFCURVE",
"275 91 CURVE SMOOTH",
"292 91 OFFCURVE",
"309 95 OFFCURVE",
"328 104 CURVE",
"366 10 LINE",
"345 -7 OFFCURVE",
"299 -20 OFFCURVE",
"268 -20 CURVE SMOOTH",
"148 -20 OFFCURVE",
"75 43 OFFCURVE",
"75 155 CURVE SMOOTH",
"75 384 LINE",
"10 384 LINE",
"10 484 LINE",
"75 484 LINE",
"75 599 LINE",
"204 622 LINE",
"204 484 LINE",
"292 484 LINE"
);
}
);
width = 381;
}
);
unicode = 0074;
},
{
glyphname = u;
lastChange = "2017-03-21 12:02:38 +0000";
layers = (
{
anchors = (
{
name = bottom;
position = "{431, 0}";
},
{
name = top;
position = "{269, 485}";
}
);
layerId = "E854A3C3-7B98-494E-8852-CB9ED5BB8961";
paths = (
{
closed = 1;
nodes = (
"481 485 LINE",
"481 0 LINE",
"414 0 LINE",
"397 64 LINE",
"348 19 OFFCURVE",
"278 -16 OFFCURVE",
"212 -16 CURVE SMOOTH",
"102 -16 OFFCURVE",
"56 61 OFFCURVE",
"56 165 CURVE SMOOTH",
"56 485 LINE",
"152 485 LINE",
"152 174 LINE SMOOTH",
"152 109 OFFCURVE",
"169 66 OFFCURVE",
"232 66 CURVE SMOOTH",
"281 66 OFFCURVE",
"338 102 OFFCURVE",
"385 143 CURVE",
"385 485 LINE"
);
}
);
width = 541;
},
{
anchors = (
{
name = bottom;
position = "{448, -3}";
},
{
name = top;
position = "{287, 485}";
}
);
layerId = "24C3257D-BF04-43D4-ADFB-51EF390723A7";
paths = (
{
closed = 1;
nodes = (
"511 485 LINE",
"511 0 LINE",
"426 0 LINE",
"404 52 LINE",
"342 8 OFFCURVE",
"269 -16 OFFCURVE",
"217 -16 CURVE SMOOTH",
"85 -16 OFFCURVE",
"51 69 OFFCURVE",
"51 181 CURVE SMOOTH",
"51 485 LINE",
"181 485 LINE",
"181 187 LINE SMOOTH",
"181 126 OFFCURVE",
"208 92 OFFCURVE",
"251 92 CURVE SMOOTH",
"302 92 OFFCURVE",
"348 125 OFFCURVE",
"381 149 CURVE",
"381 485 LINE"
);
}
);
width = 566;
}
);
unicode = 0075;
},
{
glyphname = v;
lastChange = "2015-05-09 19:39:39 +0000";
layers = (
{
layerId = "E854A3C3-7B98-494E-8852-CB9ED5BB8961";
paths = (
{
closed = 1;
nodes = (
"190 0 LINE",
"10 469 LINE",
"102 503 LINE",
"236 135 LINE",
"364 485 LINE",
"463 485 LINE",
"279 0 LINE"
);
}
);
width = 473;
},
{
layerId = "24C3257D-BF04-43D4-ADFB-51EF390723A7";
paths = (
{
closed = 1;
nodes = (
"189 0 LINE",
"10 465 LINE",
"137 503 LINE",
"249 191 LINE",
"355 485 LINE",
"492 485 LINE",
"301 0 LINE"
);
}
);
width = 502;
}
);
unicode = 0076;
},
{
glyphname = w;
lastChange = "2015-05-09 19:39:39 +0000";
layers = (
{
layerId = "E854A3C3-7B98-494E-8852-CB9ED5BB8961";
paths = (
{
closed = 1;
nodes = (
"453 0 LINE",
"346 345 LINE",
"245 0 LINE",
"157 0 LINE",
"10 468 LINE",
"102 502 LINE",
"202 143 LINE",
"297 485 LINE",
"398 485 LINE",
"498 143 LINE",
"593 485 LINE",
"692 485 LINE",
"541 0 LINE"
);
}
);
width = 702;
},
{
layerId = "24C3257D-BF04-43D4-ADFB-51EF390723A7";
paths = (
{
closed = 1;
nodes = (
"443 0 LINE",
"352 297 LINE",
"265 0 LINE",
"155 0 LINE",
"10 465 LINE",
"138 503 LINE",
"213 203 LINE",
"283 485 LINE",
"426 485 LINE",
"501 203 LINE",
"570 485 LINE",
"707 485 LINE",
"552 0 LINE"
);
}
);
width = 717;
}
);
unicode = 0077;
},
{
glyphname = x;
lastChange = "2015-05-09 19:39:39 +0000";
layers = (
{
layerId = "E854A3C3-7B98-494E-8852-CB9ED5BB8961";
paths = (
{
closed = 1;
nodes = (
"10 0 LINE",
"173 247 LINE",
"28 468 LINE",
"114 502 LINE",
"238 306 LINE",
"355 485 LINE",
"460 485 LINE",
"293 232 LINE",
"445 0 LINE",
"339 0 LINE",
"228 174 LINE",
"117 0 LINE"
);
}
);
width = 470;
},
{
layerId = "24C3257D-BF04-43D4-ADFB-51EF390723A7";
paths = (
{
closed = 1;
nodes = (
"10 0 LINE",
"175 247 LINE",
"27 464 LINE",
"148 501 LINE",
"258 330 LINE",
"358 485 LINE",
"500 485 LINE",
"335 228 LINE",
"484 0 LINE",
"341 0 LINE",
"251 146 LINE",
"154 0 LINE"
);
}
);
width = 510;
}
);
unicode = 0078;
},
{
glyphname = y;
lastChange = "2015-05-09 19:51:39 +0000";
layers = (
{
anchors = (
{
name = top;
position = "{232, 485}";
}
);
layerId = "E854A3C3-7B98-494E-8852-CB9ED5BB8961";
paths = (
{
closed = 1;
nodes = (
"187 13 LINE",
"10 469 LINE",
"101 503 LINE",
"236 137 LINE",
"364 485 LINE",
"463 485 LINE",
"248 -88 LINE SMOOTH",
"223 -155 OFFCURVE",
"155 -204 OFFCURVE",
"80 -221 CURVE",
"48 -147 LINE",
"96 -126 OFFCURVE",
"142 -106 OFFCURVE",
"159 -61 CURVE SMOOTH"
);
}
);
width = 473;
},
{
anchors = (
{
name = top;
position = "{247, 486}";
}
);
layerId = "24C3257D-BF04-43D4-ADFB-51EF390723A7";
paths = (
{
closed = 1;
nodes = (
"177 34 LINE",
"10 465 LINE",
"138 503 LINE",
"250 191 LINE",
"356 485 LINE",
"493 485 LINE",
"276 -64 LINE SMOOTH",
"245 -143 OFFCURVE",
"158 -202 OFFCURVE",
"73 -222 CURVE",
"27 -115 LINE",
"74 -95 OFFCURVE",
"137 -68 OFFCURVE",
"154 -23 CURVE SMOOTH"
);
}
);
width = 503;
}
);
unicode = 0079;
},
{
glyphname = z;
lastChange = "2015-05-09 19:39:39 +0000";
layers = (
{
anchors = (
{
name = top;
position = "{225, 485}";
}
);
layerId = "E854A3C3-7B98-494E-8852-CB9ED5BB8961";
paths = (
{
closed = 1;
nodes = (
"414 432 LINE",
"138 76 LINE",
"406 76 LINE",
"416 0 LINE",
"30 0 LINE",
"18 50 LINE",
"290 407 LINE",
"59 407 LINE",
"38 485 LINE",
"409 485 LINE"
);
}
);
width = 434;
},
{
anchors = (
{
name = top;
position = "{215, 485}";
}
);
layerId = "24C3257D-BF04-43D4-ADFB-51EF390723A7";
paths = (
{
closed = 1;
nodes = (
"420 411 LINE",
"176 105 LINE",
"420 105 LINE",
"430 0 LINE",
"30 0 LINE",
"13 69 LINE",
"254 378 LINE",
"50 378 LINE",
"25 485 LINE",
"413 485 LINE"
);
}
);
width = 443;
}
);
unicode = 007A;
},
{
glyphname = zero;
lastChange = "2015-05-09 19:39:39 +0000";
layers = (
{
layerId = "E854A3C3-7B98-494E-8852-CB9ED5BB8961";
paths = (
{
closed = 1;
nodes = (
"30 456 OFFCURVE",
"143 579 OFFCURVE",
"299 579 CURVE SMOOTH",
"454 579 OFFCURVE",
"567 457 OFFCURVE",
"567 288 CURVE SMOOTH",
"567 113 OFFCURVE",
"454 -13 OFFCURVE",
"299 -13 CURVE SMOOTH",
"143 -13 OFFCURVE",
"30 113 OFFCURVE",
"30 286 CURVE SMOOTH"
);
},
{
closed = 1;
nodes = (
"122 161 OFFCURVE",
"196 69 OFFCURVE",
"299 69 CURVE SMOOTH",
"402 69 OFFCURVE",
"476 159 OFFCURVE",
"476 284 CURVE SMOOTH",
"476 408 OFFCURVE",
"402 497 OFFCURVE",
"299 497 CURVE SMOOTH",
"196 497 OFFCURVE",
"122 410 OFFCURVE",
"122 289 CURVE SMOOTH"
);
}
);
width = 597;
},
{
layerId = "24C3257D-BF04-43D4-ADFB-51EF390723A7";
paths = (
{
closed = 1;
nodes = (
"25 456 OFFCURVE",
"142 579 OFFCURVE",
"304 579 CURVE SMOOTH",
"465 579 OFFCURVE",
"581 456 OFFCURVE",
"581 287 CURVE SMOOTH",
"581 113 OFFCURVE",
"464 -13 OFFCURVE",
"303 -13 CURVE SMOOTH",
"142 -13 OFFCURVE",
"25 112 OFFCURVE",
"25 285 CURVE SMOOTH"
);
},
{
closed = 1;
nodes = (
"144 178 OFFCURVE",
"211 98 OFFCURVE",
"304 98 CURVE SMOOTH",
"397 98 OFFCURVE",
"464 176 OFFCURVE",
"464 283 CURVE SMOOTH",
"464 391 OFFCURVE",
"396 469 OFFCURVE",
"303 469 CURVE SMOOTH",
"211 469 OFFCURVE",
"144 393 OFFCURVE",
"144 288 CURVE SMOOTH"
);
}
);
width = 606;
}
);
unicode = 0030;
},
{
glyphname = one;
lastChange = "2015-05-09 19:39:39 +0000";
layers = (
{
layerId = "E854A3C3-7B98-494E-8852-CB9ED5BB8961";
paths = (
{
closed = 1;
nodes = (
"159 0 LINE",
"159 458 LINE",
"54 402 LINE",
"10 478 LINE",
"191 566 LINE",
"255 566 LINE",
"255 0 LINE"
);
}
);
width = 325;
},
{
layerId = "24C3257D-BF04-43D4-ADFB-51EF390723A7";
paths = (
{
closed = 1;
nodes = (
"173 0 LINE",
"173 422 LINE",
"59 378 LINE",
"10 475 LINE",
"216 566 LINE",
"303 566 LINE",
"303 0 LINE"
);
}
);
width = 368;
}
);
unicode = 0031;
},
{
glyphname = two;
lastChange = "2015-05-09 19:39:39 +0000";
layers = (
{
layerId = "E854A3C3-7B98-494E-8852-CB9ED5BB8961";
paths = (
{
closed = 1;
nodes = (
"347 579 OFFCURVE",
"430 522 OFFCURVE",
"430 418 CURVE SMOOTH",
"430 343 OFFCURVE",
"400 279 OFFCURVE",
"281 180 CURVE SMOOTH",
"154 74 LINE",
"443 74 LINE",
"461 0 LINE",
"25 0 LINE",
"25 63 LINE",
"236 248 LINE SMOOTH",
"303 307 OFFCURVE",
"342 353 OFFCURVE",
"342 405 CURVE SMOOTH",
"342 472 OFFCURVE",
"292 501 OFFCURVE",
"218 501 CURVE SMOOTH",
"145 501 OFFCURVE",
"96 470 OFFCURVE",
"61 450 CURVE",
"38 527 LINE",
"75 549 OFFCURVE",
"130 579 OFFCURVE",
"219 579 CURVE SMOOTH"
);
}
);
width = 481;
},
{
layerId = "24C3257D-BF04-43D4-ADFB-51EF390723A7";
paths = (
{
closed = 1;
nodes = (
"359 579 OFFCURVE",
"436 503 OFFCURVE",
"436 403 CURVE SMOOTH",
"436 310 OFFCURVE",
"394 259 OFFCURVE",
"297 178 CURVE SMOOTH",
"202 99 LINE",
"455 99 LINE",
"467 0 LINE",
"25 0 LINE",
"25 87 LINE",
"227 259 LINE SMOOTH",
"295 317 OFFCURVE",
"327 359 OFFCURVE",
"327 398 CURVE SMOOTH",
"327 448 OFFCURVE",
"283 474 OFFCURVE",
"218 474 CURVE SMOOTH",
"158 474 OFFCURVE",
"96 443 OFFCURVE",
"61 423 CURVE",
"38 527 LINE",
"75 549 OFFCURVE",
"142 579 OFFCURVE",
"231 579 CURVE SMOOTH"
);
}
);
width = 487;
}
);
unicode = 0032;
},
{
glyphname = three;
lastChange = "2015-05-09 19:39:39 +0000";
layers = (
{
layerId = "E854A3C3-7B98-494E-8852-CB9ED5BB8961";
paths = (
{
closed = 1;
nodes = (
"355 579 OFFCURVE",
"423 499 OFFCURVE",
"423 411 CURVE SMOOTH",
"423 344 OFFCURVE",
"376 289 OFFCURVE",
"325 270 CURVE",
"382 257 OFFCURVE",
"435 196 OFFCURVE",
"435 113 CURVE SMOOTH",
"435 6 OFFCURVE",
"345 -76 OFFCURVE",
"204 -76 CURVE SMOOTH",
"129 -76 OFFCURVE",
"53 -47 OFFCURVE",
"0 -19 CURVE",
"49 47 LINE",
"98 18 OFFCURVE",
"141 2 OFFCURVE",
"206 2 CURVE SMOOTH",
"275 2 OFFCURVE",
"343 43 OFFCURVE",
"343 112 CURVE SMOOTH",
"343 184 OFFCURVE",
"292 232 OFFCURVE",
"169 232 CURVE SMOOTH",
"139 232 LINE",
"125 305 LINE",
"175 305 LINE SMOOTH",
"271 305 OFFCURVE",
"331 346 OFFCURVE",
"331 409 CURVE SMOOTH",
"331 458 OFFCURVE",
"287 501 OFFCURVE",
"215 501 CURVE SMOOTH",
"150 501 OFFCURVE",
"94 473 OFFCURVE",
"61 450 CURVE",
"15 514 LINE",
"72 551 OFFCURVE",
"138 579 OFFCURVE",
"218 579 CURVE SMOOTH"
);
}
);
width = 470;
},
{
layerId = "24C3257D-BF04-43D4-ADFB-51EF390723A7";
paths = (
{
closed = 1;
nodes = (
"372 579 OFFCURVE",
"442 498 OFFCURVE",
"442 405 CURVE SMOOTH",
"442 344 OFFCURVE",
"400 290 OFFCURVE",
"361 273 CURVE",
"398 264 OFFCURVE",
"454 204 OFFCURVE",
"454 121 CURVE SMOOTH",
"454 10 OFFCURVE",
"362 -76 OFFCURVE",
"218 -76 CURVE SMOOTH",
"145 -76 OFFCURVE",
"61 -45 OFFCURVE",
"0 -13 CURVE",
"66 74 LINE",
"119 42 OFFCURVE",
"161 29 OFFCURVE",
"220 29 CURVE SMOOTH",
"279 29 OFFCURVE",
"335 63 OFFCURVE",
"335 120 CURVE SMOOTH",
"335 181 OFFCURVE",
"290 220 OFFCURVE",
"185 220 CURVE SMOOTH",
"143 220 LINE",
"125 321 LINE",
"191 321 LINE SMOOTH",
"272 321 OFFCURVE",
"323 354 OFFCURVE",
"323 403 CURVE SMOOTH",
"323 442 OFFCURVE",
"286 474 OFFCURVE",
"229 474 CURVE SMOOTH",
"169 474 OFFCURVE",
"116 447 OFFCURVE",
"80 422 CURVE",
"19 509 LINE",
"84 552 OFFCURVE",
"152 579 OFFCURVE",
"232 579 CURVE SMOOTH"
);
}
);
width = 484;
}
);
unicode = 0033;
},
{
glyphname = four;
lastChange = "2015-05-09 19:39:39 +0000";
layers = (
{
layerId = "E854A3C3-7B98-494E-8852-CB9ED5BB8961";
paths = (
{
closed = 1;
nodes = (
"505 66 LINE",
"411 66 LINE",
"411 -69 LINE",
"315 -69 LINE",
"315 66 LINE",
"23 66 LINE",
"10 145 LINE",
"342 571 LINE",
"411 571 LINE",
"411 145 LINE",
"516 145 LINE"
);
},
{
closed = 1;
nodes = (
"113 145 LINE",
"315 145 LINE",
"315 409 LINE"
);
}
);
width = 536;
},
{
layerId = "24C3257D-BF04-43D4-ADFB-51EF390723A7";
paths = (
{
closed = 1;
nodes = (
"527 59 LINE",
"435 59 LINE",
"435 -69 LINE",
"304 -69 LINE",
"304 59 LINE",
"27 59 LINE",
"10 166 LINE",
"338 571 LINE",
"435 571 LINE",
"435 166 LINE",
"540 166 LINE"
);
},
{
closed = 1;
nodes = (
"150 166 LINE",
"304 166 LINE",
"304 363 LINE"
);
}
);
width = 560;
}
);
unicode = 0034;
},
{
glyphname = five;
lastChange = "2015-05-09 19:39:39 +0000";
layers = (
{
layerId = "E854A3C3-7B98-494E-8852-CB9ED5BB8961";
paths = (
{
closed = 1;
nodes = (
"68 218 LINE",
"84 566 LINE",
"434 566 LINE",
"423 487 LINE",
"169 487 LINE",
"161 317 LINE",
"190 334 OFFCURVE",
"223 343 OFFCURVE",
"255 343 CURVE SMOOTH",
"403 343 OFFCURVE",
"470 249 OFFCURVE",
"471 138 CURVE SMOOTH",
"471 18 OFFCURVE",
"384 -76 OFFCURVE",
"232 -76 CURVE SMOOTH",
"159 -76 OFFCURVE",
"83 -48 OFFCURVE",
"30 -19 CURVE",
"78 48 LINE",
"127 19 OFFCURVE",
"169 4 OFFCURVE",
"236 4 CURVE SMOOTH",
"320 4 OFFCURVE",
"379 55 OFFCURVE",
"379 138 CURVE SMOOTH",
"379 219 OFFCURVE",
"329 266 OFFCURVE",
"260 266 CURVE SMOOTH",
"209 266 OFFCURVE",
"172 237 OFFCURVE",
"157 218 CURVE"
);
}
);
width = 501;
},
{
layerId = "24C3257D-BF04-43D4-ADFB-51EF390723A7";
paths = (
{
closed = 1;
nodes = (
"68 206 LINE",
"86 566 LINE",
"452 566 LINE",
"438 461 LINE",
"196 461 LINE",
"190 342 LINE",
"211 353 OFFCURVE",
"237 357 OFFCURVE",
"264 357 CURVE SMOOTH",
"413 357 OFFCURVE",
"486 259 OFFCURVE",
"487 147 CURVE SMOOTH",
"487 16 OFFCURVE",
"393 -76 OFFCURVE",
"241 -76 CURVE SMOOTH",
"166 -76 OFFCURVE",
"84 -46 OFFCURVE",
"25 -14 CURVE",
"89 77 LINE",
"142 48 OFFCURVE",
"184 33 OFFCURVE",
"244 33 CURVE SMOOTH",
"315 33 OFFCURVE",
"369 76 OFFCURVE",
"369 147 CURVE SMOOTH",
"369 212 OFFCURVE",
"326 253 OFFCURVE",
"269 253 CURVE SMOOTH",
"222 253 OFFCURVE",
"192 227 OFFCURVE",
"183 206 CURVE"
);
}
);
width = 512;
}
);
unicode = 0035;
},
{
glyphname = six;
lastChange = "2015-05-09 19:39:39 +0000";
layers = (
{
layerId = "E854A3C3-7B98-494E-8852-CB9ED5BB8961";
paths = (
{
closed = 1;
nodes = (
"127 341 OFFCURVE",
"182 387 OFFCURVE",
"271 387 CURVE SMOOTH",
"401 387 OFFCURVE",
"490 307 OFFCURVE",
"490 190 CURVE SMOOTH",
"490 72 OFFCURVE",
"400 -13 OFFCURVE",
"274 -13 CURVE SMOOTH",
"135 -13 OFFCURVE",
"30 77 OFFCURVE",
"30 252 CURVE SMOOTH",
"30 487 OFFCURVE",
"244 613 OFFCURVE",
"405 634 CURVE",
"423 558 LINE",
"293 533 OFFCURVE",
"122 451 OFFCURVE",
"122 261 CURVE SMOOTH",
"122 132 OFFCURVE",
"190 67 OFFCURVE",
"270 67 CURVE SMOOTH",
"347 67 OFFCURVE",
"401 117 OFFCURVE",
"401 185 CURVE SMOOTH",
"401 261 OFFCURVE",
"349 310 OFFCURVE",
"268 310 CURVE SMOOTH",
"200 310 OFFCURVE",
"141 266 OFFCURVE",
"94 218 CURVE",
"69 285 LINE"
);
}
);
width = 520;
},
{
layerId = "24C3257D-BF04-43D4-ADFB-51EF390723A7";
paths = (
{
closed = 1;
nodes = (
"137 356 OFFCURVE",
"192 402 OFFCURVE",
"281 402 CURVE SMOOTH",
"408 402 OFFCURVE",
"500 309 OFFCURVE",
"500 195 CURVE SMOOTH",
"500 72 OFFCURVE",
"409 -13 OFFCURVE",
"284 -13 CURVE SMOOTH",
"134 -13 OFFCURVE",
"25 78 OFFCURVE",
"25 252 CURVE SMOOTH",
"25 487 OFFCURVE",
"254 613 OFFCURVE",
"415 634 CURVE",
"433 527 LINE",
"303 492 OFFCURVE",
"146 421 OFFCURVE",
"146 261 CURVE SMOOTH",
"146 144 OFFCURVE",
"202 94 OFFCURVE",
"280 94 CURVE SMOOTH",
"339 94 OFFCURVE",
"384 137 OFFCURVE",
"384 190 CURVE SMOOTH",
"384 253 OFFCURVE",
"339 300 OFFCURVE",
"278 300 CURVE SMOOTH",
"210 300 OFFCURVE",
"151 276 OFFCURVE",
"104 218 CURVE",
"79 300 LINE"
);
}
);
width = 525;
}
);
unicode = 0036;
},
{
glyphname = seven;
lastChange = "2015-05-09 19:39:39 +0000";
layers = (
{
layerId = "E854A3C3-7B98-494E-8852-CB9ED5BB8961";
paths = (
{
closed = 1;
nodes = (
"128 -42 LINE",
"322 487 LINE",
"22 487 LINE",
"10 566 LINE",
"401 566 LINE",
"431 525 LINE",
"218 -69 LINE"
);
}
);
width = 451;
},
{
layerId = "24C3257D-BF04-43D4-ADFB-51EF390723A7";
paths = (
{
closed = 1;
nodes = (
"137 -34 LINE",
"311 461 LINE",
"26 461 LINE",
"10 566 LINE",
"416 566 LINE",
"454 514 LINE",
"258 -69 LINE"
);
}
);
width = 474;
}
);
unicode = 0037;
},
{
glyphname = eight;
lastChange = "2015-05-09 22:01:10 +0000";
layers = (
{
layerId = "E854A3C3-7B98-494E-8852-CB9ED5BB8961";
paths = (
{
closed = 1;
nodes = (
"386 643 OFFCURVE",
"459 563 OFFCURVE",
"459 474 CURVE SMOOTH",
"459 413 OFFCURVE",
"413 363 OFFCURVE",
"361 339 CURVE",
"425 322 OFFCURVE",
"485 253 OFFCURVE",
"485 177 CURVE SMOOTH",
"485 74 OFFCURVE",
"403 -13 OFFCURVE",
"258 -13 CURVE SMOOTH",
"111 -13 OFFCURVE",
"30 73 OFFCURVE",
"30 177 CURVE SMOOTH",
"30 246 OFFCURVE",
"89 322 OFFCURVE",
"154 339 CURVE",
"98 363 OFFCURVE",
"57 413 OFFCURVE",
"57 474 CURVE SMOOTH",
"57 563 OFFCURVE",
"130 643 OFFCURVE",
"258 643 CURVE SMOOTH"
);
},
{
closed = 1;
nodes = (
"187 565 OFFCURVE",
"146 521 OFFCURVE",
"146 473 CURVE SMOOTH",
"146 424 OFFCURVE",
"186 383 OFFCURVE",
"258 372 CURVE",
"330 383 OFFCURVE",
"369 424 OFFCURVE",
"369 473 CURVE SMOOTH",
"369 522 OFFCURVE",
"328 565 OFFCURVE",
"256 565 CURVE SMOOTH"
);
},
{
closed = 1;
nodes = (
"166 289 OFFCURVE",
"120 236 OFFCURVE",
"120 175 CURVE SMOOTH",
"120 107 OFFCURVE",
"183 65 OFFCURVE",
"258 65 CURVE SMOOTH",
"330 65 OFFCURVE",
"395 107 OFFCURVE",
"395 175 CURVE SMOOTH",
"395 236 OFFCURVE",
"349 289 OFFCURVE",
"258 302 CURVE"
);
}
);
width = 515;
},
{
layerId = "24C3257D-BF04-43D4-ADFB-51EF390723A7";
paths = (
{
closed = 1;
nodes = (
"385 643 OFFCURVE",
"464 563 OFFCURVE",
"464 468 CURVE SMOOTH",
"464 412 OFFCURVE",
"428 363 OFFCURVE",
"377 340 CURVE",
"433 321 OFFCURVE",
"489 253 OFFCURVE",
"489 185 CURVE SMOOTH",
"489 77 OFFCURVE",
"402 -13 OFFCURVE",
"258 -13 CURVE SMOOTH",
"111 -13 OFFCURVE",
"25 77 OFFCURVE",
"25 185 CURVE SMOOTH",
"25 253 OFFCURVE",
"81 321 OFFCURVE",
"137 340 CURVE",
"86 363 OFFCURVE",
"51 412 OFFCURVE",
"51 468 CURVE SMOOTH",
"51 563 OFFCURVE",
"130 643 OFFCURVE",
"258 643 CURVE SMOOTH"
);
},
{
closed = 1;
nodes = (
"207 537 OFFCURVE",
"167 505 OFFCURVE",
"167 468 CURVE SMOOTH",
"166 423 OFFCURVE",
"198 394 OFFCURVE",
"258 385 CURVE",
"317 394 OFFCURVE",
"347 423 OFFCURVE",
"347 468 CURVE SMOOTH",
"347 505 OFFCURVE",
"308 537 OFFCURVE",
"256 537 CURVE SMOOTH"
);
},
{
closed = 1;
nodes = (
"181 276 OFFCURVE",
"142 231 OFFCURVE",
"142 183 CURVE SMOOTH",
"142 126 OFFCURVE",
"198 92 OFFCURVE",
"257 92 CURVE SMOOTH",
"315 92 OFFCURVE",
"373 126 OFFCURVE",
"373 183 CURVE SMOOTH",
"373 231 OFFCURVE",
"333 276 OFFCURVE",
"258 288 CURVE"
);
}
);
width = 514;
}
);
unicode = 0038;
},
{
glyphname = nine;
lastChange = "2015-05-09 19:39:39 +0000";
layers = (
{
layerId = "E854A3C3-7B98-494E-8852-CB9ED5BB8961";
paths = (
{
closed = 1;
nodes = (
"393 225 OFFCURVE",
"338 179 OFFCURVE",
"249 179 CURVE SMOOTH",
"119 179 OFFCURVE",
"30 259 OFFCURVE",
"30 376 CURVE SMOOTH",
"30 494 OFFCURVE",
"120 579 OFFCURVE",
"246 579 CURVE SMOOTH",
"385 579 OFFCURVE",
"490 489 OFFCURVE",
"490 314 CURVE SMOOTH",
"490 79 OFFCURVE",
"276 -47 OFFCURVE",
"115 -68 CURVE",
"97 8 LINE",
"227 33 OFFCURVE",
"398 115 OFFCURVE",
"398 305 CURVE SMOOTH",
"398 434 OFFCURVE",
"330 499 OFFCURVE",
"250 499 CURVE SMOOTH",
"173 499 OFFCURVE",
"119 449 OFFCURVE",
"119 381 CURVE SMOOTH",
"119 305 OFFCURVE",
"171 256 OFFCURVE",
"252 256 CURVE SMOOTH",
"320 256 OFFCURVE",
"379 300 OFFCURVE",
"426 348 CURVE",
"451 281 LINE"
);
}
);
width = 520;
},
{
layerId = "24C3257D-BF04-43D4-ADFB-51EF390723A7";
paths = (
{
closed = 1;
nodes = (
"388 210 OFFCURVE",
"333 164 OFFCURVE",
"244 164 CURVE SMOOTH",
"117 164 OFFCURVE",
"25 257 OFFCURVE",
"25 371 CURVE SMOOTH",
"25 494 OFFCURVE",
"116 579 OFFCURVE",
"241 579 CURVE SMOOTH",
"391 579 OFFCURVE",
"500 488 OFFCURVE",
"500 314 CURVE SMOOTH",
"500 79 OFFCURVE",
"271 -47 OFFCURVE",
"110 -68 CURVE",
"92 39 LINE",
"222 74 OFFCURVE",
"379 145 OFFCURVE",
"379 305 CURVE SMOOTH",
"379 422 OFFCURVE",
"323 472 OFFCURVE",
"245 472 CURVE SMOOTH",
"186 472 OFFCURVE",
"141 429 OFFCURVE",
"141 376 CURVE SMOOTH",
"141 313 OFFCURVE",
"186 266 OFFCURVE",
"247 266 CURVE SMOOTH",
"315 266 OFFCURVE",
"374 290 OFFCURVE",
"421 348 CURVE",
"446 266 LINE"
);
}
);
width = 525;
}
);
unicode = 0039;
},
{
glyphname = grave;
lastChange = "2015-05-09 19:39:39 +0000";
layers = (
{
anchors = (
{
name = _top;
position = "{112, 485}";
}
);
layerId = "E854A3C3-7B98-494E-8852-CB9ED5BB8961";
paths = (
{
closed = 1;
nodes = (
"10 747 LINE",
"112 747 LINE",
"166 606 LINE",
"100 589 LINE"
);
}
);
width = 176;
},
{
anchors = (
{
name = _top;
position = "{124, 485}";
}
);
layerId = "24C3257D-BF04-43D4-ADFB-51EF390723A7";
paths = (
{
closed = 1;
nodes = (
"10 753 LINE",
"144 753 LINE",
"195 614 LINE",
"105 589 LINE"
);
}
);
width = 205;
}
);
unicode = 0060;
},
{
glyphname = dieresis;
lastChange = "2015-05-09 22:13:01 +0000";
layers = (
{
anchors = (
{
name = _top;
position = "{165, 485}";
}
);
layerId = "E854A3C3-7B98-494E-8852-CB9ED5BB8961";
paths = (
{
closed = 1;
nodes = (
"35 610 OFFCURVE",
"10 635 OFFCURVE",
"10 664 CURVE SMOOTH",
"10 693 OFFCURVE",
"35 718 OFFCURVE",
"64 718 CURVE SMOOTH",
"95 718 OFFCURVE",
"118 693 OFFCURVE",
"118 664 CURVE SMOOTH",
"118 635 OFFCURVE",
"95 610 OFFCURVE",
"64 610 CURVE SMOOTH"
);
},
{
closed = 1;
nodes = (
"209 610 OFFCURVE",
"184 635 OFFCURVE",
"184 664 CURVE SMOOTH",
"184 693 OFFCURVE",
"209 718 OFFCURVE",
"238 718 CURVE SMOOTH",
"269 718 OFFCURVE",
"292 693 OFFCURVE",
"292 664 CURVE SMOOTH",
"292 635 OFFCURVE",
"269 610 OFFCURVE",
"238 610 CURVE SMOOTH"
);
}
);
width = 302;
},
{
anchors = (
{
name = _top;
position = "{182, 485}";
}
);
layerId = "24C3257D-BF04-43D4-ADFB-51EF390723A7";
paths = (
{
closed = 1;
nodes = (
"39 603 OFFCURVE",
"10 631 OFFCURVE",
"10 667 CURVE SMOOTH",
"10 703 OFFCURVE",
"39 732 OFFCURVE",
"76 732 CURVE SMOOTH",
"112 732 OFFCURVE",
"139 703 OFFCURVE",
"139 667 CURVE SMOOTH",
"139 631 OFFCURVE",
"112 603 OFFCURVE",
"76 603 CURVE SMOOTH"
);
},
{
closed = 1;
nodes = (
"231 603 OFFCURVE",
"201 631 OFFCURVE",
"201 667 CURVE SMOOTH",
"201 703 OFFCURVE",
"231 732 OFFCURVE",
"266 732 CURVE SMOOTH",
"303 732 OFFCURVE",
"331 703 OFFCURVE",
"331 667 CURVE SMOOTH",
"331 631 OFFCURVE",
"303 603 OFFCURVE",
"266 603 CURVE SMOOTH"
);
}
);
width = 341;
}
);
unicode = 00A8;
},
{
glyphname = macron;
lastChange = "2015-05-09 19:39:39 +0000";
layers = (
{
anchors = (
{
name = _top;
position = "{142, 485}";
}
);
layerId = "E854A3C3-7B98-494E-8852-CB9ED5BB8961";
paths = (
{
closed = 1;
nodes = (
"10 702 LINE",
"252 702 LINE",
"261 626 LINE",
"10 626 LINE"
);
}
);
width = 271;
},
{
anchors = (
{
name = _top;
position = "{148, 485}";
}
);
layerId = "24C3257D-BF04-43D4-ADFB-51EF390723A7";
paths = (
{
closed = 1;
nodes = (
"10 716 LINE",
"262 716 LINE",
"272 613 LINE",
"10 613 LINE"
);
}
);
width = 282;
}
);
unicode = 00AF;
},
{
glyphname = acute;
lastChange = "2015-05-09 19:39:39 +0000";
layers = (
{
anchors = (
{
name = _top;
position = "{76, 485}";
}
);
layerId = "E854A3C3-7B98-494E-8852-CB9ED5BB8961";
paths = (
{
closed = 1;
nodes = (
"10 606 LINE",
"64 747 LINE",
"166 747 LINE",
"76 589 LINE"
);
}
);
width = 176;
},
{
anchors = (
{
name = _top;
position = "{91, 485}";
}
);
layerId = "24C3257D-BF04-43D4-ADFB-51EF390723A7";
paths = (
{
closed = 1;
nodes = (
"10 614 LINE",
"61 753 LINE",
"195 753 LINE",
"100 589 LINE"
);
}
);
width = 205;
}
);
unicode = 00B4;
},
{
glyphname = circumflex;
lastChange = "2015-05-09 19:39:39 +0000";
layers = (
{
anchors = (
{
name = _top;
position = "{176, 485}";
}
);
layerId = "E854A3C3-7B98-494E-8852-CB9ED5BB8961";
paths = (
{
closed = 1;
nodes = (
"97 589 LINE",
"10 599 LINE",
"138 747 LINE",
"204 747 LINE",
"333 599 LINE",
"247 589 LINE",
"172 676 LINE"
);
}
);
width = 343;
},
{
anchors = (
{
name = _top;
position = "{205, 485}";
}
);
layerId = "24C3257D-BF04-43D4-ADFB-51EF390723A7";
paths = (
{
closed = 1;
nodes = (
"133 589 LINE",
"10 605 LINE",
"162 753 LINE",
"233 753 LINE",
"385 605 LINE",
"266 589 LINE",
"200 654 LINE"
);
}
);
width = 395;
}
);
unicode = 02C6;
},
{
glyphname = caron;
lastChange = "2015-05-09 19:39:39 +0000";
layers = (
{
anchors = (
{
name = _top;
position = "{171, 485}";
}
);
layerId = "E854A3C3-7B98-494E-8852-CB9ED5BB8961";
paths = (
{
closed = 1;
nodes = (
"246 747 LINE",
"333 737 LINE",
"205 589 LINE",
"139 589 LINE",
"10 737 LINE",
"96 747 LINE",
"171 660 LINE"
);
}
);
width = 343;
},
{
anchors = (
{
name = _top;
position = "{198, 485}";
}
);
layerId = "24C3257D-BF04-43D4-ADFB-51EF390723A7";
paths = (
{
closed = 1;
nodes = (
"266 753 LINE",
"385 737 LINE",
"233 589 LINE",
"162 589 LINE",
"10 737 LINE",
"133 753 LINE",
"200 688 LINE"
);
}
);
width = 395;
}
);
unicode = 02C7;
},
{
glyphname = breve;
lastChange = "2015-05-09 19:39:39 +0000";
layers = (
{
anchors = (
{
name = _top;
position = "{151, 485}";
}
);
layerId = "E854A3C3-7B98-494E-8852-CB9ED5BB8961";
paths = (
{
closed = 1;
nodes = (
"287 742 LINE",
"287 666 OFFCURVE",
"244 596 OFFCURVE",
"148 595 CURVE SMOOTH",
"52 596 OFFCURVE",
"10 666 OFFCURVE",
"10 742 CURVE",
"77 742 LINE",
"77 706 OFFCURVE",
"99 665 OFFCURVE",
"148 665 CURVE SMOOTH",
"196 665 OFFCURVE",
"220 706 OFFCURVE",
"220 742 CURVE"
);
}
);
width = 297;
},
{
anchors = (
{
name = _top;
position = "{158, 485}";
}
);
layerId = "24C3257D-BF04-43D4-ADFB-51EF390723A7";
paths = (
{
closed = 1;
nodes = (
"304 753 LINE",
"304 669 OFFCURVE",
"257 590 OFFCURVE",
"157 589 CURVE SMOOTH",
"57 590 OFFCURVE",
"10 669 OFFCURVE",
"10 753 CURVE",
"99 753 LINE",
"99 718 OFFCURVE",
"113 682 OFFCURVE",
"157 682 CURVE SMOOTH",
"200 682 OFFCURVE",
"217 718 OFFCURVE",
"217 753 CURVE"
);
}
);
width = 314;
}
);
unicode = 02D8;
},
{
glyphname = dotaccent;
lastChange = "2015-05-09 22:13:07 +0000";
layers = (
{
anchors = (
{
name = _top;
position = "{74, 485}";
}
);
layerId = "E854A3C3-7B98-494E-8852-CB9ED5BB8961";
paths = (
{
closed = 1;
nodes = (
"38 606 OFFCURVE",
"10 633 OFFCURVE",
"10 666 CURVE SMOOTH",
"10 699 OFFCURVE",
"38 727 OFFCURVE",
"71 727 CURVE SMOOTH",
"104 727 OFFCURVE",
"130 699 OFFCURVE",
"130 666 CURVE SMOOTH",
"130 633 OFFCURVE",
"104 606 OFFCURVE",
"71 606 CURVE SMOOTH"
);
}
);
width = 140;
},
{
anchors = (
{
name = _top;
position = "{86, 485}";
}
);
layerId = "24C3257D-BF04-43D4-ADFB-51EF390723A7";
paths = (
{
closed = 1;
nodes = (
"43 594 OFFCURVE",
"10 626 OFFCURVE",
"10 667 CURVE SMOOTH",
"10 708 OFFCURVE",
"43 741 OFFCURVE",
"84 741 CURVE SMOOTH",
"125 741 OFFCURVE",
"156 708 OFFCURVE",
"156 667 CURVE SMOOTH",
"156 626 OFFCURVE",
"125 594 OFFCURVE",
"84 594 CURVE SMOOTH"
);
}
);
width = 166;
}
);
unicode = 02D9;
},
{
glyphname = ring;
lastChange = "2015-05-09 19:39:39 +0000";
layers = (
{
anchors = (
{
name = _top;
position = "{111, 485}";
}
);
layerId = "E854A3C3-7B98-494E-8852-CB9ED5BB8961";
paths = (
{
closed = 1;
nodes = (
"160 776 OFFCURVE",
"205 736 OFFCURVE",
"205 683 CURVE SMOOTH",
"205 631 OFFCURVE",
"160 594 OFFCURVE",
"108 594 CURVE SMOOTH",
"55 594 OFFCURVE",
"10 631 OFFCURVE",
"10 683 CURVE SMOOTH",
"10 736 OFFCURVE",
"55 776 OFFCURVE",
"108 776 CURVE SMOOTH"
);
},
{
closed = 1;
nodes = (
"131 642 OFFCURVE",
"149 662 OFFCURVE",
"149 683 CURVE SMOOTH",
"149 707 OFFCURVE",
"131 725 OFFCURVE",
"108 725 CURVE SMOOTH",
"85 725 OFFCURVE",
"66 707 OFFCURVE",
"66 683 CURVE SMOOTH",
"66 662 OFFCURVE",
"85 642 OFFCURVE",
"108 642 CURVE SMOOTH"
);
}
);
width = 215;
},
{
anchors = (
{
name = _top;
position = "{126, 485}";
}
);
layerId = "24C3257D-BF04-43D4-ADFB-51EF390723A7";
paths = (
{
closed = 1;
nodes = (
"174 793 OFFCURVE",
"224 749 OFFCURVE",
"224 692 CURVE SMOOTH",
"224 635 OFFCURVE",
"174 594 OFFCURVE",
"117 594 CURVE SMOOTH",
"60 594 OFFCURVE",
"10 635 OFFCURVE",
"10 692 CURVE SMOOTH",
"10 749 OFFCURVE",
"60 793 OFFCURVE",
"117 793 CURVE SMOOTH"
);
},
{
closed = 1;
nodes = (
"138 652 OFFCURVE",
"156 671 OFFCURVE",
"156 692 CURVE SMOOTH",
"156 713 OFFCURVE",
"138 731 OFFCURVE",
"117 731 CURVE SMOOTH",
"96 731 OFFCURVE",
"77 713 OFFCURVE",
"77 692 CURVE SMOOTH",
"77 671 OFFCURVE",
"96 652 OFFCURVE",
"117 652 CURVE SMOOTH"
);
}
);
width = 234;
}
);
unicode = 02DA;
},
{
glyphname = tilde;
lastChange = "2015-05-09 22:13:56 +0000";
layers = (
{
anchors = (
{
name = _top;
position = "{162, 485}";
}
);
layerId = "E854A3C3-7B98-494E-8852-CB9ED5BB8961";
paths = (
{
closed = 1;
nodes = (
"313 707 LINE",
"313 627 OFFCURVE",
"269 601 OFFCURVE",
"218 601 CURVE SMOOTH",
"162 601 OFFCURVE",
"151 643 OFFCURVE",
"109 643 CURVE SMOOTH",
"93 643 OFFCURVE",
"76 627 OFFCURVE",
"75 606 CURVE",
"10 606 LINE",
"10 686 OFFCURVE",
"53 711 OFFCURVE",
"105 711 CURVE SMOOTH",
"164 711 OFFCURVE",
"173 670 OFFCURVE",
"217 670 CURVE SMOOTH",
"234 670 OFFCURVE",
"249 684 OFFCURVE",
"250 707 CURVE"
);
}
);
width = 323;
},
{
anchors = (
{
name = _top;
position = "{179, 485}";
}
);
layerId = "24C3257D-BF04-43D4-ADFB-51EF390723A7";
paths = (
{
closed = 1;
nodes = (
"337 716 LINE",
"337 625 OFFCURVE",
"283 595 OFFCURVE",
"230 595 CURVE SMOOTH",
"174 595 OFFCURVE",
"176 631 OFFCURVE",
"124 631 CURVE SMOOTH",
"109 631 OFFCURVE",
"96 613 OFFCURVE",
"96 600 CURVE",
"10 600 LINE",
"10 689 OFFCURVE",
"64 720 OFFCURVE",
"117 720 CURVE SMOOTH",
"173 720 OFFCURVE",
"177 685 OFFCURVE",
"229 685 CURVE SMOOTH",
"244 685 OFFCURVE",
"256 700 OFFCURVE",
"256 716 CURVE"
);
}
);
width = 347;
}
);
unicode = 02DC;
},
{
glyphname = hungarumlaut;
lastChange = "2015-05-09 19:39:39 +0000";
layers = (
{
anchors = (
{
name = _top;
position = "{140, 485}";
}
);
layerId = "E854A3C3-7B98-494E-8852-CB9ED5BB8961";
paths = (
{
closed = 1;
nodes = (
"10 606 LINE",
"64 747 LINE",
"166 747 LINE",
"76 589 LINE"
);
},
{
closed = 1;
nodes = (
"176 606 LINE",
"230 747 LINE",
"332 747 LINE",
"242 589 LINE"
);
}
);
width = 342;
},
{
anchors = (
{
name = _top;
position = "{163, 485}";
}
);
layerId = "24C3257D-BF04-43D4-ADFB-51EF390723A7";
paths = (
{
closed = 1;
nodes = (
"10 614 LINE",
"61 753 LINE",
"195 753 LINE",
"100 589 LINE"
);
},
{
closed = 1;
nodes = (
"210 614 LINE",
"261 753 LINE",
"395 753 LINE",
"300 589 LINE"
);
}
);
width = 405;
}
);
unicode = 02DD;
},
{
glyphname = ogonek;
lastChange = "2015-05-09 19:39:39 +0000";
layers = (
{
anchors = (
{
name = _bottom;
position = "{99, 0}";
}
);
layerId = "E854A3C3-7B98-494E-8852-CB9ED5BB8961";
paths = (
{
closed = 1;
nodes = (
"150 4 LINE",
"123 -17 OFFCURVE",
"92 -66 OFFCURVE",
"92 -95 CURVE SMOOTH",
"92 -123 OFFCURVE",
"109 -136 OFFCURVE",
"133 -136 CURVE SMOOTH",
"148 -136 OFFCURVE",
"166 -129 OFFCURVE",
"181 -117 CURVE",
"211 -176 LINE",
"186 -197 OFFCURVE",
"156 -207 OFFCURVE",
"120 -207 CURVE SMOOTH",
"55 -207 OFFCURVE",
"10 -163 OFFCURVE",
"10 -103 CURVE SMOOTH",
"10 -68 OFFCURVE",
"32 -20 OFFCURVE",
"57 4 CURVE"
);
}
);
width = 221;
},
{
anchors = (
{
name = _bottom;
position = "{99, 0}";
}
);
layerId = "24C3257D-BF04-43D4-ADFB-51EF390723A7";
paths = (
{
closed = 1;
nodes = (
"163 5 LINE",
"144 -12 OFFCURVE",
"119 -55 OFFCURVE",
"119 -83 CURVE SMOOTH",
"119 -98 OFFCURVE",
"129 -111 OFFCURVE",
"150 -111 CURVE SMOOTH",
"158 -111 OFFCURVE",
"176 -105 OFFCURVE",
"191 -94 CURVE",
"228 -174 LINE",
"196 -198 OFFCURVE",
"163 -207 OFFCURVE",
"126 -207 CURVE SMOOTH",
"57 -207 OFFCURVE",
"10 -155 OFFCURVE",
"10 -94 CURVE SMOOTH",
"10 -65 OFFCURVE",
"31 -15 OFFCURVE",
"48 5 CURVE"
);
}
);
width = 238;
}
);
unicode = 02DB;
},
{
glyphname = cedilla;
lastChange = "2015-05-09 21:08:50 +0000";
layers = (
{
anchors = (
{
name = _bottom;
position = "{120, 0}";
}
);
layerId = "E854A3C3-7B98-494E-8852-CB9ED5BB8961";
paths = (
{
closed = 1;
nodes = (
"87 13 LINE",
"160 13 LINE",
"138 -42 LINE",
"181 -53 OFFCURVE",
"213 -90 OFFCURVE",
"213 -125 CURVE SMOOTH",
"213 -190 OFFCURVE",
"155 -221 OFFCURVE",
"94 -221 CURVE SMOOTH",
"69 -221 OFFCURVE",
"30 -211 OFFCURVE",
"10 -198 CURVE",
"32 -139 LINE",
"47 -146 OFFCURVE",
"75 -156 OFFCURVE",
"94 -156 CURVE SMOOTH",
"115 -156 OFFCURVE",
"140 -147 OFFCURVE",
"140 -127 CURVE SMOOTH",
"140 -103 OFFCURVE",
"103 -83 OFFCURVE",
"51 -78 CURVE"
);
}
);
width = 223;
},
{
anchors = (
{
name = _bottom;
position = "{127, 0}";
}
);
layerId = "24C3257D-BF04-43D4-ADFB-51EF390723A7";
paths = (
{
closed = 1;
nodes = (
"86 13 LINE",
"179 13 LINE",
"161 -29 LINE",
"201 -45 OFFCURVE",
"231 -83 OFFCURVE",
"231 -118 CURVE SMOOTH",
"231 -189 OFFCURVE",
"170 -221 OFFCURVE",
"105 -221 CURVE SMOOTH",
"80 -221 OFFCURVE",
"31 -210 OFFCURVE",
"10 -193 CURVE",
"40 -117 LINE",
"57 -126 OFFCURVE",
"88 -137 OFFCURVE",
"105 -137 CURVE SMOOTH",
"121 -137 OFFCURVE",
"139 -133 OFFCURVE",
"139 -120 CURVE SMOOTH",
"139 -95 OFFCURVE",
"96 -80 OFFCURVE",
"51 -75 CURVE"
);
}
);
width = 241;
}
);
unicode = 00B8;
},
{
glyphname = commaaccent;
lastChange = "2015-05-09 19:39:39 +0000";
layers = (
{
anchors = (
{
name = _bottom;
position = "{75, 0}";
}
);
layerId = "E854A3C3-7B98-494E-8852-CB9ED5BB8961";
paths = (
{
closed = 1;
nodes = (
"109 -21 OFFCURVE",
"137 -49 OFFCURVE",
"137 -93 CURVE SMOOTH",
"137 -161 OFFCURVE",
"90 -227 OFFCURVE",
"33 -255 CURVE",
"10 -209 LINE",
"34 -196 OFFCURVE",
"59 -173 OFFCURVE",
"64 -142 CURVE",
"40 -141 OFFCURVE",
"15 -111 OFFCURVE",
"15 -82 CURVE SMOOTH",
"15 -51 OFFCURVE",
"43 -21 OFFCURVE",
"76 -21 CURVE SMOOTH"
);
}
);
width = 147;
},
{
anchors = (
{
name = _bottom;
position = "{82, 0}";
}
);
layerId = "24C3257D-BF04-43D4-ADFB-51EF390723A7";
paths = (
{
closed = 1;
nodes = (
"125 -21 OFFCURVE",
"158 -58 OFFCURVE",
"158 -111 CURVE SMOOTH",
"158 -186 OFFCURVE",
"106 -253 OFFCURVE",
"42 -284 CURVE",
"14 -223 LINE",
"31 -216 OFFCURVE",
"57 -195 OFFCURVE",
"66 -167 CURVE",
"42 -167 OFFCURVE",
"10 -132 OFFCURVE",
"10 -95 CURVE SMOOTH",
"10 -59 OFFCURVE",
"43 -21 OFFCURVE",
"84 -21 CURVE SMOOTH"
);
}
);
width = 168;
}
);
unicode = F6C3;
},
{
glyphname = grave.case;
lastChange = "2015-05-09 19:39:39 +0000";
layers = (
{
anchors = (
{
name = _topU;
position = "{107, 680}";
}
);
layerId = "E854A3C3-7B98-494E-8852-CB9ED5BB8961";
paths = (
{
closed = 1;
nodes = (
"10 897 LINE",
"112 897 LINE",
"166 756 LINE",
"100 739 LINE"
);
}
);
width = 176;
},
{
anchors = (
{
name = _topU;
position = "{146, 680}";
}
);
layerId = "24C3257D-BF04-43D4-ADFB-51EF390723A7";
paths = (
{
closed = 1;
nodes = (
"10 903 LINE",
"144 903 LINE",
"195 764 LINE",
"105 739 LINE"
);
}
);
width = 205;
}
);
},
{
glyphname = dieresis.case;
lastChange = "2015-05-09 22:14:13 +0000";
layers = (
{
anchors = (
{
name = _topU;
position = "{155, 680}";
}
);
layerId = "E854A3C3-7B98-494E-8852-CB9ED5BB8961";
paths = (
{
closed = 1;
nodes = (
"35 760 OFFCURVE",
"10 785 OFFCURVE",
"10 814 CURVE SMOOTH",
"10 843 OFFCURVE",
"35 868 OFFCURVE",
"64 868 CURVE SMOOTH",
"95 868 OFFCURVE",
"118 843 OFFCURVE",
"118 814 CURVE SMOOTH",
"118 785 OFFCURVE",
"95 760 OFFCURVE",
"64 760 CURVE SMOOTH"
);
},
{
closed = 1;
nodes = (
"209 760 OFFCURVE",
"184 785 OFFCURVE",
"184 814 CURVE SMOOTH",
"184 843 OFFCURVE",
"209 868 OFFCURVE",
"238 868 CURVE SMOOTH",
"269 868 OFFCURVE",
"292 843 OFFCURVE",
"292 814 CURVE SMOOTH",
"292 785 OFFCURVE",
"269 760 OFFCURVE",
"238 760 CURVE SMOOTH"
);
}
);
width = 302;
},
{
anchors = (
{
name = _topU;
position = "{171, 680}";
}
);
layerId = "24C3257D-BF04-43D4-ADFB-51EF390723A7";
paths = (
{
closed = 1;
nodes = (
"39 753 OFFCURVE",
"10 781 OFFCURVE",
"10 817 CURVE SMOOTH",
"10 853 OFFCURVE",
"39 882 OFFCURVE",
"76 882 CURVE SMOOTH",
"112 882 OFFCURVE",
"139 853 OFFCURVE",
"139 817 CURVE SMOOTH",
"139 781 OFFCURVE",
"112 753 OFFCURVE",
"76 753 CURVE SMOOTH"
);
},
{
closed = 1;
nodes = (
"231 753 OFFCURVE",
"201 781 OFFCURVE",
"201 817 CURVE SMOOTH",
"201 853 OFFCURVE",
"231 882 OFFCURVE",
"266 882 CURVE SMOOTH",
"303 882 OFFCURVE",
"331 853 OFFCURVE",
"331 817 CURVE SMOOTH",
"331 781 OFFCURVE",
"303 753 OFFCURVE",
"266 753 CURVE SMOOTH"
);
}
);
width = 341;
}
);
},
{
glyphname = macron.case;
lastChange = "2015-05-09 19:39:39 +0000";
layers = (
{
anchors = (
{
name = _topU;
position = "{143, 680}";
}
);
layerId = "E854A3C3-7B98-494E-8852-CB9ED5BB8961";
paths = (
{
closed = 1;
nodes = (
"10 852 LINE",
"251 852 LINE",
"261 776 LINE",
"10 776 LINE"
);
}
);
width = 271;
},
{
anchors = (
{
name = _topU;
position = "{146, 680}";
}
);
layerId = "24C3257D-BF04-43D4-ADFB-51EF390723A7";
paths = (
{
closed = 1;
nodes = (
"10 866 LINE",
"262 866 LINE",
"272 763 LINE",
"10 763 LINE"
);
}
);
width = 282;
}
);
},
{
glyphname = acute.case;
lastChange = "2017-03-21 11:56:46 +0000";
layers = (
{
anchors = (
{
name = _topU;
position = "{53, 680}";
}
);
layerId = "E854A3C3-7B98-494E-8852-CB9ED5BB8961";
paths = (
{
closed = 1;
nodes = (
"10 756 LINE",
"64 897 LINE",
"166 897 LINE",
"76 739 LINE"
);
}
);
width = 176;
},
{
anchors = (
{
name = _topU;
position = "{61, 680}";
}
);
layerId = "24C3257D-BF04-43D4-ADFB-51EF390723A7";
paths = (
{
closed = 1;
nodes = (
"10 764 LINE",
"61 903 LINE",
"195 903 LINE",
"100 739 LINE"
);
}
);
width = 205;
}
);
},
{
glyphname = circumflex.case;
lastChange = "2015-05-09 19:39:39 +0000";
layers = (
{
anchors = (
{
name = _topU;
position = "{174, 680}";
}
);
layerId = "E854A3C3-7B98-494E-8852-CB9ED5BB8961";
paths = (
{
closed = 1;
nodes = (
"97 739 LINE",
"10 749 LINE",
"138 897 LINE",
"204 897 LINE",
"333 749 LINE",
"247 739 LINE",
"172 826 LINE"
);
}
);
width = 343;
},
{
anchors = (
{
name = _topU;
position = "{202, 680}";
}
);
layerId = "24C3257D-BF04-43D4-ADFB-51EF390723A7";
paths = (
{
closed = 1;
nodes = (
"133 739 LINE",
"10 755 LINE",
"162 903 LINE",
"233 903 LINE",
"385 755 LINE",
"266 739 LINE",
"200 804 LINE"
);
}
);
width = 395;
}
);
},
{
glyphname = caron.case;
lastChange = "2015-05-09 19:39:39 +0000";
layers = (
{
anchors = (
{
name = _topU;
position = "{171, 680}";
}
);
layerId = "E854A3C3-7B98-494E-8852-CB9ED5BB8961";
paths = (
{
closed = 1;
nodes = (
"246 897 LINE",
"333 887 LINE",
"205 739 LINE",
"139 739 LINE",
"10 887 LINE",
"96 897 LINE",
"171 810 LINE"
);
}
);
width = 343;
},
{
anchors = (
{
name = _topU;
position = "{196, 680}";
}
);
layerId = "24C3257D-BF04-43D4-ADFB-51EF390723A7";
paths = (
{
closed = 1;
nodes = (
"266 903 LINE",
"385 887 LINE",
"233 739 LINE",
"162 739 LINE",
"10 887 LINE",
"133 903 LINE",
"200 838 LINE"
);
}
);
width = 395;
}
);
},
{
glyphname = breve.case;
lastChange = "2015-05-09 19:39:39 +0000";
layers = (
{
anchors = (
{
name = _topU;
position = "{147, 680}";
}
);
layerId = "E854A3C3-7B98-494E-8852-CB9ED5BB8961";
paths = (
{
closed = 1;
nodes = (
"287 892 LINE",
"287 816 OFFCURVE",
"244 746 OFFCURVE",
"148 745 CURVE SMOOTH",
"52 746 OFFCURVE",
"10 816 OFFCURVE",
"10 892 CURVE",
"77 892 LINE",
"77 856 OFFCURVE",
"99 815 OFFCURVE",
"148 815 CURVE SMOOTH",
"196 815 OFFCURVE",
"220 856 OFFCURVE",
"220 892 CURVE"
);
}
);
width = 297;
},
{
anchors = (
{
name = _topU;
position = "{158, 680}";
}
);
layerId = "24C3257D-BF04-43D4-ADFB-51EF390723A7";
paths = (
{
closed = 1;
nodes = (
"304 903 LINE",
"304 819 OFFCURVE",
"257 740 OFFCURVE",
"157 739 CURVE SMOOTH",
"57 740 OFFCURVE",
"10 819 OFFCURVE",
"10 903 CURVE",
"99 903 LINE",
"99 868 OFFCURVE",
"113 832 OFFCURVE",
"157 832 CURVE SMOOTH",
"200 832 OFFCURVE",
"217 868 OFFCURVE",
"217 903 CURVE"
);
}
);
width = 314;
}
);
},
{
glyphname = dotaccent.case;
lastChange = "2015-05-09 22:14:20 +0000";
layers = (
{
anchors = (
{
name = _topU;
position = "{72, 680}";
}
);
layerId = "E854A3C3-7B98-494E-8852-CB9ED5BB8961";
paths = (
{
closed = 1;
nodes = (
"38 756 OFFCURVE",
"10 783 OFFCURVE",
"10 816 CURVE SMOOTH",
"10 849 OFFCURVE",
"38 877 OFFCURVE",
"71 877 CURVE SMOOTH",
"104 877 OFFCURVE",
"130 849 OFFCURVE",
"130 816 CURVE SMOOTH",
"130 783 OFFCURVE",
"104 756 OFFCURVE",
"71 756 CURVE SMOOTH"
);
}
);
width = 140;
},
{
anchors = (
{
name = _topU;
position = "{84, 680}";
}
);
layerId = "24C3257D-BF04-43D4-ADFB-51EF390723A7";
paths = (
{
closed = 1;
nodes = (
"43 744 OFFCURVE",
"10 776 OFFCURVE",
"10 817 CURVE SMOOTH",
"10 858 OFFCURVE",
"43 891 OFFCURVE",
"84 891 CURVE SMOOTH",
"125 891 OFFCURVE",
"156 858 OFFCURVE",
"156 817 CURVE SMOOTH",
"156 776 OFFCURVE",
"125 744 OFFCURVE",
"84 744 CURVE SMOOTH"
);
}
);
width = 166;
}
);
},
{
glyphname = ring.case;
lastChange = "2015-05-09 19:39:39 +0000";
layers = (
{
anchors = (
{
name = _topU;
position = "{110, 680}";
}
);
layerId = "E854A3C3-7B98-494E-8852-CB9ED5BB8961";
paths = (
{
closed = 1;
nodes = (
"160 926 OFFCURVE",
"205 886 OFFCURVE",
"205 833 CURVE SMOOTH",
"205 781 OFFCURVE",
"160 744 OFFCURVE",
"108 744 CURVE SMOOTH",
"55 744 OFFCURVE",
"10 781 OFFCURVE",
"10 833 CURVE SMOOTH",
"10 886 OFFCURVE",
"55 926 OFFCURVE",
"108 926 CURVE SMOOTH"
);
},
{
closed = 1;
nodes = (
"131 792 OFFCURVE",
"149 812 OFFCURVE",
"149 833 CURVE SMOOTH",
"149 857 OFFCURVE",
"131 875 OFFCURVE",
"108 875 CURVE SMOOTH",
"85 875 OFFCURVE",
"66 857 OFFCURVE",
"66 833 CURVE SMOOTH",
"66 812 OFFCURVE",
"85 792 OFFCURVE",
"108 792 CURVE SMOOTH"
);
}
);
width = 215;
},
{
anchors = (
{
name = _topU;
position = "{119, 680}";
}
);
layerId = "24C3257D-BF04-43D4-ADFB-51EF390723A7";
paths = (
{
closed = 1;
nodes = (
"174 943 OFFCURVE",
"224 899 OFFCURVE",
"224 842 CURVE SMOOTH",
"224 785 OFFCURVE",
"174 744 OFFCURVE",
"117 744 CURVE SMOOTH",
"60 744 OFFCURVE",
"10 785 OFFCURVE",
"10 842 CURVE SMOOTH",
"10 899 OFFCURVE",
"60 943 OFFCURVE",
"117 943 CURVE SMOOTH"
);
},
{
closed = 1;
nodes = (
"138 802 OFFCURVE",
"156 821 OFFCURVE",
"156 842 CURVE SMOOTH",
"156 863 OFFCURVE",
"138 881 OFFCURVE",
"117 881 CURVE SMOOTH",
"96 881 OFFCURVE",
"77 863 OFFCURVE",
"77 842 CURVE SMOOTH",
"77 821 OFFCURVE",
"96 802 OFFCURVE",
"117 802 CURVE SMOOTH"
);
}
);
width = 234;
}
);
},
{
glyphname = tilde.case;
lastChange = "2015-05-09 22:14:36 +0000";
layers = (
{
anchors = (
{
name = _topU;
position = "{167, 680}";
}
);
layerId = "E854A3C3-7B98-494E-8852-CB9ED5BB8961";
paths = (
{
closed = 1;
nodes = (
"313 857 LINE",
"313 777 OFFCURVE",
"269 751 OFFCURVE",
"218 751 CURVE SMOOTH",
"162 751 OFFCURVE",
"161 793 OFFCURVE",
"109 793 CURVE SMOOTH",
"93 793 OFFCURVE",
"76 777 OFFCURVE",
"75 756 CURVE",
"10 756 LINE",
"10 836 OFFCURVE",
"53 861 OFFCURVE",
"105 861 CURVE SMOOTH",
"164 861 OFFCURVE",
"163 820 OFFCURVE",
"217 820 CURVE SMOOTH",
"234 820 OFFCURVE",
"249 834 OFFCURVE",
"250 857 CURVE"
);
}
);
width = 323;
},
{
anchors = (
{
name = _topU;
position = "{182, 680}";
}
);
layerId = "24C3257D-BF04-43D4-ADFB-51EF390723A7";
paths = (
{
closed = 1;
nodes = (
"337 866 LINE",
"337 775 OFFCURVE",
"283 745 OFFCURVE",
"230 745 CURVE SMOOTH",
"174 745 OFFCURVE",
"176 781 OFFCURVE",
"124 781 CURVE SMOOTH",
"109 781 OFFCURVE",
"96 763 OFFCURVE",
"96 750 CURVE",
"10 750 LINE",
"10 839 OFFCURVE",
"64 870 OFFCURVE",
"117 870 CURVE SMOOTH",
"173 870 OFFCURVE",
"177 835 OFFCURVE",
"229 835 CURVE SMOOTH",
"244 835 OFFCURVE",
"256 850 OFFCURVE",
"256 866 CURVE"
);
}
);
width = 347;
}
);
},
{
glyphname = hungarumlaut.case;
lastChange = "2015-05-09 19:39:39 +0000";
layers = (
{
anchors = (
{
name = _topU;
position = "{141, 680}";
}
);
layerId = "E854A3C3-7B98-494E-8852-CB9ED5BB8961";
paths = (
{
closed = 1;
nodes = (
"10 756 LINE",
"64 897 LINE",
"166 897 LINE",
"76 739 LINE"
);
},
{
closed = 1;
nodes = (
"176 756 LINE",
"230 897 LINE",
"332 897 LINE",
"242 739 LINE"
);
}
);
width = 342;
},
{
anchors = (
{
name = _topU;
position = "{164, 680}";
}
);
layerId = "24C3257D-BF04-43D4-ADFB-51EF390723A7";
paths = (
{
closed = 1;
nodes = (
"10 764 LINE",
"61 903 LINE",
"195 903 LINE",
"100 739 LINE"
);
},
{
closed = 1;
nodes = (
"210 764 LINE",
"261 903 LINE",
"395 903 LINE",
"300 739 LINE"
);
}
);
width = 405;
}
);
},
{
glyphname = Thorn;
lastChange = "2015-05-09 19:39:39 +0000";
layers = (
{
layerId = "E854A3C3-7B98-494E-8852-CB9ED5BB8961";
paths = (
{
closed = 1;
nodes = (
"186 600 LINE",
"186 680 LINE",
"90 680 LINE",
"90 0 LINE",
"186 0 LINE",
"186 170 LINE",
"275 170 LINE SMOOTH",
"418 170 OFFCURVE",
"541 237 OFFCURVE",
"542 388 CURVE SMOOTH",
"542 540 OFFCURVE",
"429 600 OFFCURVE",
"285 600 CURVE SMOOTH"
);
},
{
closed = 1;
nodes = (
"186 250 LINE",
"186 519 LINE",
"284 519 LINE SMOOTH",
"381 519 OFFCURVE",
"442 487 OFFCURVE",
"442 384 CURVE",
"438 289 OFFCURVE",
"371 250 OFFCURVE",
"279 250 CURVE SMOOTH"
);
}
);
width = 572;
},
{
layerId = "24C3257D-BF04-43D4-ADFB-51EF390723A7";
paths = (
{
closed = 1;
nodes = (
"214 600 LINE",
"214 680 LINE",
"85 680 LINE",
"85 0 LINE",
"214 0 LINE",
"214 157 LINE",
"289 157 LINE SMOOTH",
"433 157 OFFCURVE",
"566 227 OFFCURVE",
"567 382 CURVE SMOOTH",
"567 538 OFFCURVE",
"446 600 OFFCURVE",
"298 600 CURVE SMOOTH"
);
},
{
closed = 1;
nodes = (
"214 264 LINE",
"214 492 LINE",
"294 492 LINE SMOOTH",
"379 492 OFFCURVE",
"430 462 OFFCURVE",
"430 374 CURVE",
"425 298 OFFCURVE",
"373 264 OFFCURVE",
"296 264 CURVE SMOOTH"
);
}
);
width = 607;
}
);
unicode = 00DE;
},
{
glyphname = Eth;
lastChange = "2015-05-09 19:46:16 +0000";
layers = (
{
layerId = "E854A3C3-7B98-494E-8852-CB9ED5BB8961";
paths = (
{
closed = 1;
nodes = (
"29 300 LINE",
"19 375 LINE",
"277 375 LINE",
"286 300 LINE"
);
},
{
closed = 1;
nodes = (
"90 0 LINE",
"90 680 LINE",
"335 680 LINE SMOOTH",
"546 680 OFFCURVE",
"638 535 OFFCURVE",
"638 344 CURVE SMOOTH",
"638 145 OFFCURVE",
"530 0 OFFCURVE",
"331 0 CURVE SMOOTH"
);
},
{
closed = 1;
nodes = (
"186 598 LINE",
"186 80 LINE",
"331 80 LINE SMOOTH",
"456 80 OFFCURVE",
"541 171 OFFCURVE",
"541 343 CURVE SMOOTH",
"541 494 OFFCURVE",
"478 598 OFFCURVE",
"339 598 CURVE SMOOTH"
);
}
);
width = 678;
},
{
layerId = "24C3257D-BF04-43D4-ADFB-51EF390723A7";
paths = (
{
closed = 1;
nodes = (
"29 291 LINE",
"18 392 LINE",
"286 392 LINE",
"295 291 LINE"
);
},
{
closed = 1;
nodes = (
"85 0 LINE",
"85 680 LINE",
"343 680 LINE SMOOTH",
"555 680 OFFCURVE",
"656 539 OFFCURVE",
"656 344 CURVE SMOOTH",
"656 133 OFFCURVE",
"542 3 OFFCURVE",
"343 -1 CURVE"
);
},
{
closed = 1;
nodes = (
"214 570 LINE",
"214 109 LINE",
"341 109 LINE SMOOTH",
"450 109 OFFCURVE",
"522 175 OFFCURVE",
"522 344 CURVE SMOOTH",
"522 485 OFFCURVE",
"468 570 OFFCURVE",
"348 570 CURVE SMOOTH"
);
}
);
width = 691;
}
);
unicode = 00D0;
},
{
glyphname = AE;
lastChange = "2015-05-09 22:14:47 +0000";
layers = (
{
layerId = "E854A3C3-7B98-494E-8852-CB9ED5BB8961";
paths = (
{
closed = 1;
nodes = (
"10 4 LINE",
"444 680 LINE",
"840 680 LINE",
"852 606 LINE",
"552 606 LINE",
"552 383 LINE",
"783 383 LINE",
"796 309 LINE",
"552 309 LINE",
"552 75 LINE",
"875 75 LINE",
"887 0 LINE",
"455 0 LINE",
"455 182 LINE",
"218 182 LINE",
"100 -10 LINE"
);
},
{
closed = 1;
nodes = (
"269 259 LINE",
"455 259 LINE",
"455 548 LINE"
);
}
);
width = 907;
},
{
layerId = "24C3257D-BF04-43D4-ADFB-51EF390723A7";
paths = (
{
closed = 1;
nodes = (
"0 8 LINE",
"453 680 LINE",
"874 680 LINE",
"893 578 LINE",
"597 578 LINE",
"597 395 LINE",
"819 395 LINE",
"840 292 LINE",
"597 292 LINE",
"597 101 LINE",
"922 101 LINE",
"942 0 LINE",
"466 0 LINE",
"466 160 LINE",
"234 160 LINE",
"124 -10 LINE"
);
},
{
closed = 1;
nodes = (
"304 265 LINE",
"466 265 LINE",
"466 502 LINE"
);
}
);
width = 962;
}
);
unicode = 00C6;
},
{
glyphname = Dcroat;
lastChange = "2015-05-09 21:12:20 +0000";
layers = (
{
layerId = "E854A3C3-7B98-494E-8852-CB9ED5BB8961";
paths = (
{
closed = 1;
nodes = (
"29 300 LINE",
"19 375 LINE",
"277 375 LINE",
"286 300 LINE"
);
},
{
closed = 1;
nodes = (
"90 0 LINE",
"90 680 LINE",
"335 680 LINE SMOOTH",
"546 680 OFFCURVE",
"638 535 OFFCURVE",
"638 344 CURVE SMOOTH",
"638 145 OFFCURVE",
"530 0 OFFCURVE",
"331 0 CURVE SMOOTH"
);
},
{
closed = 1;
nodes = (
"186 598 LINE",
"186 80 LINE",
"331 80 LINE SMOOTH",
"456 80 OFFCURVE",
"541 171 OFFCURVE",
"541 343 CURVE SMOOTH",
"541 494 OFFCURVE",
"478 598 OFFCURVE",
"339 598 CURVE SMOOTH"
);
}
);
width = 678;
},
{
layerId = "24C3257D-BF04-43D4-ADFB-51EF390723A7";
paths = (
{
closed = 1;
nodes = (
"29 291 LINE",
"18 392 LINE",
"286 392 LINE",
"295 291 LINE"
);
},
{
closed = 1;
nodes = (
"85 0 LINE",
"85 680 LINE",
"343 680 LINE SMOOTH",
"555 680 OFFCURVE",
"656 539 OFFCURVE",
"656 344 CURVE SMOOTH",
"656 131 OFFCURVE",
"544 3 OFFCURVE",
"343 0 CURVE SMOOTH"
);
},
{
closed = 1;
nodes = (
"214 570 LINE",
"214 109 LINE",
"341 109 LINE SMOOTH",
"450 109 OFFCURVE",
"522 175 OFFCURVE",
"522 344 CURVE SMOOTH",
"522 485 OFFCURVE",
"468 570 OFFCURVE",
"348 570 CURVE SMOOTH"
);
}
);
width = 691;
}
);
unicode = 0110;
},
{
glyphname = Lslash;
lastChange = "2015-05-09 21:12:28 +0000";
layers = (
{
layerId = "E854A3C3-7B98-494E-8852-CB9ED5BB8961";
paths = (
{
closed = 1;
nodes = (
"505 0 LINE",
"493 75 LINE",
"186 75 LINE",
"186 306.379 LINE",
"337 429 LINE",
"297 493 LINE",
"186 403.255 LINE",
"186 680 LINE",
"90 680 LINE",
"90 325.638 LINE",
"15 265 LINE",
"55 200 LINE",
"90 228.422 LINE",
"90 0 LINE"
);
}
);
width = 515;
},
{
layerId = "24C3257D-BF04-43D4-ADFB-51EF390723A7";
paths = (
{
closed = 1;
nodes = (
"534 0 LINE",
"514 101 LINE",
"214 101 LINE",
"214 305.506 LINE",
"370 423 LINE",
"320 514 LINE",
"214 433.911 LINE",
"214 680 LINE",
"85 680 LINE",
"85 336.445 LINE",
"5 276 LINE",
"54 185 LINE",
"85 208.348 LINE",
"85 0 LINE"
);
}
);
width = 556;
}
);
unicode = 0141;
},
{
glyphname = OE;
lastChange = "2015-05-09 22:15:01 +0000";
layers = (
{
layerId = "E854A3C3-7B98-494E-8852-CB9ED5BB8961";
paths = (
{
closed = 1;
nodes = (
"506 584 LINE",
"457 601 OFFCURVE",
"426 612 OFFCURVE",
"361 612 CURVE SMOOTH",
"237 612 OFFCURVE",
"140 501 OFFCURVE",
"140 337 CURVE SMOOTH",
"140 190 OFFCURVE",
"218 68 OFFCURVE",
"353 68 CURVE SMOOTH",
"418 68 OFFCURVE",
"465 81 OFFCURVE",
"502 98 CURVE",
"539 26 LINE",
"494 3 OFFCURVE",
"414 -14 OFFCURVE",
"357 -14 CURVE SMOOTH",
"148 -14 OFFCURVE",
"40 145 OFFCURVE",
"40 336 CURVE SMOOTH",
"40 540 OFFCURVE",
"164 694 OFFCURVE",
"363 694 CURVE SMOOTH",
"403 694 OFFCURVE",
"487 682 OFFCURVE",
"536 653 CURVE"
);
},
{
closed = 1;
nodes = (
"500 0 LINE",
"500 680 LINE",
"883 680 LINE",
"896 606 LINE",
"596 606 LINE",
"596 383 LINE",
"827 383 LINE",
"840 309 LINE",
"596 309 LINE",
"596 75 LINE",
"919 75 LINE",
"932 0 LINE"
);
}
);
width = 952;
},
{
layerId = "24C3257D-BF04-43D4-ADFB-51EF390723A7";
paths = (
{
closed = 1;
nodes = (
"503 557 LINE",
"444 574 OFFCURVE",
"418 585 OFFCURVE",
"359 585 CURVE SMOOTH",
"251 585 OFFCURVE",
"170 491 OFFCURVE",
"170 338 CURVE SMOOTH",
"170 206 OFFCURVE",
"235 95 OFFCURVE",
"351 95 CURVE SMOOTH",
"408 95 OFFCURVE",
"459 109 OFFCURVE",
"500 126 CURVE",
"549 30 LINE",
"497 3 OFFCURVE",
"414 -14 OFFCURVE",
"358 -14 CURVE SMOOTH",
"146 -14 OFFCURVE",
"35 141 OFFCURVE",
"35 337 CURVE SMOOTH",
"35 546 OFFCURVE",
"164 694 OFFCURVE",
"363 694 CURVE SMOOTH",
"403 694 OFFCURVE",
"484 682 OFFCURVE",
"543 650 CURVE"
);
},
{
closed = 1;
nodes = (
"490 0 LINE",
"490 680 LINE",
"896 680 LINE",
"916 578 LINE",
"619 578 LINE",
"619 395 LINE",
"841 395 LINE",
"862 292 LINE",
"619 292 LINE",
"619 101 LINE",
"945 101 LINE",
"966 0 LINE"
);
}
);
width = 986;
}
);
unicode = 0152;
},
{
glyphname = Oslash;
lastChange = "2015-05-09 22:17:20 +0000";
layers = (
{
layerId = "E854A3C3-7B98-494E-8852-CB9ED5BB8961";
paths = (
{
closed = 1;
nodes = (
"288 40 LINE",
"208 79 LINE",
"443 632 LINE",
"522 579 LINE"
);
},
{
closed = 1;
nodes = (
"553 696 OFFCURVE",
"689 548 OFFCURVE",
"689 344 CURVE SMOOTH",
"689 139 OFFCURVE",
"552 -11 OFFCURVE",
"362 -14 CURVE SMOOTH",
"175 -14 OFFCURVE",
"40 133 OFFCURVE",
"40 337 CURVE SMOOTH",
"40 541 OFFCURVE",
"177 692 OFFCURVE",
"365 696 CURVE SMOOTH"
);
},
{
closed = 1;
nodes = (
"140 181 OFFCURVE",
"233 68 OFFCURVE",
"361 68 CURVE SMOOTH",
"492 68 OFFCURVE",
"587 184 OFFCURVE",
"587 344 CURVE SMOOTH",
"587 500 OFFCURVE",
"495 613 OFFCURVE",
"367 613 CURVE SMOOTH",
"235 613 OFFCURVE",
"140 497 OFFCURVE",
"140 338 CURVE SMOOTH"
);
}
);
width = 729;
},
{
layerId = "24C3257D-BF04-43D4-ADFB-51EF390723A7";
paths = (
{
closed = 1;
nodes = (
"322 52 LINE",
"215 123 LINE",
"423 622 LINE",
"531 549 LINE"
);
},
{
closed = 1;
nodes = (
"581 696 OFFCURVE",
"702 539 OFFCURVE",
"702 344 CURVE SMOOTH",
"702 133 OFFCURVE",
"567 -10 OFFCURVE",
"368 -14 CURVE SMOOTH",
"156 -14 OFFCURVE",
"35 142 OFFCURVE",
"35 337 CURVE SMOOTH",
"35 546 OFFCURVE",
"169 692 OFFCURVE",
"368 696 CURVE SMOOTH"
);
},
{
closed = 1;
nodes = (
"170 195 OFFCURVE",
"246 95 OFFCURVE",
"367 95 CURVE SMOOTH",
"476 95 OFFCURVE",
"567 175 OFFCURVE",
"567 344 CURVE SMOOTH",
"567 485 OFFCURVE",
"491 586 OFFCURVE",
"370 586 CURVE SMOOTH",
"263 586 OFFCURVE",
"170 490 OFFCURVE",
"170 338 CURVE SMOOTH"
);
}
);
width = 737;
}
);
unicode = 00D8;
},
{
glyphname = germandbls;
lastChange = "2015-05-09 19:39:39 +0000";
layers = (
{
layerId = "E854A3C3-7B98-494E-8852-CB9ED5BB8961";
paths = (
{
closed = 1;
nodes = (
"70 473 LINE SMOOTH",
"70 608 OFFCURVE",
"158 691 OFFCURVE",
"294 691 CURVE SMOOTH",
"417 691 OFFCURVE",
"515 629 OFFCURVE",
"515 505 CURVE SMOOTH",
"515 444 OFFCURVE",
"483 389 OFFCURVE",
"432 364 CURVE",
"499 341 OFFCURVE",
"557 279 OFFCURVE",
"557 191 CURVE SMOOTH",
"557 59 OFFCURVE",
"451 0 OFFCURVE",
"308 0 CURVE SMOOTH",
"233 0 LINE",
"233 79 LINE",
"304 79 LINE SMOOTH",
"388 79 OFFCURVE",
"457 112 OFFCURVE",
"457 192 CURVE SMOOTH",
"457 272 OFFCURVE",
"397 313 OFFCURVE",
"314 313 CURVE SMOOTH",
"244 313 LINE",
"244 390 LINE",
"275 390 LINE SMOOTH",
"371 390 OFFCURVE",
"416 432 OFFCURVE",
"416 500 CURVE SMOOTH",
"416 572 OFFCURVE",
"361 608 OFFCURVE",
"296 608 CURVE SMOOTH",
"215 608 OFFCURVE",
"166 553 OFFCURVE",
"166 472 CURVE SMOOTH",
"166 0 LINE",
"70 0 LINE"
);
}
);
width = 592;
},
{
layerId = "24C3257D-BF04-43D4-ADFB-51EF390723A7";
paths = (
{
closed = 1;
nodes = (
"65 473 LINE SMOOTH",
"65 609 OFFCURVE",
"151 702 OFFCURVE",
"300 702 CURVE SMOOTH",
"439 702 OFFCURVE",
"547 636 OFFCURVE",
"547 508 CURVE SMOOTH",
"547 455 OFFCURVE",
"511 393 OFFCURVE",
"466 372 CURVE",
"529 356 OFFCURVE",
"596 284 OFFCURVE",
"596 195 CURVE SMOOTH",
"596 75 OFFCURVE",
"499 0 OFFCURVE",
"354 0 CURVE SMOOTH",
"254 0 LINE",
"254 107 LINE",
"345 107 LINE SMOOTH",
"406 107 OFFCURVE",
"459 146 OFFCURVE",
"459 199 CURVE SMOOTH",
"459 256 OFFCURVE",
"410 299 OFFCURVE",
"354 299 CURVE SMOOTH",
"260 299 LINE",
"260 403 LINE",
"295 403 LINE SMOOTH",
"367 403 OFFCURVE",
"411 447 OFFCURVE",
"411 499 CURVE SMOOTH",
"411 556 OFFCURVE",
"363 590 OFFCURVE",
"306 590 CURVE SMOOTH",
"241 590 OFFCURVE",
"194 544 OFFCURVE",
"194 471 CURVE SMOOTH",
"194 0 LINE",
"65 0 LINE"
);
}
);
width = 626;
}
);
unicode = 00DF;
},
{
glyphname = eth;
lastChange = "2015-05-09 19:39:39 +0000";
layers = (
{
layerId = "E854A3C3-7B98-494E-8852-CB9ED5BB8961";
paths = (
{
closed = 1;
nodes = (
"515 100 OFFCURVE",
"432 -13 OFFCURVE",
"270 -13 CURVE SMOOTH",
"122 -13 OFFCURVE",
"30 91 OFFCURVE",
"30 243 CURVE SMOOTH",
"31 394 OFFCURVE",
"124 498 OFFCURVE",
"274 498 CURVE SMOOTH",
"345 498 OFFCURVE",
"432 448 OFFCURVE",
"473 385 CURVE",
"425 339 LINE",
"392 381 OFFCURVE",
"352 416 OFFCURVE",
"274 416 CURVE SMOOTH",
"183 416 OFFCURVE",
"129 340 OFFCURVE",
"128 244 CURVE SMOOTH",
"128 143 OFFCURVE",
"179 69 OFFCURVE",
"271 69 CURVE SMOOTH",
"362 69 OFFCURVE",
"416 145 OFFCURVE",
"417 241 CURVE SMOOTH",
"417 425 OFFCURVE",
"342 578 OFFCURVE",
"88 680 CURVE",
"116 750 LINE",
"371 659 OFFCURVE",
"515 476 OFFCURVE",
"515 251 CURVE SMOOTH"
);
},
{
closed = 1;
nodes = (
"77 603 LINE",
"358 742 LINE",
"391 681 LINE",
"111 539 LINE"
);
}
);
width = 545;
},
{
layerId = "24C3257D-BF04-43D4-ADFB-51EF390723A7";
paths = (
{
closed = 1;
nodes = (
"543 93 OFFCURVE",
"441 -12 OFFCURVE",
"284 -12 CURVE SMOOTH",
"127 -12 OFFCURVE",
"25 87 OFFCURVE",
"25 242 CURVE SMOOTH",
"25 397 OFFCURVE",
"127 498 OFFCURVE",
"274 498 CURVE SMOOTH",
"358 498 OFFCURVE",
"436 452 OFFCURVE",
"482 402 CURVE",
"437 331 LINE",
"403 363 OFFCURVE",
"354 387 OFFCURVE",
"284 387 CURVE SMOOTH",
"211 387 OFFCURVE",
"159 325 OFFCURVE",
"159 242 CURVE SMOOTH",
"159 158 OFFCURVE",
"211 99 OFFCURVE",
"284 99 CURVE SMOOTH",
"357 99 OFFCURVE",
"409 161 OFFCURVE",
"409 244 CURVE SMOOTH",
"409 428 OFFCURVE",
"258 573 OFFCURVE",
"64 655 CURVE",
"114 749 LINE",
"333 686 OFFCURVE",
"543 473 OFFCURVE",
"543 270 CURVE SMOOTH"
);
},
{
closed = 1;
nodes = (
"54 577 LINE",
"367 742 LINE",
"417 653 LINE",
"105 485 LINE"
);
}
);
width = 568;
}
);
unicode = 00F0;
},
{
glyphname = thorn;
lastChange = "2015-05-09 19:39:39 +0000";
layers = (
{
layerId = "E854A3C3-7B98-494E-8852-CB9ED5BB8961";
paths = (
{
closed = 1;
nodes = (
"237.434 498 OFFCURVE",
"198.508 488.307 OFFCURVE",
"162 467.845 CURVE",
"162 706 LINE",
"66 695 LINE",
"66 -219 LINE",
"162 -208 LINE",
"162 14.901 LINE",
"198.591 -4.943 OFFCURVE",
"237.326 -13 OFFCURVE",
"261 -13 CURVE SMOOTH",
"407 -13 OFFCURVE",
"503 88 OFFCURVE",
"503 239 CURVE SMOOTH",
"503 395 OFFCURVE",
"411 498 OFFCURVE",
"262 498 CURVE SMOOTH"
);
},
{
closed = 1;
nodes = (
"222.846 69 OFFCURVE",
"191.241 78.909 OFFCURVE",
"162 101.968 CURVE",
"162 380.559 LINE",
"190.454 404.649 OFFCURVE",
"220.552 416 OFFCURVE",
"262 416 CURVE SMOOTH",
"354 416 OFFCURVE",
"405 342 OFFCURVE",
"405 238 CURVE SMOOTH",
"405 142 OFFCURVE",
"353 69 OFFCURVE",
"262 69 CURVE SMOOTH"
);
}
);
width = 533;
},
{
layerId = "24C3257D-BF04-43D4-ADFB-51EF390723A7";
paths = (
{
closed = 1;
nodes = (
"251.582 498 OFFCURVE",
"219.926 489.298 OFFCURVE",
"190 473.755 CURVE",
"190 706 LINE",
"61 695 LINE",
"61 -219 LINE",
"190 -209 LINE",
"190 13.504 LINE",
"220.261 -1.951 OFFCURVE",
"252.427 -12 OFFCURVE",
"277 -12 CURVE SMOOTH",
"434 -12 OFFCURVE",
"525 92 OFFCURVE",
"525 244 CURVE SMOOTH",
"525 399 OFFCURVE",
"432 498 OFFCURVE",
"281 498 CURVE SMOOTH"
);
},
{
closed = 1;
nodes = (
"245.792 99 OFFCURVE",
"218.739 106.661 OFFCURVE",
"190 127.124 CURVE",
"190 358.166 LINE",
"218.739 377.086 OFFCURVE",
"245.792 387 OFFCURVE",
"276 387 CURVE SMOOTH",
"349 387 OFFCURVE",
"391 328 OFFCURVE",
"391 244 CURVE SMOOTH",
"391 161 OFFCURVE",
"349 99 OFFCURVE",
"276 99 CURVE SMOOTH"
);
}
);
width = 550;
}
);
unicode = 00FE;
},
{
glyphname = florin;
lastChange = "2015-05-09 22:21:01 +0000";
layers = (
{
layerId = "E854A3C3-7B98-494E-8852-CB9ED5BB8961";
paths = (
{
closed = 1;
nodes = (
"139 475 LINE",
"139 542 LINE SMOOTH",
"139 639 OFFCURVE",
"197 702 OFFCURVE",
"293 702 CURVE SMOOTH",
"322 702 OFFCURVE",
"357 691 OFFCURVE",
"374 680 CURVE",
"350 606 LINE",
"337 611 OFFCURVE",
"317 617 OFFCURVE",
"302 617 CURVE SMOOTH",
"254 617 OFFCURVE",
"235 582 OFFCURVE",
"235 533 CURVE SMOOTH",
"235 475 LINE",
"325 475 LINE",
"356 401 LINE",
"235 401 LINE",
"235 64 LINE SMOOTH",
"235 -32 OFFCURVE",
"178 -94 OFFCURVE",
"83 -94 CURVE SMOOTH",
"54 -94 OFFCURVE",
"17 -84 OFFCURVE",
"0 -73 CURVE",
"24 0 LINE",
"37 -5 OFFCURVE",
"57 -11 OFFCURVE",
"72 -11 CURVE SMOOTH",
"121 -11 OFFCURVE",
"139 24 OFFCURVE",
"139 73 CURVE SMOOTH",
"139 401 LINE",
"66 401 LINE",
"65 475 LINE"
);
}
);
width = 374;
},
{
layerId = "24C3257D-BF04-43D4-ADFB-51EF390723A7";
paths = (
{
closed = 1;
nodes = (
"156 484 LINE",
"156 521 LINE SMOOTH",
"156 633 OFFCURVE",
"225 702 OFFCURVE",
"345 702 CURVE SMOOTH",
"376 702 OFFCURVE",
"421 688 OFFCURVE",
"442 671 CURVE",
"405 577 LINE",
"385 585 OFFCURVE",
"367 590 OFFCURVE",
"351 590 CURVE SMOOTH",
"306 590 OFFCURVE",
"286 554 OFFCURVE",
"286 503 CURVE SMOOTH",
"286 484 LINE",
"378 484 LINE",
"419 384 LINE",
"286 384 LINE",
"286 58 LINE SMOOTH",
"286 -54 OFFCURVE",
"217 -123 OFFCURVE",
"97 -123 CURVE SMOOTH",
"66 -123 OFFCURVE",
"21 -109 OFFCURVE",
"0 -92 CURVE",
"37 2 LINE",
"57 -6 OFFCURVE",
"75 -11 OFFCURVE",
"91 -11 CURVE SMOOTH",
"136 -11 OFFCURVE",
"156 25 OFFCURVE",
"156 76 CURVE SMOOTH",
"156 384 LINE",
"81 384 LINE",
"81 484 LINE"
);
}
);
width = 442;
}
);
unicode = 0192;
},
{
glyphname = ae;
lastChange = "2015-05-09 19:47:39 +0000";
layers = (
{
layerId = "E854A3C3-7B98-494E-8852-CB9ED5BB8961";
paths = (
{
closed = 1;
nodes = (
"404 77 LINE",
"371 38 OFFCURVE",
"311 -12 OFFCURVE",
"216 -12 CURVE SMOOTH",
"101 -12 OFFCURVE",
"47 52 OFFCURVE",
"47 140 CURVE SMOOTH",
"47 237 OFFCURVE",
"120 290 OFFCURVE",
"225 290 CURVE SMOOTH",
"340 290 LINE",
"340 361 OFFCURVE",
"319 412 OFFCURVE",
"243 412 CURVE SMOOTH",
"186 412 OFFCURVE",
"139 395 OFFCURVE",
"103 379 CURVE",
"76 455 LINE",
"113 480 OFFCURVE",
"200 498 OFFCURVE",
"241 498 CURVE SMOOTH",
"353 498 OFFCURVE",
"437 420 OFFCURVE",
"437 329 CURVE SMOOTH",
"437 226 LINE",
"223 226 LINE SMOOTH",
"164 226 OFFCURVE",
"133 185 OFFCURVE",
"133 140 CURVE SMOOTH",
"133 103 OFFCURVE",
"159 64 OFFCURVE",
"214 64 CURVE SMOOTH",
"301 64 OFFCURVE",
"337 109 OFFCURVE",
"370 156 CURVE"
);
},
{
closed = 1;
nodes = (
"438 221 LINE",
"445 132 OFFCURVE",
"492 68 OFFCURVE",
"601 68 CURVE SMOOTH",
"658 68 OFFCURVE",
"694 86 OFFCURVE",
"747 111 CURVE",
"777 41 LINE",
"729 12 OFFCURVE",
"669 -12 OFFCURVE",
"601 -12 CURVE SMOOTH",
"428 -12 OFFCURVE",
"338 91 OFFCURVE",
"338 243 CURVE SMOOTH",
"338 394 OFFCURVE",
"425 498 OFFCURVE",
"570 498 CURVE SMOOTH",
"720 498 OFFCURVE",
"782 380 OFFCURVE",
"782 240 CURVE SMOOTH",
"782 221 LINE"
);
},
{
closed = 1;
nodes = (
"689 286 LINE",
"677 366 OFFCURVE",
"640 416 OFFCURVE",
"567 416 CURVE SMOOTH",
"492 416 OFFCURVE",
"449 365 OFFCURVE",
"440 286 CURVE"
);
}
);
width = 812;
},
{
layerId = "24C3257D-BF04-43D4-ADFB-51EF390723A7";
paths = (
{
closed = 1;
nodes = (
"403 78 LINE",
"367 43 OFFCURVE",
"318 -12 OFFCURVE",
"217 -12 CURVE SMOOTH",
"98 -12 OFFCURVE",
"42 52 OFFCURVE",
"42 145 CURVE SMOOTH",
"42 245 OFFCURVE",
"117 300 OFFCURVE",
"226 300 CURVE SMOOTH",
"321 300 LINE",
"320 349 OFFCURVE",
"291 378 OFFCURVE",
"243 378 CURVE SMOOTH",
"198 378 OFFCURVE",
"138 363 OFFCURVE",
"102 346 CURVE",
"67 454 LINE",
"104 479 OFFCURVE",
"200 498 OFFCURVE",
"241 498 CURVE SMOOTH",
"357 498 OFFCURVE",
"452 423 OFFCURVE",
"452 319 CURVE SMOOTH",
"452 213 LINE",
"224 213 LINE SMOOTH",
"179 213 OFFCURVE",
"153 180 OFFCURVE",
"153 145 CURVE SMOOTH",
"153 117 OFFCURVE",
"178 91 OFFCURVE",
"215 91 CURVE SMOOTH",
"289 91 OFFCURVE",
"320 122 OFFCURVE",
"353 161 CURVE"
);
},
{
closed = 1;
nodes = (
"461 204 LINE",
"473 140 OFFCURVE",
"511 99 OFFCURVE",
"607 99 CURVE SMOOTH",
"664 99 OFFCURVE",
"705 117 OFFCURVE",
"748 142 CURVE",
"786 48 LINE",
"741 13 OFFCURVE",
"688 -12 OFFCURVE",
"604 -12 CURVE SMOOTH",
"416 -12 OFFCURVE",
"323 87 OFFCURVE",
"323 242 CURVE SMOOTH",
"323 397 OFFCURVE",
"416 498 OFFCURVE",
"567 498 CURVE SMOOTH",
"719 498 OFFCURVE",
"788 381 OFFCURVE",
"788 244 CURVE SMOOTH",
"788 204 LINE"
);
},
{
closed = 1;
nodes = (
"665 291 LINE",
"652 356 OFFCURVE",
"616 387 OFFCURVE",
"564 387 CURVE SMOOTH",
"511 387 OFFCURVE",
"473 354 OFFCURVE",
"462 291 CURVE"
);
}
);
width = 813;
}
);
unicode = 00E6;
},
{
glyphname = dcroat;
lastChange = "2015-05-09 21:16:02 +0000";
layers = (
{
layerId = "E854A3C3-7B98-494E-8852-CB9ED5BB8961";
paths = (
{
closed = 1;
nodes = (
"366 92 OFFCURVE",
"330 69 OFFCURVE",
"271 69 CURVE SMOOTH",
"179 69 OFFCURVE",
"128 143 OFFCURVE",
"128 247 CURVE SMOOTH",
"128 343 OFFCURVE",
"180 416 OFFCURVE",
"271 416 CURVE SMOOTH",
"328 416 OFFCURVE",
"369 395 OFFCURVE",
"410 343 CURVE",
"438 411 LINE",
"395 475 OFFCURVE",
"312 498 OFFCURVE",
"272 498 CURVE SMOOTH",
"126 498 OFFCURVE",
"30 397 OFFCURVE",
"30 246 CURVE SMOOTH",
"30 90 OFFCURVE",
"122 -13 OFFCURVE",
"271 -13 CURVE SMOOTH",
"312 -13 OFFCURVE",
"393 14 OFFCURVE",
"436 73 CURVE",
"407 142 LINE"
);
},
{
closed = 1;
nodes = (
"549 555 LINE",
"540 625 LINE",
"474 625 LINE",
"474 705 LINE",
"377 695 LINE",
"377 625 LINE",
"285 625 LINE",
"295 555 LINE",
"377 555 LINE",
"377 82 LINE",
"419 0 LINE",
"474 0 LINE",
"474 555 LINE"
);
}
);
width = 544;
},
{
layerId = "24C3257D-BF04-43D4-ADFB-51EF390723A7";
paths = (
{
closed = 1;
nodes = (
"357 121 OFFCURVE",
"319 99 OFFCURVE",
"274 99 CURVE SMOOTH",
"201 99 OFFCURVE",
"159 158 OFFCURVE",
"159 242 CURVE SMOOTH",
"159 325 OFFCURVE",
"201 387 OFFCURVE",
"274 387 CURVE SMOOTH",
"319 387 OFFCURVE",
"357 370 OFFCURVE",
"404 319 CURVE",
"441 407 LINE",
"411 453 OFFCURVE",
"325 498 OFFCURVE",
"273 498 CURVE SMOOTH",
"116 498 OFFCURVE",
"25 394 OFFCURVE",
"25 242 CURVE SMOOTH",
"25 87 OFFCURVE",
"118 -12 OFFCURVE",
"269 -12 CURVE SMOOTH",
"328 -12 OFFCURVE",
"396 23 OFFCURVE",
"441 78 CURVE",
"404 162 LINE"
);
},
{
closed = 1;
nodes = (
"577 545 LINE",
"566 640 LINE",
"507 640 LINE",
"507 706 LINE",
"376 695 LINE",
"376 640 LINE",
"304 640 LINE",
"316 545 LINE",
"376 545 LINE",
"376 91 LINE",
"439 0 LINE",
"507 0 LINE",
"507 545 LINE"
);
}
);
width = 572;
}
);
unicode = 0111;
},
{
glyphname = oe;
lastChange = "2017-03-21 12:46:30 +0000";
layers = (
{
layerId = "E854A3C3-7B98-494E-8852-CB9ED5BB8961";
paths = (
{
closed = 1;
nodes = (
"688 286 LINE",
"676 366 OFFCURVE",
"639 416 OFFCURVE",
"566 416 CURVE SMOOTH",
"491 416 OFFCURVE",
"448 365 OFFCURVE",
"439 286 CURVE"
);
},
{
closed = 1;
nodes = (
"436 33 LINE",
"393 4 OFFCURVE",
"312 -13 OFFCURVE",
"271 -13 CURVE SMOOTH",
"122 -13 OFFCURVE",
"30 91 OFFCURVE",
"30 243 CURVE SMOOTH",
"31 394 OFFCURVE",
"124 498 OFFCURVE",
"275 498 CURVE SMOOTH",
"315 498 OFFCURVE",
"395 480 OFFCURVE",
"438 451 CURVE",
"410 383 LINE",
"369 400 OFFCURVE",
"331 416 OFFCURVE",
"274 416 CURVE SMOOTH",
"183 416 OFFCURVE",
"129 340 OFFCURVE",
"128 244 CURVE SMOOTH",
"128 143 OFFCURVE",
"179 69 OFFCURVE",
"271 69 CURVE SMOOTH",
"330 69 OFFCURVE",
"366 82 OFFCURVE",
"407 102 CURVE"
);
},
{
closed = 1;
nodes = (
"437 221 LINE",
"444 132 OFFCURVE",
"491 68 OFFCURVE",
"600 68 CURVE SMOOTH",
"657 68 OFFCURVE",
"693 86 OFFCURVE",
"746 111 CURVE",
"776 41 LINE",
"728 12 OFFCURVE",
"668 -12 OFFCURVE",
"600 -12 CURVE SMOOTH",
"427 -12 OFFCURVE",
"337 91 OFFCURVE",
"337 243 CURVE SMOOTH",
"337 394 OFFCURVE",
"424 498 OFFCURVE",
"569 498 CURVE SMOOTH",
"717 498 OFFCURVE",
"781 384 OFFCURVE",
"781 247 CURVE SMOOTH",
"781 221 LINE"
);
}
);
width = 811;
},
{
layerId = "24C3257D-BF04-43D4-ADFB-51EF390723A7";
paths = (
{
closed = 1;
nodes = (
"694 291 LINE",
"681 356 OFFCURVE",
"645 387 OFFCURVE",
"593 387 CURVE SMOOTH",
"540 387 OFFCURVE",
"502 354 OFFCURVE",
"491 291 CURVE"
);
},
{
closed = 1;
nodes = (
"451 38 LINE",
"406 3 OFFCURVE",
"324 -12 OFFCURVE",
"283 -12 CURVE SMOOTH",
"126 -12 OFFCURVE",
"25 87 OFFCURVE",
"25 242 CURVE SMOOTH",
"25 397 OFFCURVE",
"126 498 OFFCURVE",
"283 498 CURVE SMOOTH",
"324 498 OFFCURVE",
"403 480 OFFCURVE",
"451 447 CURVE",
"414 354 LINE",
"367 375 OFFCURVE",
"329 387 OFFCURVE",
"284 387 CURVE SMOOTH",
"211 387 OFFCURVE",
"159 325 OFFCURVE",
"159 242 CURVE SMOOTH",
"159 158 OFFCURVE",
"211 99 OFFCURVE",
"284 99 CURVE SMOOTH",
"329 99 OFFCURVE",
"367 111 OFFCURVE",
"414 132 CURVE"
);
},
{
closed = 1;
nodes = (
"490 204 LINE",
"502 140 OFFCURVE",
"540 99 OFFCURVE",
"636 99 CURVE SMOOTH",
"693 99 OFFCURVE",
"734 117 OFFCURVE",
"777 142 CURVE",
"815 48 LINE",
"770 13 OFFCURVE",
"717 -12 OFFCURVE",
"633 -12 CURVE SMOOTH",
"445 -12 OFFCURVE",
"352 87 OFFCURVE",
"352 242 CURVE SMOOTH",
"352 397 OFFCURVE",
"445 498 OFFCURVE",
"596 498 CURVE SMOOTH",
"748 498 OFFCURVE",
"817 381 OFFCURVE",
"817 244 CURVE SMOOTH",
"817 204 LINE"
);
}
);
width = 842;
}
);
unicode = 0153;
},
{
glyphname = lacute;
lastChange = "2015-05-09 22:15:15 +0000";
layers = (
{
layerId = "E854A3C3-7B98-494E-8852-CB9ED5BB8961";
paths = (
{
closed = 1;
nodes = (
"70 0 LINE",
"70 673 LINE",
"166 685 LINE",
"166 0 LINE"
);
},
{
closed = 1;
nodes = (
"88 756 LINE",
"142 897 LINE",
"244 897 LINE",
"154 739 LINE"
);
}
);
width = 236;
},
{
layerId = "24C3257D-BF04-43D4-ADFB-51EF390723A7";
paths = (
{
closed = 1;
nodes = (
"65 0 LINE",
"65 673 LINE",
"194 685 LINE",
"194 0 LINE"
);
},
{
closed = 1;
nodes = (
"87 764 LINE",
"138 903 LINE",
"272 903 LINE",
"177 739 LINE"
);
}
);
width = 259;
}
);
unicode = 013A;
},
{
glyphname = lslash;
lastChange = "2015-05-09 19:39:39 +0000";
layers = (
{
layerId = "E854A3C3-7B98-494E-8852-CB9ED5BB8961";
paths = (
{
closed = 1;
nodes = (
"321 450 LINE",
"209 358 LINE",
"209 0 LINE",
"113 0 LINE",
"113 281 LINE",
"40 221 LINE",
"0 286 LINE",
"113 378 LINE",
"113 695 LINE",
"209 706 LINE",
"209 454 LINE",
"281 514 LINE"
);
}
);
width = 321;
},
{
layerId = "24C3257D-BF04-43D4-ADFB-51EF390723A7";
paths = (
{
closed = 1;
nodes = (
"366 445 LINE",
"248 356 LINE",
"248 0 LINE",
"119 0 LINE",
"119 257 LINE",
"50 206 LINE",
"0 296 LINE",
"119 386 LINE",
"119 695 LINE",
"248 706 LINE",
"248 484 LINE",
"315 535 LINE"
);
}
);
width = 366;
}
);
unicode = 0142;
},
{
glyphname = dotlessi;
lastChange = "2015-05-09 22:15:26 +0000";
layers = (
{
anchors = (
{
name = top;
position = "{110, 485}";
}
);
layerId = "E854A3C3-7B98-494E-8852-CB9ED5BB8961";
paths = (
{
closed = 1;
nodes = (
"60 0 LINE",
"60 485 LINE",
"157 485 LINE",
"157 0 LINE"
);
}
);
width = 217;
},
{
anchors = (
{
name = top;
position = "{120, 485}";
}
);
layerId = "24C3257D-BF04-43D4-ADFB-51EF390723A7";
paths = (
{
closed = 1;
nodes = (
"55 0 LINE",
"55 485 LINE",
"185 485 LINE",
"185 0 LINE"
);
}
);
width = 240;
}
);
unicode = 0131;
},
{
glyphname = oslash;
lastChange = "2015-05-09 22:17:42 +0000";
layers = (
{
layerId = "E854A3C3-7B98-494E-8852-CB9ED5BB8961";
paths = (
{
closed = 1;
nodes = (
"219 34 LINE",
"415 398 LINE",
"343 446 LINE",
"144 74 LINE"
);
},
{
closed = 1;
nodes = (
"515 394 OFFCURVE",
"423 498 OFFCURVE",
"274 498 CURVE SMOOTH",
"124 498 OFFCURVE",
"31 394 OFFCURVE",
"30 243 CURVE SMOOTH",
"30 91 OFFCURVE",
"122 -13 OFFCURVE",
"270 -13 CURVE SMOOTH",
"421 -13 OFFCURVE",
"515 91 OFFCURVE",
"515 242 CURVE SMOOTH"
);
},
{
closed = 1;
nodes = (
"179 69 OFFCURVE",
"128 143 OFFCURVE",
"128 244 CURVE SMOOTH",
"129 340 OFFCURVE",
"183 416 OFFCURVE",
"274 416 CURVE SMOOTH",
"366 416 OFFCURVE",
"417 342 OFFCURVE",
"417 241 CURVE SMOOTH",
"416 145 OFFCURVE",
"362 69 OFFCURVE",
"271 69 CURVE SMOOTH"
);
}
);
width = 559;
},
{
layerId = "24C3257D-BF04-43D4-ADFB-51EF390723A7";
paths = (
{
closed = 1;
nodes = (
"248 76 LINE",
"404 339 LINE",
"314 397 LINE",
"155 118 LINE"
);
},
{
closed = 1;
nodes = (
"543 399 OFFCURVE",
"441 498 OFFCURVE",
"284 498 CURVE SMOOTH",
"127 498 OFFCURVE",
"25 397 OFFCURVE",
"25 242 CURVE SMOOTH",
"25 87 OFFCURVE",
"127 -12 OFFCURVE",
"284 -12 CURVE SMOOTH",
"441 -12 OFFCURVE",
"543 89 OFFCURVE",
"543 244 CURVE SMOOTH"
);
},
{
closed = 1;
nodes = (
"211 99 OFFCURVE",
"159 158 OFFCURVE",
"159 242 CURVE SMOOTH",
"159 325 OFFCURVE",
"211 387 OFFCURVE",
"284 387 CURVE SMOOTH",
"357 387 OFFCURVE",
"409 328 OFFCURVE",
"409 244 CURVE SMOOTH",
"409 161 OFFCURVE",
"357 99 OFFCURVE",
"284 99 CURVE SMOOTH"
);
}
);
width = 568;
}
);
unicode = 00F8;
},
{
glyphname = Aogonek;
lastChange = "2017-03-21 12:09:03 +0000";
layers = (
{
anchors = (
{
name = _bottom;
position = "{563, 2}";
}
);
components = (
{
name = A;
}
);
layerId = "E854A3C3-7B98-494E-8852-CB9ED5BB8961";
paths = (
{
closed = 1;
nodes = (
"615 6 LINE",
"588 -15 OFFCURVE",
"557 -64 OFFCURVE",
"557 -93 CURVE SMOOTH",
"557 -121 OFFCURVE",
"574 -134 OFFCURVE",
"598 -134 CURVE SMOOTH",
"613 -134 OFFCURVE",
"631 -127 OFFCURVE",
"646 -115 CURVE",
"676 -174 LINE",
"651 -195 OFFCURVE",
"621 -205 OFFCURVE",
"585 -205 CURVE SMOOTH",
"520 -205 OFFCURVE",
"475 -161 OFFCURVE",
"475 -101 CURVE SMOOTH",
"475 -66 OFFCURVE",
"497 -18 OFFCURVE",
"522 6 CURVE"
);
}
);
width = 625;
},
{
anchors = (
{
name = _bottom;
position = "{586, 5}";
}
);
components = (
{
name = A;
}
);
layerId = "24C3257D-BF04-43D4-ADFB-51EF390723A7";
paths = (
{
closed = 1;
nodes = (
"649 8 LINE",
"630 -9 OFFCURVE",
"605 -52 OFFCURVE",
"605 -80 CURVE SMOOTH",
"605 -95 OFFCURVE",
"615 -108 OFFCURVE",
"636 -108 CURVE SMOOTH",
"644 -108 OFFCURVE",
"662 -102 OFFCURVE",
"677 -91 CURVE",
"714 -171 LINE",
"682 -195 OFFCURVE",
"649 -204 OFFCURVE",
"612 -204 CURVE SMOOTH",
"543 -204 OFFCURVE",
"492 -152 OFFCURVE",
"492 -91 CURVE SMOOTH",
"492 -62 OFFCURVE",
"513 -12 OFFCURVE",
"530 8 CURVE"
);
}
);
width = 659;
}
);
unicode = 0104;
},
{
glyphname = Iogonek;
lastChange = "2017-03-21 12:09:42 +0000";
layers = (
{
anchors = (
{
name = _bottom;
position = "{135, -3}";
}
);
components = (
{
name = I;
}
);
layerId = "E854A3C3-7B98-494E-8852-CB9ED5BB8961";
paths = (
{
closed = 1;
nodes = (
"186 0 LINE",
"159 -21 OFFCURVE",
"128 -70 OFFCURVE",
"128 -99 CURVE SMOOTH",
"128 -127 OFFCURVE",
"145 -140 OFFCURVE",
"169 -140 CURVE SMOOTH",
"184 -140 OFFCURVE",
"202 -133 OFFCURVE",
"217 -121 CURVE",
"247 -180 LINE",
"222 -201 OFFCURVE",
"192 -211 OFFCURVE",
"156 -211 CURVE SMOOTH",
"91 -211 OFFCURVE",
"46 -167 OFFCURVE",
"46 -107 CURVE SMOOTH",
"46 -72 OFFCURVE",
"65 -24 OFFCURVE",
"90 0 CURVE"
);
}
);
width = 276;
},
{
anchors = (
{
name = _bottom;
position = "{152, 0}";
}
);
components = (
{
name = I;
}
);
layerId = "24C3257D-BF04-43D4-ADFB-51EF390723A7";
paths = (
{
closed = 1;
nodes = (
"214 0 LINE",
"195 -17 OFFCURVE",
"170 -60 OFFCURVE",
"170 -88 CURVE SMOOTH",
"170 -103 OFFCURVE",
"180 -116 OFFCURVE",
"201 -116 CURVE SMOOTH",
"209 -116 OFFCURVE",
"227 -110 OFFCURVE",
"242 -99 CURVE",
"279 -179 LINE",
"247 -203 OFFCURVE",
"214 -212 OFFCURVE",
"177 -212 CURVE SMOOTH",
"108 -212 OFFCURVE",
"57 -160 OFFCURVE",
"57 -99 CURVE SMOOTH",
"57 -70 OFFCURVE",
"68 -30 OFFCURVE",
"85 0 CURVE"
);
}
);
width = 299;
}
);
unicode = 012E;
},
{
glyphname = aogonek;
lastChange = "2017-03-21 12:15:55 +0000";
layers = (
{
components = (
{
name = a;
}
);
layerId = "E854A3C3-7B98-494E-8852-CB9ED5BB8961";
paths = (
{
closed = 1;
nodes = (
"437 0 LINE",
"410 -21 OFFCURVE",
"379 -70 OFFCURVE",
"379 -99 CURVE SMOOTH",
"379 -127 OFFCURVE",
"396 -140 OFFCURVE",
"420 -140 CURVE SMOOTH",
"435 -140 OFFCURVE",
"453 -133 OFFCURVE",
"468 -121 CURVE",
"498 -180 LINE",
"473 -201 OFFCURVE",
"443 -211 OFFCURVE",
"407 -211 CURVE SMOOTH",
"342 -211 OFFCURVE",
"297 -167 OFFCURVE",
"297 -107 CURVE SMOOTH",
"297 -72 OFFCURVE",
"318 -21 OFFCURVE",
"369 36 CURVE"
);
}
);
width = 493;
},
{
components = (
{
name = a;
}
);
layerId = "24C3257D-BF04-43D4-ADFB-51EF390723A7";
paths = (
{
closed = 1;
nodes = (
"452 0 LINE",
"433 -17 OFFCURVE",
"408 -60 OFFCURVE",
"408 -88 CURVE SMOOTH",
"408 -103 OFFCURVE",
"418 -116 OFFCURVE",
"439 -116 CURVE SMOOTH",
"447 -116 OFFCURVE",
"465 -110 OFFCURVE",
"480 -99 CURVE",
"517 -179 LINE",
"485 -203 OFFCURVE",
"452 -212 OFFCURVE",
"415 -212 CURVE SMOOTH",
"346 -212 OFFCURVE",
"299 -160 OFFCURVE",
"299 -99 CURVE SMOOTH",
"299 -58 OFFCURVE",
"324 -12 OFFCURVE",
"361 35 CURVE"
);
}
);
width = 503;
}
);
unicode = 0105;
},
{
glyphname = dcaron;
lastChange = "2015-05-09 19:39:39 +0000";
layers = (
{
components = (
{
name = d;
}
);
layerId = "E854A3C3-7B98-494E-8852-CB9ED5BB8961";
paths = (
{
closed = 1;
nodes = (
"647 722 OFFCURVE",
"676 693 OFFCURVE",
"676 650 CURVE SMOOTH",
"676 582 OFFCURVE",
"627 503 OFFCURVE",
"564 470 CURVE",
"541 515 LINE",
"573 540 OFFCURVE",
"597 562 OFFCURVE",
"602 601 CURVE",
"578 602 OFFCURVE",
"553 632 OFFCURVE",
"553 661 CURVE SMOOTH",
"553 690 OFFCURVE",
"581 722 OFFCURVE",
"614 722 CURVE SMOOTH"
);
}
);
width = 706;
},
{
components = (
{
name = d;
}
);
layerId = "24C3257D-BF04-43D4-ADFB-51EF390723A7";
paths = (
{
closed = 1;
nodes = (
"702 742 OFFCURVE",
"737 706 OFFCURVE",
"737 653 CURVE SMOOTH",
"737 578 OFFCURVE",
"681 486 OFFCURVE",
"605 443 CURVE",
"577 504 LINE",
"610 533 OFFCURVE",
"635 554 OFFCURVE",
"644 597 CURVE",
"621 597 OFFCURVE",
"588 632 OFFCURVE",
"588 668 CURVE SMOOTH",
"588 703 OFFCURVE",
"620 742 OFFCURVE",
"661 742 CURVE SMOOTH"
);
}
);
width = 767;
}
);
unicode = 010F;
},
{
glyphname = iogonek;
lastChange = "2017-03-21 12:19:58 +0000";
layers = (
{
components = (
{
name = dotlessi;
},
{
name = dotaccent;
transform = "{1, 0, 0, 1, 36, 0}";
}
);
layerId = "E854A3C3-7B98-494E-8852-CB9ED5BB8961";
paths = (
{
closed = 1;
nodes = (
"157 0 LINE",
"130 -21 OFFCURVE",
"99 -70 OFFCURVE",
"99 -99 CURVE SMOOTH",
"99 -127 OFFCURVE",
"116 -140 OFFCURVE",
"140 -140 CURVE SMOOTH",
"155 -140 OFFCURVE",
"173 -133 OFFCURVE",
"188 -121 CURVE",
"218 -180 LINE",
"193 -201 OFFCURVE",
"163 -211 OFFCURVE",
"127 -211 CURVE SMOOTH",
"62 -211 OFFCURVE",
"17 -167 OFFCURVE",
"17 -107 CURVE SMOOTH",
"17 -72 OFFCURVE",
"35 -24 OFFCURVE",
"60 0 CURVE"
);
}
);
width = 217;
},
{
components = (
{
name = dotlessi;
},
{
name = dotaccent;
transform = "{1, 0, 0, 1, 34, 0}";
}
);
layerId = "24C3257D-BF04-43D4-ADFB-51EF390723A7";
paths = (
{
closed = 1;
nodes = (
"185 0 LINE",
"166 -17 OFFCURVE",
"141 -60 OFFCURVE",
"141 -88 CURVE SMOOTH",
"141 -103 OFFCURVE",
"151 -116 OFFCURVE",
"172 -116 CURVE SMOOTH",
"180 -116 OFFCURVE",
"198 -110 OFFCURVE",
"213 -99 CURVE",
"250 -179 LINE",
"218 -203 OFFCURVE",
"185 -212 OFFCURVE",
"148 -212 CURVE SMOOTH",
"79 -212 OFFCURVE",
"28 -160 OFFCURVE",
"28 -99 CURVE SMOOTH",
"28 -70 OFFCURVE",
"38 -30 OFFCURVE",
"55 0 CURVE"
);
}
);
width = 240;
}
);
unicode = 012F;
},
{
glyphname = lcaron;
lastChange = "2015-05-09 19:39:39 +0000";
layers = (
{
components = (
{
name = l;
}
);
layerId = "E854A3C3-7B98-494E-8852-CB9ED5BB8961";
paths = (
{
closed = 1;
nodes = (
"339 722 OFFCURVE",
"368 693 OFFCURVE",
"368 650 CURVE SMOOTH",
"368 582 OFFCURVE",
"319 503 OFFCURVE",
"256 470 CURVE",
"233 515 LINE",
"265 540 OFFCURVE",
"289 562 OFFCURVE",
"294 601 CURVE",
"270 602 OFFCURVE",
"245 632 OFFCURVE",
"245 661 CURVE SMOOTH",
"245 690 OFFCURVE",
"273 722 OFFCURVE",
"306 722 CURVE SMOOTH"
);
}
);
width = 398;
},
{
components = (
{
name = l;
}
);
layerId = "24C3257D-BF04-43D4-ADFB-51EF390723A7";
paths = (
{
closed = 1;
nodes = (
"387 742 OFFCURVE",
"422 706 OFFCURVE",
"422 653 CURVE SMOOTH",
"422 578 OFFCURVE",
"366 486 OFFCURVE",
"290 443 CURVE",
"262 504 LINE",
"295 533 OFFCURVE",
"320 554 OFFCURVE",
"329 597 CURVE",
"306 597 OFFCURVE",
"273 632 OFFCURVE",
"273 668 CURVE SMOOTH",
"273 703 OFFCURVE",
"305 742 OFFCURVE",
"346 742 CURVE SMOOTH"
);
}
);
width = 452;
}
);
unicode = 013E;
},
{
glyphname = tcaron;
lastChange = "2015-05-09 19:39:39 +0000";
layers = (
{
components = (
{
name = t;
}
);
layerId = "E854A3C3-7B98-494E-8852-CB9ED5BB8961";
paths = (
{
closed = 1;
nodes = (
"414 722 OFFCURVE",
"443 693 OFFCURVE",
"443 650 CURVE SMOOTH",
"443 582 OFFCURVE",
"394 503 OFFCURVE",
"331 470 CURVE",
"308 515 LINE",
"340 540 OFFCURVE",
"364 562 OFFCURVE",
"369 601 CURVE",
"345 602 OFFCURVE",
"320 632 OFFCURVE",
"320 661 CURVE SMOOTH",
"320 690 OFFCURVE",
"348 722 OFFCURVE",
"381 722 CURVE SMOOTH"
);
}
);
width = 473;
},
{
components = (
{
name = t;
}
);
layerId = "24C3257D-BF04-43D4-ADFB-51EF390723A7";
paths = (
{
closed = 1;
nodes = (
"485 742 OFFCURVE",
"520 706 OFFCURVE",
"520 653 CURVE SMOOTH",
"520 578 OFFCURVE",
"464 486 OFFCURVE",
"388 443 CURVE",
"360 504 LINE",
"393 533 OFFCURVE",
"418 554 OFFCURVE",
"427 597 CURVE",
"404 597 OFFCURVE",
"371 632 OFFCURVE",
"371 668 CURVE SMOOTH",
"371 703 OFFCURVE",
"403 742 OFFCURVE",
"444 742 CURVE SMOOTH"
);
}
);
width = 550;
}
);
unicode = 0165;
},
{
glyphname = uogonek;
lastChange = "2017-03-21 12:16:07 +0000";
layers = (
{
components = (
{
name = u;
}
);
layerId = "E854A3C3-7B98-494E-8852-CB9ED5BB8961";
paths = (
{
closed = 1;
nodes = (
"481 0 LINE",
"454 -21 OFFCURVE",
"423 -70 OFFCURVE",
"423 -99 CURVE SMOOTH",
"423 -127 OFFCURVE",
"440 -140 OFFCURVE",
"464 -140 CURVE SMOOTH",
"479 -140 OFFCURVE",
"497 -133 OFFCURVE",
"512 -121 CURVE",
"542 -180 LINE",
"517 -201 OFFCURVE",
"487 -211 OFFCURVE",
"451 -211 CURVE SMOOTH",
"386 -211 OFFCURVE",
"341 -167 OFFCURVE",
"341 -107 CURVE SMOOTH",
"341 -72 OFFCURVE",
"362 -21 OFFCURVE",
"413 36 CURVE"
);
}
);
width = 541;
},
{
components = (
{
name = u;
}
);
layerId = "24C3257D-BF04-43D4-ADFB-51EF390723A7";
paths = (
{
closed = 1;
nodes = (
"511 0 LINE",
"492 -17 OFFCURVE",
"467 -60 OFFCURVE",
"467 -88 CURVE SMOOTH",
"467 -103 OFFCURVE",
"477 -116 OFFCURVE",
"498 -116 CURVE SMOOTH",
"506 -116 OFFCURVE",
"524 -110 OFFCURVE",
"539 -99 CURVE",
"576 -179 LINE",
"544 -203 OFFCURVE",
"511 -212 OFFCURVE",
"474 -212 CURVE SMOOTH",
"405 -212 OFFCURVE",
"358 -160 OFFCURVE",
"358 -99 CURVE SMOOTH",
"358 -58 OFFCURVE",
"383 -12 OFFCURVE",
"420 35 CURVE"
);
}
);
width = 566;
}
);
unicode = 0173;
},
{
glyphname = mu;
lastChange = "2015-05-09 21:05:37 +0000";
layers = (
{
layerId = "E854A3C3-7B98-494E-8852-CB9ED5BB8961";
paths = (
{
closed = 1;
nodes = (
"66 -219 LINE",
"66 368 LINE",
"162 368 LINE",
"162 -208 LINE"
);
},
{
closed = 1;
nodes = (
"491 485 LINE",
"491 0 LINE",
"424 0 LINE",
"407 64 LINE",
"358 19 OFFCURVE",
"288 -16 OFFCURVE",
"222 -16 CURVE SMOOTH",
"112 -16 OFFCURVE",
"66 61 OFFCURVE",
"66 165 CURVE SMOOTH",
"66 485 LINE",
"162 485 LINE",
"162 174 LINE SMOOTH",
"162 109 OFFCURVE",
"179 66 OFFCURVE",
"242 66 CURVE SMOOTH",
"291 66 OFFCURVE",
"348 102 OFFCURVE",
"395 143 CURVE",
"395 485 LINE"
);
}
);
width = 551;
},
{
layerId = "24C3257D-BF04-43D4-ADFB-51EF390723A7";
paths = (
{
closed = 1;
nodes = (
"61 -219 LINE",
"61 316 LINE",
"191 350 LINE",
"191 -209 LINE"
);
},
{
closed = 1;
nodes = (
"521 485 LINE",
"521 0 LINE",
"436 0 LINE",
"414 52 LINE",
"352 8 OFFCURVE",
"279 -16 OFFCURVE",
"227 -16 CURVE SMOOTH",
"95 -16 OFFCURVE",
"61 69 OFFCURVE",
"61 181 CURVE SMOOTH",
"61 485 LINE",
"191 485 LINE",
"191 187 LINE SMOOTH",
"191 126 OFFCURVE",
"218 92 OFFCURVE",
"261 92 CURVE SMOOTH",
"312 92 OFFCURVE",
"358 125 OFFCURVE",
"391 149 CURVE",
"391 485 LINE"
);
}
);
width = 576;
}
);
unicode = 00B5;
},
{
glyphname = uni02C9;
lastChange = "2015-05-09 19:39:39 +0000";
layers = (
{
layerId = "E854A3C3-7B98-494E-8852-CB9ED5BB8961";
paths = (
{
closed = 1;
nodes = (
"10 702 LINE",
"251 702 LINE",
"261 626 LINE",
"10 626 LINE"
);
}
);
width = 271;
},
{
layerId = "24C3257D-BF04-43D4-ADFB-51EF390723A7";
paths = (
{
closed = 1;
nodes = (
"10 716 LINE",
"262 716 LINE",
"272 613 LINE",
"10 613 LINE"
);
}
);
width = 282;
}
);
unicode = 02C9;
},
{
glyphname = litre;
lastChange = "2015-05-09 21:14:00 +0000";
layers = (
{
layerId = "E854A3C3-7B98-494E-8852-CB9ED5BB8961";
paths = (
{
closed = 1;
nodes = (
"10 251 LINE",
"31 266 OFFCURVE",
"55 283 OFFCURVE",
"78 302 CURVE",
"78 557 LINE SMOOTH",
"78 649 OFFCURVE",
"140 702 OFFCURVE",
"220 702 CURVE SMOOTH",
"296 702 OFFCURVE",
"352 649 OFFCURVE",
"352 564 CURVE SMOOTH",
"352 472 OFFCURVE",
"271 360 OFFCURVE",
"175 273 CURVE",
"175 169 LINE SMOOTH",
"175 114 OFFCURVE",
"183 71 OFFCURVE",
"236 71 CURVE SMOOTH",
"251 71 OFFCURVE",
"274 74 OFFCURVE",
"302 91 CURVE",
"335 31 LINE",
"303 2 OFFCURVE",
"263 -11 OFFCURVE",
"226 -11 CURVE SMOOTH",
"114 -11 OFFCURVE",
"78 58 OFFCURVE",
"78 158 CURVE SMOOTH",
"78 198 LINE",
"65 187 OFFCURVE",
"49 177 OFFCURVE",
"33 169 CURVE"
);
},
{
closed = 1;
nodes = (
"257 605 OFFCURVE",
"238 619 OFFCURVE",
"218 619 CURVE SMOOTH",
"195 618 OFFCURVE",
"175 603 OFFCURVE",
"175 554 CURVE SMOOTH",
"175 391 LINE",
"220 444 OFFCURVE",
"257 503 OFFCURVE",
"257 560 CURVE SMOOTH"
);
}
);
width = 382;
},
{
layerId = "24C3257D-BF04-43D4-ADFB-51EF390723A7";
paths = (
{
closed = 1;
nodes = (
"10 271 LINE",
"31 284 OFFCURVE",
"56 300 OFFCURVE",
"79 317 CURVE",
"79 549 LINE SMOOTH",
"79 645 OFFCURVE",
"153 702 OFFCURVE",
"238 702 CURVE SMOOTH",
"319 702 OFFCURVE",
"385 647 OFFCURVE",
"385 555 CURVE SMOOTH",
"385 462 OFFCURVE",
"306 356 OFFCURVE",
"210 272 CURVE",
"210 179 LINE SMOOTH",
"210 135 OFFCURVE",
"221 101 OFFCURVE",
"257 101 CURVE SMOOTH",
"269 101 OFFCURVE",
"294 101 OFFCURVE",
"323 125 CURVE",
"367 42 LINE",
"327 7 OFFCURVE",
"282 -10 OFFCURVE",
"243 -10 CURVE SMOOTH",
"123 -10 OFFCURVE",
"79 62 OFFCURVE",
"79 167 CURVE SMOOTH",
"79 174 LINE",
"67 167 OFFCURVE",
"56 159 OFFCURVE",
"42 153 CURVE"
);
},
{
closed = 1;
nodes = (
"257 572 OFFCURVE",
"248 588 OFFCURVE",
"233 588 CURVE SMOOTH",
"219 588 OFFCURVE",
"210 572 OFFCURVE",
"210 542 CURVE SMOOTH",
"210 433 LINE",
"239 468 OFFCURVE",
"257 507 OFFCURVE",
"257 548 CURVE SMOOTH"
);
}
);
width = 415;
}
);
unicode = 2113;
},
{
glyphname = Ohm;
lastChange = "2015-05-09 19:39:39 +0000";
layers = (
{
layerId = "E854A3C3-7B98-494E-8852-CB9ED5BB8961";
paths = (
{
closed = 1;
nodes = (
"569 504 OFFCURVE",
"481 613 OFFCURVE",
"356 613 CURVE SMOOTH",
"232 613 OFFCURVE",
"143 504 OFFCURVE",
"143 341 CURVE SMOOTH",
"143 233 OFFCURVE",
"189 116 OFFCURVE",
"261 77 CURVE",
"264 0 LINE",
"46 0 LINE",
"40 77 LINE",
"143 77 LINE",
"79 133 OFFCURVE",
"43 242 OFFCURVE",
"43 342 CURVE SMOOTH",
"43 547 OFFCURVE",
"159 692 OFFCURVE",
"356 696 CURVE",
"555 692 OFFCURVE",
"670 547 OFFCURVE",
"670 342 CURVE SMOOTH",
"670 242 OFFCURVE",
"634 133 OFFCURVE",
"570 77 CURVE",
"673 77 LINE",
"667 0 LINE",
"449 0 LINE",
"451 77 LINE",
"523 116 OFFCURVE",
"569 233 OFFCURVE",
"569 341 CURVE SMOOTH"
);
}
);
width = 713;
},
{
layerId = "24C3257D-BF04-43D4-ADFB-51EF390723A7";
paths = (
{
closed = 1;
nodes = (
"532 495 OFFCURVE",
"461 586 OFFCURVE",
"353 586 CURVE SMOOTH",
"246 586 OFFCURVE",
"175 495 OFFCURVE",
"175 344 CURVE SMOOTH",
"175 236 OFFCURVE",
"213 138 OFFCURVE",
"280 105 CURVE",
"280 0 LINE",
"40 0 LINE",
"35 105 LINE",
"121 105 LINE",
"68 161 OFFCURVE",
"40 259 OFFCURVE",
"40 348 CURVE SMOOTH",
"40 557 OFFCURVE",
"154 692 OFFCURVE",
"353 696 CURVE",
"552 692 OFFCURVE",
"667 557 OFFCURVE",
"667 348 CURVE SMOOTH",
"667 259 OFFCURVE",
"639 161 OFFCURVE",
"586 105 CURVE",
"672 105 LINE",
"666 0 LINE",
"427 0 LINE",
"427 105 LINE",
"495 138 OFFCURVE",
"532 236 OFFCURVE",
"532 344 CURVE SMOOTH"
);
}
);
width = 707;
}
);
unicode = 2126;
},
{
glyphname = Delta;
lastChange = "2015-05-09 19:39:39 +0000";
layers = (
{
layerId = "E854A3C3-7B98-494E-8852-CB9ED5BB8961";
paths = (
{
closed = 1;
nodes = (
"353 680 LINE",
"615 14 LINE",
"615 0 LINE",
"10 0 LINE",
"266 680 LINE"
);
},
{
closed = 1;
nodes = (
"308 551 LINE",
"132 77 LINE",
"490 77 LINE"
);
}
);
width = 625;
},
{
layerId = "24C3257D-BF04-43D4-ADFB-51EF390723A7";
paths = (
{
closed = 1;
nodes = (
"385 680 LINE",
"649 18 LINE",
"649 0 LINE",
"10 0 LINE",
"275 680 LINE"
);
},
{
closed = 1;
nodes = (
"327 502 LINE",
"178 104 LINE",
"479 104 LINE"
);
}
);
width = 659;
}
);
unicode = 2206;
},
{
glyphname = divisionslash;
lastChange = "2015-05-09 19:39:39 +0000";
layers = (
{
layerId = "E854A3C3-7B98-494E-8852-CB9ED5BB8961";
paths = (
{
closed = 1;
nodes = (
"409 706 LINE",
"105 -4 LINE",
"10 0 LINE",
"313 710 LINE"
);
}
);
width = 419;
},
{
layerId = "24C3257D-BF04-43D4-ADFB-51EF390723A7";
paths = (
{
closed = 1;
nodes = (
"444 706 LINE",
"145 -4 LINE",
"10 0 LINE",
"308 710 LINE"
);
}
);
width = 454;
}
);
unicode = 2215;
},
{
glyphname = bulletmath;
lastChange = "2015-05-09 19:39:39 +0000";
layers = (
{
layerId = "E854A3C3-7B98-494E-8852-CB9ED5BB8961";
paths = (
{
closed = 1;
nodes = (
"72 234 OFFCURVE",
"30 276 OFFCURVE",
"30 328 CURVE SMOOTH",
"30 380 OFFCURVE",
"72 423 OFFCURVE",
"125 423 CURVE SMOOTH",
"178 423 OFFCURVE",
"220 380 OFFCURVE",
"220 328 CURVE SMOOTH",
"220 276 OFFCURVE",
"178 234 OFFCURVE",
"125 234 CURVE SMOOTH"
);
}
);
width = 250;
},
{
layerId = "24C3257D-BF04-43D4-ADFB-51EF390723A7";
paths = (
{
closed = 1;
nodes = (
"78 223 OFFCURVE",
"30 270 OFFCURVE",
"30 330 CURVE SMOOTH",
"30 389 OFFCURVE",
"78 438 OFFCURVE",
"138 438 CURVE SMOOTH",
"198 438 OFFCURVE",
"247 389 OFFCURVE",
"247 330 CURVE SMOOTH",
"247 270 OFFCURVE",
"198 223 OFFCURVE",
"138 223 CURVE SMOOTH"
);
}
);
width = 277;
}
);
unicode = 2219;
},
{
glyphname = Turkishlira;
lastChange = "2015-05-09 21:16:21 +0000";
layers = (
{
layerId = "E854A3C3-7B98-494E-8852-CB9ED5BB8961";
paths = (
{
closed = 1;
nodes = (
"86 332 LINE",
"13 307 LINE",
"0 379 LINE",
"86 410 LINE",
"86 457 LINE",
"13 431 LINE",
"0 504 LINE",
"86 534 LINE",
"86 695 LINE",
"182 706 LINE",
"182 569 LINE",
"351 628 LINE",
"365 556 LINE",
"182 492 LINE",
"182 444 LINE",
"351 503 LINE",
"365 431 LINE",
"182 366 LINE",
"182 87 LINE",
"294 87 OFFCURVE",
"395 192 OFFCURVE",
"395 323 CURVE",
"493 323 LINE",
"493 123 OFFCURVE",
"337 0 OFFCURVE",
"160 0 CURVE SMOOTH",
"86 0 LINE"
);
}
);
width = 513;
},
{
layerId = "24C3257D-BF04-43D4-ADFB-51EF390723A7";
paths = (
{
closed = 1;
nodes = (
"86 298 LINE",
"19 275 LINE",
"0 375 LINE",
"86 405 LINE",
"86 447 LINE",
"19 422 LINE",
"0 523 LINE",
"86 553 LINE",
"86 695 LINE",
"216 706 LINE",
"216 600 LINE",
"366 652 LINE",
"384 552 LINE",
"216 493 LINE",
"216 452 LINE",
"366 504 LINE",
"384 404 LINE",
"216 344 LINE",
"216 123 LINE",
"320 123 OFFCURVE",
"394 203 OFFCURVE",
"393 315 CURVE",
"526 315 LINE",
"526 126 OFFCURVE",
"393 0 OFFCURVE",
"216 0 CURVE SMOOTH",
"86 0 LINE"
);
}
);
width = 546;
}
);
unicode = 20BA;
},
{
glyphname = Ruble;
lastChange = "2015-05-09 19:39:39 +0000";
layers = (
{
layerId = "E854A3C3-7B98-494E-8852-CB9ED5BB8961";
paths = (
{
closed = 1;
nodes = (
"483 127 LINE",
"37 127 LINE",
"29 201 LINE",
"475 201 LINE"
);
},
{
closed = 1;
nodes = (
"90 0 LINE",
"90 680 LINE",
"285 680 LINE SMOOTH",
"429 680 OFFCURVE",
"542 620 OFFCURVE",
"542 468 CURVE SMOOTH",
"541 317 OFFCURVE",
"418 250 OFFCURVE",
"275 250 CURVE SMOOTH",
"186 250 LINE",
"186 0 LINE"
);
},
{
closed = 1;
nodes = (
"186 599 LINE",
"186 330 LINE",
"279 330 LINE SMOOTH",
"371 330 OFFCURVE",
"438 369 OFFCURVE",
"442 464 CURVE",
"442 567 OFFCURVE",
"381 599 OFFCURVE",
"284 599 CURVE SMOOTH"
);
},
{
closed = 1;
nodes = (
"162 253 LINE",
"37 253 LINE",
"29 327 LINE",
"154 327 LINE"
);
}
);
width = 572;
},
{
layerId = "24C3257D-BF04-43D4-ADFB-51EF390723A7";
paths = (
{
closed = 1;
nodes = (
"476 98 LINE",
"36 98 LINE",
"25 200 LINE",
"465 200 LINE"
);
},
{
closed = 1;
nodes = (
"85 0 LINE",
"85 680 LINE",
"298 680 LINE SMOOTH",
"446 680 OFFCURVE",
"567 618 OFFCURVE",
"567 462 CURVE SMOOTH",
"566 307 OFFCURVE",
"433 237 OFFCURVE",
"289 237 CURVE SMOOTH",
"214 237 LINE",
"214 0 LINE"
);
},
{
closed = 1;
nodes = (
"214 572 LINE",
"214 344 LINE",
"296 344 LINE SMOOTH",
"373 344 OFFCURVE",
"425 378 OFFCURVE",
"430 454 CURVE",
"430 542 OFFCURVE",
"379 572 OFFCURVE",
"294 572 CURVE SMOOTH"
);
},
{
closed = 1;
nodes = (
"186 239 LINE",
"36 239 LINE",
"25 341 LINE",
"175 341 LINE"
);
}
);
width = 592;
}
);
unicode = 20BD;
},
{
glyphname = cent;
lastChange = "2015-05-09 21:06:05 +0000";
layers = (
{
layerId = "E854A3C3-7B98-494E-8852-CB9ED5BB8961";
paths = (
{
closed = 1;
nodes = (
"239 476 LINE",
"239 598 LINE",
"327 608 LINE",
"327 473 LINE"
);
},
{
closed = 1;
nodes = (
"328 -113 LINE",
"240 -113 LINE",
"240 13 LINE",
"328 16 LINE"
);
},
{
closed = 1;
nodes = (
"436 33 LINE",
"393 4 OFFCURVE",
"312 -13 OFFCURVE",
"271 -13 CURVE SMOOTH",
"122 -13 OFFCURVE",
"30 91 OFFCURVE",
"30 243 CURVE SMOOTH",
"31 394 OFFCURVE",
"124 498 OFFCURVE",
"275 498 CURVE SMOOTH",
"315 498 OFFCURVE",
"395 480 OFFCURVE",
"438 451 CURVE",
"410 383 LINE",
"369 400 OFFCURVE",
"331 416 OFFCURVE",
"274 416 CURVE SMOOTH",
"183 416 OFFCURVE",
"129 340 OFFCURVE",
"128 244 CURVE SMOOTH",
"128 143 OFFCURVE",
"179 69 OFFCURVE",
"271 69 CURVE SMOOTH",
"330 69 OFFCURVE",
"366 82 OFFCURVE",
"407 102 CURVE"
);
}
);
width = 464;
},
{
layerId = "24C3257D-BF04-43D4-ADFB-51EF390723A7";
paths = (
{
closed = 1;
nodes = (
"227 455 LINE",
"227 598 LINE",
"357 611 LINE",
"357 451 LINE"
);
},
{
closed = 1;
nodes = (
"359 -115 LINE",
"229 -115 LINE",
"229 34 LINE",
"359 36 LINE"
);
},
{
closed = 1;
nodes = (
"451 38 LINE",
"406 3 OFFCURVE",
"324 -12 OFFCURVE",
"283 -12 CURVE SMOOTH",
"126 -12 OFFCURVE",
"25 87 OFFCURVE",
"25 242 CURVE SMOOTH",
"25 397 OFFCURVE",
"126 498 OFFCURVE",
"283 498 CURVE SMOOTH",
"324 498 OFFCURVE",
"403 480 OFFCURVE",
"451 447 CURVE",
"414 354 LINE",
"367 375 OFFCURVE",
"329 387 OFFCURVE",
"284 387 CURVE SMOOTH",
"211 387 OFFCURVE",
"159 325 OFFCURVE",
"159 242 CURVE SMOOTH",
"159 158 OFFCURVE",
"211 99 OFFCURVE",
"284 99 CURVE SMOOTH",
"329 99 OFFCURVE",
"367 111 OFFCURVE",
"414 132 CURVE"
);
}
);
width = 472;
}
);
unicode = 00A2;
},
{
glyphname = sterling;
lastChange = "2015-05-09 21:06:45 +0000";
layers = (
{
layerId = "E854A3C3-7B98-494E-8852-CB9ED5BB8961";
paths = (
{
closed = 1;
nodes = (
"52 75 LINE",
"103 75 OFFCURVE",
"124 109 OFFCURVE",
"124 160 CURVE SMOOTH",
"124 310 LINE",
"51 310 LINE",
"50 383 LINE",
"124 383 LINE",
"124 507 LINE SMOOTH",
"124 615 OFFCURVE",
"174 684 OFFCURVE",
"278 684 CURVE SMOOTH",
"307 684 OFFCURVE",
"343 673 OFFCURVE",
"360 661 CURVE",
"335 589 LINE",
"322 594 OFFCURVE",
"301 600 OFFCURVE",
"288 600 CURVE SMOOTH",
"239 600 OFFCURVE",
"221 564 OFFCURVE",
"221 515 CURVE SMOOTH",
"221 383 LINE",
"348 383 LINE",
"380 310 LINE",
"221 310 LINE",
"221 212 LINE SMOOTH",
"221 159 OFFCURVE",
"216 104 OFFCURVE",
"193 75 CURVE",
"445 75 LINE",
"458 0 LINE",
"61 0 LINE"
);
}
);
width = 468;
},
{
layerId = "24C3257D-BF04-43D4-ADFB-51EF390723A7";
paths = (
{
closed = 1;
nodes = (
"47 101 LINE",
"106 102 OFFCURVE",
"120 136 OFFCURVE",
"120 187 CURVE SMOOTH",
"120 291 LINE",
"45 291 LINE",
"45 390 LINE",
"120 390 LINE",
"120 503 LINE SMOOTH",
"120 615 OFFCURVE",
"190 684 OFFCURVE",
"310 684 CURVE SMOOTH",
"342 684 OFFCURVE",
"387 671 OFFCURVE",
"408 652 CURVE",
"370 560 LINE",
"351 568 OFFCURVE",
"332 572 OFFCURVE",
"316 572 CURVE SMOOTH",
"269 572 OFFCURVE",
"251 535 OFFCURVE",
"251 486 CURVE SMOOTH",
"251 390 LINE",
"369 390 LINE",
"412 291 LINE",
"251 291 LINE",
"251 200 LINE SMOOTH",
"251 163 OFFCURVE",
"245 128 OFFCURVE",
"230 101 CURVE",
"476 101 LINE",
"496 0 LINE",
"57 0 LINE"
);
}
);
width = 506;
}
);
unicode = 00A3;
},
{
glyphname = currency;
lastChange = "2015-05-09 19:39:39 +0000";
layers = (
{
layerId = "E854A3C3-7B98-494E-8852-CB9ED5BB8961";
paths = (
{
closed = 1;
nodes = (
"489 35 LINE",
"448 4 OFFCURVE",
"395 -13 OFFCURVE",
"338 -13 CURVE SMOOTH",
"282 -12 OFFCURVE",
"232 6 OFFCURVE",
"192 35 CURVE",
"87 -72 LINE",
"30 -4 LINE",
"130 99 LINE",
"106 139 OFFCURVE",
"91 188 OFFCURVE",
"91 243 CURVE SMOOTH",
"91 296 OFFCURVE",
"107 346 OFFCURVE",
"132 383 CURVE",
"30 487 LINE",
"87 556 LINE",
"194 448 LINE",
"235 477 OFFCURVE",
"287 497 OFFCURVE",
"344 498 CURVE",
"401 497 OFFCURVE",
"450 479 OFFCURVE",
"490 450 CURVE",
"595 556 LINE",
"652 487 LINE",
"553 385 LINE",
"578 346 OFFCURVE",
"593 296 OFFCURVE",
"594 241 CURVE",
"593 186 OFFCURVE",
"577 138 OFFCURVE",
"552 99 CURVE",
"652 -4 LINE",
"595 -72 LINE"
);
},
{
closed = 1;
nodes = (
"495 336 OFFCURVE",
"432 408 OFFCURVE",
"344 408 CURVE SMOOTH",
"257 408 OFFCURVE",
"191 336 OFFCURVE",
"190 244 CURVE SMOOTH",
"190 148 OFFCURVE",
"251 76 OFFCURVE",
"339 75 CURVE SMOOTH",
"426 75 OFFCURVE",
"494 147 OFFCURVE",
"495 240 CURVE SMOOTH"
);
}
);
width = 682;
},
{
layerId = "24C3257D-BF04-43D4-ADFB-51EF390723A7";
paths = (
{
closed = 1;
nodes = (
"485 21 LINE",
"446 0 OFFCURVE",
"402 -12 OFFCURVE",
"353 -13 CURVE",
"302 -12 OFFCURVE",
"256 2 OFFCURVE",
"216 23 CURVE",
"110 -85 LINE",
"30 11 LINE",
"128 111 LINE",
"107 148 OFFCURVE",
"94 192 OFFCURVE",
"94 241 CURVE SMOOTH",
"94 290 OFFCURVE",
"108 337 OFFCURVE",
"129 372 CURVE",
"30 473 LINE",
"110 569 LINE",
"216 462 LINE",
"256 483 OFFCURVE",
"302 497 OFFCURVE",
"353 498 CURVE",
"402 497 OFFCURVE",
"446 484 OFFCURVE",
"485 463 CURVE",
"591 569 LINE",
"671 473 LINE",
"575 376 LINE",
"598 339 OFFCURVE",
"611 292 OFFCURVE",
"612 243 CURVE",
"611 191 OFFCURVE",
"598 145 OFFCURVE",
"575 108 CURVE",
"671 11 LINE",
"591 -85 LINE"
);
},
{
closed = 1;
nodes = (
"477 315 OFFCURVE",
"418 372 OFFCURVE",
"351 372 CURVE SMOOTH",
"286 371 OFFCURVE",
"229 314 OFFCURVE",
"228 242 CURVE SMOOTH",
"229 170 OFFCURVE",
"286 112 OFFCURVE",
"351 111 CURVE SMOOTH",
"418 111 OFFCURVE",
"477 170 OFFCURVE",
"478 242 CURVE"
);
}
);
width = 701;
}
);
unicode = 00A4;
},
{
glyphname = yen;
lastChange = "2017-03-21 12:51:18 +0000";
layers = (
{
layerId = "E854A3C3-7B98-494E-8852-CB9ED5BB8961";
paths = (
{
closed = 1;
nodes = (
"504 311 LINE",
"513 238 LINE",
"75 238 LINE",
"66 311 LINE"
);
},
{
closed = 1;
nodes = (
"504 144 LINE",
"513 72 LINE",
"75 72 LINE",
"66 144 LINE"
);
},
{
closed = 1;
nodes = (
"235 0 LINE",
"235 270 LINE",
"10 663 LINE",
"103 697 LINE",
"283 366 LINE",
"467 680 LINE",
"569 680 LINE",
"332 271 LINE",
"331 0 LINE"
);
}
);
width = 579;
},
{
layerId = "24C3257D-BF04-43D4-ADFB-51EF390723A7";
paths = (
{
closed = 1;
nodes = (
"522 314 LINE",
"532 218 LINE",
"86 218 LINE",
"75 314 LINE"
);
},
{
closed = 1;
nodes = (
"522 162 LINE",
"532 66 LINE",
"86 66 LINE",
"75 162 LINE"
);
},
{
closed = 1;
nodes = (
"232 0 LINE",
"232 265 LINE",
"10 657 LINE",
"138 694 LINE",
"296 396 LINE",
"461 680 LINE",
"598 680 LINE",
"362 260 LINE",
"362 0 LINE"
);
}
);
width = 608;
}
);
unicode = 00A5;
},
{
glyphname = Euro;
lastChange = "2015-05-09 19:39:39 +0000";
layers = (
{
layerId = "E854A3C3-7B98-494E-8852-CB9ED5BB8961";
paths = (
{
closed = 1;
nodes = (
"438 464 LINE",
"447 392 LINE",
"11 392 LINE",
"0 464 LINE"
);
},
{
closed = 1;
nodes = (
"438 285 LINE",
"447 212 LINE",
"11 212 LINE",
"0 285 LINE"
);
},
{
closed = 1;
nodes = (
"550 584 LINE",
"501 601 OFFCURVE",
"470 612 OFFCURVE",
"405 612 CURVE SMOOTH",
"281 612 OFFCURVE",
"184 501 OFFCURVE",
"184 337 CURVE SMOOTH",
"184 190 OFFCURVE",
"262 68 OFFCURVE",
"397 68 CURVE SMOOTH",
"462 68 OFFCURVE",
"509 81 OFFCURVE",
"546 98 CURVE",
"583 26 LINE",
"538 3 OFFCURVE",
"458 -14 OFFCURVE",
"401 -14 CURVE SMOOTH",
"192 -14 OFFCURVE",
"84 145 OFFCURVE",
"84 336 CURVE SMOOTH",
"84 540 OFFCURVE",
"208 694 OFFCURVE",
"407 694 CURVE SMOOTH",
"447 694 OFFCURVE",
"531 682 OFFCURVE",
"580 653 CURVE"
);
}
);
width = 603;
},
{
layerId = "24C3257D-BF04-43D4-ADFB-51EF390723A7";
paths = (
{
closed = 1;
nodes = (
"446 475 LINE",
"456 379 LINE",
"12 379 LINE",
"0 475 LINE"
);
},
{
closed = 1;
nodes = (
"446 298 LINE",
"456 202 LINE",
"12 202 LINE",
"0 298 LINE"
);
},
{
closed = 1;
nodes = (
"561 557 LINE",
"502 574 OFFCURVE",
"476 585 OFFCURVE",
"417 585 CURVE SMOOTH",
"309 585 OFFCURVE",
"228 491 OFFCURVE",
"228 338 CURVE SMOOTH",
"228 206 OFFCURVE",
"293 95 OFFCURVE",
"409 95 CURVE SMOOTH",
"466 95 OFFCURVE",
"517 109 OFFCURVE",
"558 126 CURVE",
"607 30 LINE",
"555 3 OFFCURVE",
"472 -14 OFFCURVE",
"416 -14 CURVE SMOOTH",
"204 -14 OFFCURVE",
"93 141 OFFCURVE",
"93 337 CURVE SMOOTH",
"93 546 OFFCURVE",
"222 694 OFFCURVE",
"421 694 CURVE SMOOTH",
"461 694 OFFCURVE",
"542 682 OFFCURVE",
"601 650 CURVE"
);
}
);
width = 622;
}
);
unicode = 20AC;
},
{
glyphname = dollar;
lastChange = "2015-05-09 22:26:57 +0000";
layers = (
{
layerId = "E854A3C3-7B98-494E-8852-CB9ED5BB8961";
paths = (
{
closed = 1;
nodes = (
"295 794 LINE",
"295 694 LINE",
"284 695 OFFCURVE",
"269 696 OFFCURVE",
"250 696 CURVE SMOOTH",
"233 696 LINE",
"233 804 LINE",
"166 794 LINE",
"166 681 LINE",
"86 654 OFFCURVE",
"40 593 OFFCURVE",
"40 520 CURVE SMOOTH",
"40 417 OFFCURVE",
"99 370 OFFCURVE",
"216 318 CURVE SMOOTH",
"327 269 OFFCURVE",
"391 235 OFFCURVE",
"391 168 CURVE SMOOTH",
"391 109 OFFCURVE",
"339 70 OFFCURVE",
"242 70 CURVE SMOOTH",
"181 70 OFFCURVE",
"111 94 OFFCURVE",
"74 113 CURVE",
"52 37 LINE",
"77 22 OFFCURVE",
"118 6 OFFCURVE",
"166 -4 CURVE",
"166 -119 LINE",
"233 -119 LINE",
"233 -13 LINE",
"249 -13 LINE SMOOTH",
"261 -13 OFFCURVE",
"279 -12 OFFCURVE",
"295 -10 CURVE",
"295 -119 LINE",
"363 -119 LINE",
"363 6 LINE",
"444 34 OFFCURVE",
"488 94 OFFCURVE",
"488 170 CURVE SMOOTH",
"488 269 OFFCURVE",
"423 319 OFFCURVE",
"312 369 CURVE SMOOTH",
"195 422 OFFCURVE",
"136 453 OFFCURVE",
"136 522 CURVE SMOOTH",
"136 582 OFFCURVE",
"194 611 OFFCURVE",
"270 611 CURVE SMOOTH",
"334 611 OFFCURVE",
"376 592 OFFCURVE",
"411 575 CURVE",
"443 651 LINE",
"421 662 OFFCURVE",
"393 673 OFFCURVE",
"363 682 CURVE",
"363 804 LINE"
);
}
);
width = 518;
},
{
layerId = "24C3257D-BF04-43D4-ADFB-51EF390723A7";
paths = (
{
closed = 1;
nodes = (
"300 794 LINE",
"300 694 LINE",
"290 695 OFFCURVE",
"279 696 OFFCURVE",
"269 696 CURVE SMOOTH",
"243 695 LINE",
"243 808 LINE",
"155 794 LINE",
"155 677 LINE",
"77 648 OFFCURVE",
"35 587 OFFCURVE",
"35 514 CURVE SMOOTH",
"35 409 OFFCURVE",
"142 346 OFFCURVE",
"238 288 CURVE SMOOTH",
"300 251 OFFCURVE",
"368 221 OFFCURVE",
"368 176 CURVE SMOOTH",
"368 128 OFFCURVE",
"327 102 OFFCURVE",
"246 102 CURVE SMOOTH",
"189 102 OFFCURVE",
"117 129 OFFCURVE",
"76 150 CURVE",
"47 45 LINE",
"69 31 OFFCURVE",
"107 16 OFFCURVE",
"145 5 CURVE",
"145 -128 LINE",
"233 -128 LINE",
"233 -13 LINE",
"248 -13 LINE SMOOTH",
"263 -13 OFFCURVE",
"277 -12 OFFCURVE",
"290 -11 CURVE",
"290 -128 LINE",
"379 -128 LINE",
"379 8 LINE",
"459 39 OFFCURVE",
"502 100 OFFCURVE",
"502 174 CURVE SMOOTH",
"502 290 OFFCURVE",
"394 340 OFFCURVE",
"297 398 CURVE SMOOTH",
"230 438 OFFCURVE",
"169 463 OFFCURVE",
"169 514 CURVE SMOOTH",
"169 561 OFFCURVE",
"214 583 OFFCURVE",
"271 583 CURVE SMOOTH",
"330 583 OFFCURVE",
"377 561 OFFCURVE",
"418 541 CURVE",
"461 645 LINE",
"440 655 OFFCURVE",
"415 666 OFFCURVE",
"389 674 CURVE",
"389 808 LINE"
);
}
);
width = 527;
}
);
unicode = 0024;
},
{
glyphname = comma;
lastChange = "2015-05-09 19:39:39 +0000";
layers = (
{
layerId = "E854A3C3-7B98-494E-8852-CB9ED5BB8961";
paths = (
{
closed = 1;
nodes = (
"128 120 OFFCURVE",
"155 92 OFFCURVE",
"155 48 CURVE SMOOTH",
"155 -19 OFFCURVE",
"107 -98 OFFCURVE",
"43 -131 CURVE",
"20 -86 LINE",
"53 -61 OFFCURVE",
"77 -39 OFFCURVE",
"82 0 CURVE",
"58 1 OFFCURVE",
"33 31 OFFCURVE",
"33 60 CURVE SMOOTH",
"33 91 OFFCURVE",
"60 120 OFFCURVE",
"93 120 CURVE SMOOTH"
);
}
);
width = 185;
},
{
layerId = "24C3257D-BF04-43D4-ADFB-51EF390723A7";
paths = (
{
closed = 1;
nodes = (
"146 146 OFFCURVE",
"181 109 OFFCURVE",
"181 56 CURVE SMOOTH",
"181 -17 OFFCURVE",
"125 -111 OFFCURVE",
"49 -154 CURVE",
"20 -92 LINE",
"55 -63 OFFCURVE",
"79 -43 OFFCURVE",
"88 0 CURVE",
"65 0 OFFCURVE",
"33 36 OFFCURVE",
"33 72 CURVE SMOOTH",
"33 108 OFFCURVE",
"65 146 OFFCURVE",
"105 146 CURVE SMOOTH"
);
}
);
width = 211;
}
);
unicode = 002C;
},
{
glyphname = period;
lastChange = "2015-05-09 22:17:54 +0000";
layers = (
{
layerId = "E854A3C3-7B98-494E-8852-CB9ED5BB8961";
paths = (
{
closed = 1;
nodes = (
"56 0 OFFCURVE",
"30 27 OFFCURVE",
"30 60 CURVE SMOOTH",
"30 93 OFFCURVE",
"56 120 OFFCURVE",
"91 120 CURVE SMOOTH",
"124 120 OFFCURVE",
"150 93 OFFCURVE",
"150 60 CURVE SMOOTH",
"150 27 OFFCURVE",
"124 0 OFFCURVE",
"91 0 CURVE SMOOTH"
);
}
);
width = 180;
},
{
layerId = "24C3257D-BF04-43D4-ADFB-51EF390723A7";
paths = (
{
closed = 1;
nodes = (
"63 0 OFFCURVE",
"30 32 OFFCURVE",
"30 73 CURVE SMOOTH",
"30 114 OFFCURVE",
"63 146 OFFCURVE",
"104 146 CURVE SMOOTH",
"145 146 OFFCURVE",
"176 114 OFFCURVE",
"176 73 CURVE SMOOTH",
"176 32 OFFCURVE",
"145 0 OFFCURVE",
"104 0 CURVE SMOOTH"
);
}
);
width = 206;
}
);
unicode = 002E;
},
{
glyphname = exclam;
lastChange = "2015-05-09 22:18:02 +0000";
layers = (
{
layerId = "E854A3C3-7B98-494E-8852-CB9ED5BB8961";
paths = (
{
closed = 1;
nodes = (
"38 702 LINE",
"143 702 LINE",
"128 196 LINE",
"55 230 LINE"
);
},
{
closed = 1;
nodes = (
"124 120 OFFCURVE",
"151 93 OFFCURVE",
"151 60 CURVE SMOOTH",
"151 27 OFFCURVE",
"124 0 OFFCURVE",
"91 0 CURVE SMOOTH",
"58 0 OFFCURVE",
"30 27 OFFCURVE",
"30 60 CURVE SMOOTH",
"30 93 OFFCURVE",
"58 120 OFFCURVE",
"91 120 CURVE SMOOTH"
);
}
);
width = 181;
},
{
layerId = "24C3257D-BF04-43D4-ADFB-51EF390723A7";
paths = (
{
closed = 1;
nodes = (
"35 702 LINE",
"171 702 LINE",
"156 196 LINE",
"52 244 LINE"
);
},
{
closed = 1;
nodes = (
"144 146 OFFCURVE",
"177 114 OFFCURVE",
"177 73 CURVE SMOOTH",
"177 32 OFFCURVE",
"144 0 OFFCURVE",
"103 0 CURVE SMOOTH",
"63 0 OFFCURVE",
"30 32 OFFCURVE",
"30 73 CURVE SMOOTH",
"30 114 OFFCURVE",
"63 146 OFFCURVE",
"103 146 CURVE SMOOTH"
);
}
);
width = 207;
}
);
unicode = 0021;
},
{
glyphname = exclamdown;
lastChange = "2015-05-09 22:18:11 +0000";
layers = (
{
layerId = "E854A3C3-7B98-494E-8852-CB9ED5BB8961";
paths = (
{
closed = 1;
nodes = (
"58 580 OFFCURVE",
"30 608 OFFCURVE",
"30 641 CURVE SMOOTH",
"30 674 OFFCURVE",
"58 702 OFFCURVE",
"91 702 CURVE SMOOTH",
"124 702 OFFCURVE",
"151 674 OFFCURVE",
"151 641 CURVE SMOOTH",
"151 608 OFFCURVE",
"124 580 OFFCURVE",
"91 580 CURVE SMOOTH"
);
},
{
closed = 1;
nodes = (
"143 0 LINE",
"38 0 LINE",
"54 505 LINE",
"128 471 LINE"
);
}
);
width = 181;
},
{
layerId = "24C3257D-BF04-43D4-ADFB-51EF390723A7";
paths = (
{
closed = 1;
nodes = (
"63 555 OFFCURVE",
"30 588 OFFCURVE",
"30 629 CURVE SMOOTH",
"30 669 OFFCURVE",
"63 702 OFFCURVE",
"103 702 CURVE SMOOTH",
"144 702 OFFCURVE",
"177 669 OFFCURVE",
"177 629 CURVE SMOOTH",
"177 588 OFFCURVE",
"144 555 OFFCURVE",
"103 555 CURVE SMOOTH"
);
},
{
closed = 1;
nodes = (
"170 0 LINE",
"35 0 LINE",
"51 505 LINE",
"156 458 LINE"
);
}
);
width = 207;
}
);
unicode = 00A1;
},
{
glyphname = colon;
lastChange = "2015-05-09 22:18:23 +0000";
layers = (
{
layerId = "E854A3C3-7B98-494E-8852-CB9ED5BB8961";
paths = (
{
closed = 1;
nodes = (
"57 341 OFFCURVE",
"30 368 OFFCURVE",
"30 401 CURVE SMOOTH",
"30 434 OFFCURVE",
"57 462 OFFCURVE",
"90 462 CURVE SMOOTH",
"123 462 OFFCURVE",
"150 434 OFFCURVE",
"150 401 CURVE SMOOTH",
"150 368 OFFCURVE",
"123 341 OFFCURVE",
"90 341 CURVE SMOOTH"
);
},
{
closed = 1;
nodes = (
"57 18 OFFCURVE",
"30 45 OFFCURVE",
"30 78 CURVE SMOOTH",
"30 113 OFFCURVE",
"57 139 OFFCURVE",
"90 139 CURVE SMOOTH",
"123 139 OFFCURVE",
"150 113 OFFCURVE",
"150 78 CURVE SMOOTH",
"150 45 OFFCURVE",
"123 18 OFFCURVE",
"90 18 CURVE SMOOTH"
);
}
);
width = 180;
},
{
layerId = "24C3257D-BF04-43D4-ADFB-51EF390723A7";
paths = (
{
closed = 1;
nodes = (
"63 327 OFFCURVE",
"30 360 OFFCURVE",
"30 401 CURVE SMOOTH",
"30 441 OFFCURVE",
"63 474 OFFCURVE",
"104 474 CURVE SMOOTH",
"145 474 OFFCURVE",
"176 441 OFFCURVE",
"176 401 CURVE SMOOTH",
"176 360 OFFCURVE",
"145 327 OFFCURVE",
"104 327 CURVE SMOOTH"
);
},
{
closed = 1;
nodes = (
"63 0 OFFCURVE",
"30 32 OFFCURVE",
"30 73 CURVE SMOOTH",
"30 114 OFFCURVE",
"63 146 OFFCURVE",
"104 146 CURVE SMOOTH",
"145 146 OFFCURVE",
"176 114 OFFCURVE",
"176 73 CURVE SMOOTH",
"176 32 OFFCURVE",
"145 0 OFFCURVE",
"104 0 CURVE SMOOTH"
);
}
);
width = 206;
}
);
unicode = 003A;
},
{
glyphname = semicolon;
lastChange = "2015-05-09 19:39:39 +0000";
layers = (
{
layerId = "E854A3C3-7B98-494E-8852-CB9ED5BB8961";
paths = (
{
closed = 1;
nodes = (
"129 462 OFFCURVE",
"156 434 OFFCURVE",
"156 401 CURVE SMOOTH",
"156 368 OFFCURVE",
"129 341 OFFCURVE",
"96 341 CURVE SMOOTH",
"61 341 OFFCURVE",
"34 368 OFFCURVE",
"34 401 CURVE SMOOTH",
"34 434 OFFCURVE",
"61 462 OFFCURVE",
"96 462 CURVE SMOOTH"
);
},
{
closed = 1;
nodes = (
"128 139 OFFCURVE",
"155 110 OFFCURVE",
"155 66 CURVE SMOOTH",
"155 -1 OFFCURVE",
"107 -80 OFFCURVE",
"43 -113 CURVE",
"20 -68 LINE",
"53 -43 OFFCURVE",
"77 -21 OFFCURVE",
"82 18 CURVE",
"58 19 OFFCURVE",
"33 47 OFFCURVE",
"33 78 CURVE SMOOTH",
"33 109 OFFCURVE",
"60 139 OFFCURVE",
"93 139 CURVE SMOOTH"
);
}
);
width = 186;
},
{
layerId = "24C3257D-BF04-43D4-ADFB-51EF390723A7";
paths = (
{
closed = 1;
nodes = (
"150 474 OFFCURVE",
"182 441 OFFCURVE",
"182 401 CURVE SMOOTH",
"182 360 OFFCURVE",
"150 327 OFFCURVE",
"109 327 CURVE SMOOTH",
"68 327 OFFCURVE",
"34 360 OFFCURVE",
"34 401 CURVE SMOOTH",
"34 441 OFFCURVE",
"68 474 OFFCURVE",
"109 474 CURVE SMOOTH"
);
},
{
closed = 1;
nodes = (
"146 146 OFFCURVE",
"181 109 OFFCURVE",
"181 56 CURVE SMOOTH",
"181 -17 OFFCURVE",
"125 -111 OFFCURVE",
"49 -154 CURVE",
"20 -92 LINE",
"55 -63 OFFCURVE",
"79 -43 OFFCURVE",
"88 0 CURVE",
"65 0 OFFCURVE",
"33 36 OFFCURVE",
"33 72 CURVE SMOOTH",
"33 108 OFFCURVE",
"65 146 OFFCURVE",
"105 146 CURVE SMOOTH"
);
}
);
width = 212;
}
);
unicode = 003B;
},
{
glyphname = question;
lastChange = "2015-05-09 19:39:39 +0000";
layers = (
{
layerId = "E854A3C3-7B98-494E-8852-CB9ED5BB8961";
paths = (
{
closed = 1;
nodes = (
"327 701 OFFCURVE",
"389 630 OFFCURVE",
"389 530 CURVE SMOOTH",
"389 455 OFFCURVE",
"319 373 OFFCURVE",
"216 324 CURVE",
"204 159 LINE",
"135 187 LINE",
"127 373 LINE",
"226 405 OFFCURVE",
"297 463 OFFCURVE",
"297 528 CURVE SMOOTH",
"297 591 OFFCURVE",
"257 620 OFFCURVE",
"192 620 CURVE SMOOTH",
"135 620 OFFCURVE",
"82 599 OFFCURVE",
"22 558 CURVE",
"10 643 LINE",
"67 679 OFFCURVE",
"119 701 OFFCURVE",
"195 701 CURVE SMOOTH"
);
},
{
closed = 1;
nodes = (
"198 120 OFFCURVE",
"226 93 OFFCURVE",
"226 60 CURVE SMOOTH",
"226 27 OFFCURVE",
"198 0 OFFCURVE",
"165 0 CURVE SMOOTH",
"132 0 OFFCURVE",
"105 27 OFFCURVE",
"105 60 CURVE SMOOTH",
"105 93 OFFCURVE",
"132 120 OFFCURVE",
"165 120 CURVE SMOOTH"
);
}
);
width = 419;
},
{
layerId = "24C3257D-BF04-43D4-ADFB-51EF390723A7";
paths = (
{
closed = 1;
nodes = (
"337 701 OFFCURVE",
"405 629 OFFCURVE",
"405 522 CURVE SMOOTH",
"405 450 OFFCURVE",
"333 365 OFFCURVE",
"240 316 CURVE",
"223 179 LINE",
"131 218 LINE",
"123 383 LINE",
"218 414 OFFCURVE",
"286 465 OFFCURVE",
"286 520 CURVE SMOOTH",
"286 565 OFFCURVE",
"249 593 OFFCURVE",
"201 593 CURVE SMOOTH",
"160 593 OFFCURVE",
"94 574 OFFCURVE",
"27 529 CURVE",
"10 645 LINE",
"71 684 OFFCURVE",
"132 701 OFFCURVE",
"204 701 CURVE SMOOTH"
);
},
{
closed = 1;
nodes = (
"211 146 OFFCURVE",
"243 114 OFFCURVE",
"243 73 CURVE SMOOTH",
"243 32 OFFCURVE",
"211 0 OFFCURVE",
"170 0 CURVE SMOOTH",
"129 0 OFFCURVE",
"96 32 OFFCURVE",
"96 73 CURVE SMOOTH",
"96 114 OFFCURVE",
"129 146 OFFCURVE",
"170 146 CURVE SMOOTH"
);
}
);
width = 435;
}
);
unicode = 003F;
},
{
glyphname = questiondown;
lastChange = "2015-05-09 19:39:39 +0000";
layers = (
{
layerId = "E854A3C3-7B98-494E-8852-CB9ED5BB8961";
paths = (
{
closed = 1;
nodes = (
"221 521 OFFCURVE",
"193 549 OFFCURVE",
"193 582 CURVE SMOOTH",
"193 615 OFFCURVE",
"221 643 OFFCURVE",
"254 643 CURVE SMOOTH",
"287 643 OFFCURVE",
"315 615 OFFCURVE",
"315 582 CURVE SMOOTH",
"315 549 OFFCURVE",
"287 521 OFFCURVE",
"254 521 CURVE SMOOTH"
);
},
{
closed = 1;
nodes = (
"91 -59 OFFCURVE",
"30 12 OFFCURVE",
"30 112 CURVE SMOOTH",
"30 187 OFFCURVE",
"102 270 OFFCURVE",
"203 319 CURVE",
"215 484 LINE",
"284 455 LINE",
"293 270 LINE",
"193 237 OFFCURVE",
"122 180 OFFCURVE",
"122 113 CURVE SMOOTH",
"122 52 OFFCURVE",
"162 22 OFFCURVE",
"227 22 CURVE SMOOTH",
"284 22 OFFCURVE",
"337 44 OFFCURVE",
"397 85 CURVE",
"409 -1 LINE",
"353 -38 OFFCURVE",
"300 -59 OFFCURVE",
"224 -59 CURVE SMOOTH"
);
}
);
width = 419;
},
{
layerId = "24C3257D-BF04-43D4-ADFB-51EF390723A7";
paths = (
{
closed = 1;
nodes = (
"223 517 OFFCURVE",
"191 550 OFFCURVE",
"191 591 CURVE SMOOTH",
"191 631 OFFCURVE",
"223 664 OFFCURVE",
"264 664 CURVE SMOOTH",
"305 664 OFFCURVE",
"338 631 OFFCURVE",
"338 591 CURVE SMOOTH",
"338 550 OFFCURVE",
"305 517 OFFCURVE",
"264 517 CURVE SMOOTH"
);
},
{
closed = 1;
nodes = (
"97 -37 OFFCURVE",
"30 37 OFFCURVE",
"30 142 CURVE SMOOTH",
"30 215 OFFCURVE",
"102 298 OFFCURVE",
"194 349 CURVE",
"211 485 LINE",
"303 447 LINE",
"312 282 LINE",
"216 251 OFFCURVE",
"148 199 OFFCURVE",
"148 143 CURVE SMOOTH",
"148 99 OFFCURVE",
"185 71 OFFCURVE",
"233 71 CURVE SMOOTH",
"276 71 OFFCURVE",
"340 88 OFFCURVE",
"407 136 CURVE",
"424 19 LINE",
"363 -20 OFFCURVE",
"302 -37 OFFCURVE",
"229 -37 CURVE SMOOTH"
);
}
);
width = 434;
}
);
unicode = 00BF;
},
{
glyphname = asterisk;
lastChange = "2015-05-09 21:06:54 +0000";
layers = (
{
layerId = "E854A3C3-7B98-494E-8852-CB9ED5BB8961";
paths = (
{
closed = 1;
nodes = (
"220 663 LINE",
"332 687 LINE",
"353 622 LINE",
"241 600 LINE",
"319 489 LINE",
"262 446 LINE",
"182 554 LINE",
"101 446 LINE",
"44 489 LINE",
"122 600 LINE",
"10 622 LINE",
"31 687 LINE",
"142 663 LINE",
"144 770 LINE",
"219 770 LINE"
);
}
);
width = 363;
},
{
layerId = "24C3257D-BF04-43D4-ADFB-51EF390723A7";
paths = (
{
closed = 1;
nodes = (
"246 668 LINE",
"348 690 LINE",
"378 599 LINE",
"277 579 LINE",
"346 481 LINE",
"268 420 LINE",
"194 519 LINE",
"121 420 LINE",
"42 481 LINE",
"111 578 LINE",
"10 599 LINE",
"40 690 LINE",
"141 668 LINE",
"143 767 LINE",
"245 767 LINE"
);
}
);
width = 388;
}
);
unicode = 002A;
},
{
glyphname = quotedbl;
lastChange = "2015-05-09 19:39:39 +0000";
layers = (
{
layerId = "E854A3C3-7B98-494E-8852-CB9ED5BB8961";
paths = (
{
closed = 1;
nodes = (
"292 722 OFFCURVE",
"320 693 OFFCURVE",
"320 650 CURVE SMOOTH",
"320 582 OFFCURVE",
"272 503 OFFCURVE",
"209 470 CURVE",
"185 515 LINE",
"218 540 OFFCURVE",
"241 562 OFFCURVE",
"248 601 CURVE",
"223 602 OFFCURVE",
"198 632 OFFCURVE",
"198 661 CURVE SMOOTH",
"198 690 OFFCURVE",
"226 722 OFFCURVE",
"259 722 CURVE SMOOTH"
);
},
{
closed = 1;
nodes = (
"126 722 OFFCURVE",
"155 693 OFFCURVE",
"155 650 CURVE SMOOTH",
"155 582 OFFCURVE",
"106 503 OFFCURVE",
"43 470 CURVE",
"20 515 LINE",
"52 540 OFFCURVE",
"76 562 OFFCURVE",
"81 601 CURVE",
"57 602 OFFCURVE",
"32 632 OFFCURVE",
"32 661 CURVE SMOOTH",
"32 690 OFFCURVE",
"60 722 OFFCURVE",
"93 722 CURVE SMOOTH"
);
}
);
width = 350;
},
{
layerId = "24C3257D-BF04-43D4-ADFB-51EF390723A7";
paths = (
{
closed = 1;
nodes = (
"331 742 OFFCURVE",
"364 706 OFFCURVE",
"364 653 CURVE SMOOTH",
"364 578 OFFCURVE",
"309 486 OFFCURVE",
"233 443 CURVE",
"204 504 LINE",
"237 533 OFFCURVE",
"263 554 OFFCURVE",
"272 597 CURVE",
"248 597 OFFCURVE",
"216 632 OFFCURVE",
"216 668 CURVE SMOOTH",
"216 703 OFFCURVE",
"249 742 OFFCURVE",
"290 742 CURVE SMOOTH"
);
},
{
closed = 1;
nodes = (
"145 742 OFFCURVE",
"180 706 OFFCURVE",
"180 653 CURVE SMOOTH",
"180 578 OFFCURVE",
"124 486 OFFCURVE",
"48 443 CURVE",
"20 504 LINE",
"53 533 OFFCURVE",
"78 554 OFFCURVE",
"87 597 CURVE",
"64 597 OFFCURVE",
"31 632 OFFCURVE",
"31 668 CURVE SMOOTH",
"31 703 OFFCURVE",
"63 742 OFFCURVE",
"104 742 CURVE SMOOTH"
);
}
);
width = 394;
}
);
unicode = 0022;
},
{
glyphname = quotesingle;
lastChange = "2015-05-09 19:39:39 +0000";
layers = (
{
layerId = "E854A3C3-7B98-494E-8852-CB9ED5BB8961";
paths = (
{
closed = 1;
nodes = (
"126 722 OFFCURVE",
"155 693 OFFCURVE",
"155 650 CURVE SMOOTH",
"155 582 OFFCURVE",
"106 503 OFFCURVE",
"43 470 CURVE",
"20 515 LINE",
"52 540 OFFCURVE",
"76 562 OFFCURVE",
"81 601 CURVE",
"57 602 OFFCURVE",
"32 632 OFFCURVE",
"32 661 CURVE SMOOTH",
"32 690 OFFCURVE",
"60 722 OFFCURVE",
"93 722 CURVE SMOOTH"
);
}
);
width = 185;
},
{
layerId = "24C3257D-BF04-43D4-ADFB-51EF390723A7";
paths = (
{
closed = 1;
nodes = (
"145 742 OFFCURVE",
"180 706 OFFCURVE",
"180 653 CURVE SMOOTH",
"180 578 OFFCURVE",
"124 486 OFFCURVE",
"48 443 CURVE",
"20 504 LINE",
"53 533 OFFCURVE",
"78 554 OFFCURVE",
"87 597 CURVE",
"64 597 OFFCURVE",
"31 632 OFFCURVE",
"31 668 CURVE SMOOTH",
"31 703 OFFCURVE",
"63 742 OFFCURVE",
"104 742 CURVE SMOOTH"
);
}
);
width = 210;
}
);
unicode = 0027;
},
{
glyphname = quoteleft;
lastChange = "2015-05-09 19:39:39 +0000";
layers = (
{
layerId = "E854A3C3-7B98-494E-8852-CB9ED5BB8961";
paths = (
{
closed = 1;
nodes = (
"56 470 OFFCURVE",
"30 501 OFFCURVE",
"30 542 CURVE SMOOTH",
"30 610 OFFCURVE",
"78 689 OFFCURVE",
"141 722 CURVE",
"165 676 LINE",
"132 651 OFFCURVE",
"107 630 OFFCURVE",
"102 591 CURVE",
"127 590 OFFCURVE",
"151 560 OFFCURVE",
"151 531 CURVE SMOOTH",
"151 500 OFFCURVE",
"124 470 OFFCURVE",
"91 470 CURVE SMOOTH"
);
}
);
width = 185;
},
{
layerId = "24C3257D-BF04-43D4-ADFB-51EF390723A7";
paths = (
{
closed = 1;
nodes = (
"54 443 OFFCURVE",
"20 481 OFFCURVE",
"20 533 CURVE SMOOTH",
"20 608 OFFCURVE",
"76 701 OFFCURVE",
"152 742 CURVE",
"181 682 LINE",
"146 653 OFFCURVE",
"122 633 OFFCURVE",
"113 589 CURVE",
"136 589 OFFCURVE",
"168 554 OFFCURVE",
"168 517 CURVE SMOOTH",
"168 482 OFFCURVE",
"136 443 OFFCURVE",
"95 443 CURVE SMOOTH"
);
}
);
width = 211;
}
);
unicode = 2018;
},
{
glyphname = quoteright;
lastChange = "2015-05-09 19:39:39 +0000";
layers = (
{
layerId = "E854A3C3-7B98-494E-8852-CB9ED5BB8961";
paths = (
{
closed = 1;
nodes = (
"126 722 OFFCURVE",
"155 693 OFFCURVE",
"155 650 CURVE SMOOTH",
"155 582 OFFCURVE",
"106 503 OFFCURVE",
"43 470 CURVE",
"20 515 LINE",
"52 540 OFFCURVE",
"76 562 OFFCURVE",
"81 601 CURVE",
"57 602 OFFCURVE",
"32 632 OFFCURVE",
"32 661 CURVE SMOOTH",
"32 690 OFFCURVE",
"60 722 OFFCURVE",
"93 722 CURVE SMOOTH"
);
}
);
width = 185;
},
{
layerId = "24C3257D-BF04-43D4-ADFB-51EF390723A7";
paths = (
{
closed = 1;
nodes = (
"145 742 OFFCURVE",
"180 706 OFFCURVE",
"180 653 CURVE SMOOTH",
"180 578 OFFCURVE",
"124 486 OFFCURVE",
"48 443 CURVE",
"20 504 LINE",
"53 533 OFFCURVE",
"78 554 OFFCURVE",
"87 597 CURVE",
"64 597 OFFCURVE",
"31 632 OFFCURVE",
"31 668 CURVE SMOOTH",
"31 703 OFFCURVE",
"63 742 OFFCURVE",
"104 742 CURVE SMOOTH"
);
}
);
width = 210;
}
);
unicode = 2019;
},
{
glyphname = quotesinglbase;
lastChange = "2015-05-09 19:39:39 +0000";
layers = (
{
layerId = "E854A3C3-7B98-494E-8852-CB9ED5BB8961";
paths = (
{
closed = 1;
nodes = (
"126 120 OFFCURVE",
"155 92 OFFCURVE",
"155 48 CURVE SMOOTH",
"155 -19 OFFCURVE",
"106 -98 OFFCURVE",
"43 -131 CURVE",
"20 -86 LINE",
"52 -61 OFFCURVE",
"76 -39 OFFCURVE",
"81 0 CURVE",
"57 1 OFFCURVE",
"32 31 OFFCURVE",
"32 60 CURVE SMOOTH",
"32 91 OFFCURVE",
"60 120 OFFCURVE",
"93 120 CURVE SMOOTH"
);
}
);
width = 185;
},
{
layerId = "24C3257D-BF04-43D4-ADFB-51EF390723A7";
paths = (
{
closed = 1;
nodes = (
"145 146 OFFCURVE",
"180 109 OFFCURVE",
"180 56 CURVE SMOOTH",
"180 -17 OFFCURVE",
"124 -111 OFFCURVE",
"48 -154 CURVE",
"20 -92 LINE",
"53 -63 OFFCURVE",
"78 -43 OFFCURVE",
"87 0 CURVE",
"64 0 OFFCURVE",
"31 36 OFFCURVE",
"31 72 CURVE SMOOTH",
"31 108 OFFCURVE",
"63 146 OFFCURVE",
"104 146 CURVE SMOOTH"
);
}
);
width = 210;
}
);
unicode = 201A;
},
{
glyphname = quotedblleft;
lastChange = "2015-05-09 19:39:39 +0000";
layers = (
{
layerId = "E854A3C3-7B98-494E-8852-CB9ED5BB8961";
paths = (
{
closed = 1;
nodes = (
"56 470 OFFCURVE",
"30 501 OFFCURVE",
"30 542 CURVE SMOOTH",
"30 610 OFFCURVE",
"78 689 OFFCURVE",
"141 722 CURVE",
"165 676 LINE",
"132 651 OFFCURVE",
"107 630 OFFCURVE",
"102 591 CURVE",
"127 590 OFFCURVE",
"151 560 OFFCURVE",
"151 531 CURVE SMOOTH",
"151 500 OFFCURVE",
"124 470 OFFCURVE",
"91 470 CURVE SMOOTH"
);
},
{
closed = 1;
nodes = (
"223 470 OFFCURVE",
"196 501 OFFCURVE",
"196 542 CURVE SMOOTH",
"196 610 OFFCURVE",
"244 689 OFFCURVE",
"307 722 CURVE",
"331 676 LINE",
"298 651 OFFCURVE",
"274 630 OFFCURVE",
"269 591 CURVE",
"292 590 OFFCURVE",
"318 560 OFFCURVE",
"318 531 CURVE SMOOTH",
"318 500 OFFCURVE",
"289 470 OFFCURVE",
"256 470 CURVE SMOOTH"
);
}
);
width = 351;
},
{
layerId = "24C3257D-BF04-43D4-ADFB-51EF390723A7";
paths = (
{
closed = 1;
nodes = (
"64 443 OFFCURVE",
"30 481 OFFCURVE",
"30 533 CURVE SMOOTH",
"30 608 OFFCURVE",
"86 701 OFFCURVE",
"162 742 CURVE",
"191 682 LINE",
"156 653 OFFCURVE",
"132 633 OFFCURVE",
"123 589 CURVE",
"146 589 OFFCURVE",
"178 554 OFFCURVE",
"178 517 CURVE SMOOTH",
"178 482 OFFCURVE",
"146 443 OFFCURVE",
"105 443 CURVE SMOOTH"
);
},
{
closed = 1;
nodes = (
"249 443 OFFCURVE",
"215 481 OFFCURVE",
"215 533 CURVE SMOOTH",
"215 608 OFFCURVE",
"271 701 OFFCURVE",
"346 742 CURVE",
"376 682 LINE",
"341 653 OFFCURVE",
"317 633 OFFCURVE",
"308 589 CURVE",
"329 589 OFFCURVE",
"364 554 OFFCURVE",
"364 517 CURVE SMOOTH",
"364 482 OFFCURVE",
"331 443 OFFCURVE",
"290 443 CURVE SMOOTH"
);
}
);
width = 396;
}
);
unicode = 201C;
},
{
glyphname = quotedblright;
lastChange = "2015-05-09 19:39:39 +0000";
layers = (
{
layerId = "E854A3C3-7B98-494E-8852-CB9ED5BB8961";
paths = (
{
closed = 1;
nodes = (
"292 722 OFFCURVE",
"320 693 OFFCURVE",
"320 650 CURVE SMOOTH",
"320 582 OFFCURVE",
"272 503 OFFCURVE",
"209 470 CURVE",
"185 515 LINE",
"218 540 OFFCURVE",
"241 562 OFFCURVE",
"248 601 CURVE",
"223 602 OFFCURVE",
"198 632 OFFCURVE",
"198 661 CURVE SMOOTH",
"198 690 OFFCURVE",
"226 722 OFFCURVE",
"259 722 CURVE SMOOTH"
);
},
{
closed = 1;
nodes = (
"126 722 OFFCURVE",
"155 693 OFFCURVE",
"155 650 CURVE SMOOTH",
"155 582 OFFCURVE",
"106 503 OFFCURVE",
"43 470 CURVE",
"20 515 LINE",
"52 540 OFFCURVE",
"76 562 OFFCURVE",
"81 601 CURVE",
"57 602 OFFCURVE",
"32 632 OFFCURVE",
"32 661 CURVE SMOOTH",
"32 690 OFFCURVE",
"60 722 OFFCURVE",
"93 722 CURVE SMOOTH"
);
}
);
width = 350;
},
{
layerId = "24C3257D-BF04-43D4-ADFB-51EF390723A7";
paths = (
{
closed = 1;
nodes = (
"331 742 OFFCURVE",
"364 706 OFFCURVE",
"364 653 CURVE SMOOTH",
"364 578 OFFCURVE",
"309 486 OFFCURVE",
"233 443 CURVE",
"204 504 LINE",
"237 533 OFFCURVE",
"263 554 OFFCURVE",
"272 597 CURVE",
"248 597 OFFCURVE",
"216 632 OFFCURVE",
"216 668 CURVE SMOOTH",
"216 703 OFFCURVE",
"249 742 OFFCURVE",
"290 742 CURVE SMOOTH"
);
},
{
closed = 1;
nodes = (
"145 742 OFFCURVE",
"180 706 OFFCURVE",
"180 653 CURVE SMOOTH",
"180 578 OFFCURVE",
"124 486 OFFCURVE",
"48 443 CURVE",
"20 504 LINE",
"53 533 OFFCURVE",
"78 554 OFFCURVE",
"87 597 CURVE",
"64 597 OFFCURVE",
"31 632 OFFCURVE",
"31 668 CURVE SMOOTH",
"31 703 OFFCURVE",
"63 742 OFFCURVE",
"104 742 CURVE SMOOTH"
);
}
);
width = 394;
}
);
unicode = 201D;
},
{
glyphname = quotedblbase;
lastChange = "2015-05-09 19:39:39 +0000";
layers = (
{
layerId = "E854A3C3-7B98-494E-8852-CB9ED5BB8961";
paths = (
{
closed = 1;
nodes = (
"292 120 OFFCURVE",
"320 92 OFFCURVE",
"320 48 CURVE SMOOTH",
"320 -19 OFFCURVE",
"272 -98 OFFCURVE",
"209 -131 CURVE",
"185 -86 LINE",
"218 -61 OFFCURVE",
"241 -39 OFFCURVE",
"248 0 CURVE",
"223 1 OFFCURVE",
"198 31 OFFCURVE",
"198 60 CURVE SMOOTH",
"198 91 OFFCURVE",
"226 120 OFFCURVE",
"259 120 CURVE SMOOTH"
);
},
{
closed = 1;
nodes = (
"126 120 OFFCURVE",
"155 92 OFFCURVE",
"155 48 CURVE SMOOTH",
"155 -19 OFFCURVE",
"106 -98 OFFCURVE",
"43 -131 CURVE",
"20 -85 LINE",
"52 -60 OFFCURVE",
"76 -39 OFFCURVE",
"81 0 CURVE",
"57 1 OFFCURVE",
"32 31 OFFCURVE",
"32 60 CURVE SMOOTH",
"32 91 OFFCURVE",
"60 120 OFFCURVE",
"93 120 CURVE SMOOTH"
);
}
);
width = 350;
},
{
layerId = "24C3257D-BF04-43D4-ADFB-51EF390723A7";
paths = (
{
closed = 1;
nodes = (
"331 146 OFFCURVE",
"364 109 OFFCURVE",
"364 56 CURVE SMOOTH",
"364 -17 OFFCURVE",
"309 -111 OFFCURVE",
"233 -154 CURVE",
"204 -92 LINE",
"237 -63 OFFCURVE",
"263 -43 OFFCURVE",
"272 0 CURVE",
"248 0 OFFCURVE",
"216 36 OFFCURVE",
"216 72 CURVE SMOOTH",
"216 108 OFFCURVE",
"249 146 OFFCURVE",
"290 146 CURVE SMOOTH"
);
},
{
closed = 1;
nodes = (
"145 146 OFFCURVE",
"180 109 OFFCURVE",
"180 56 CURVE SMOOTH",
"180 -17 OFFCURVE",
"124 -111 OFFCURVE",
"48 -154 CURVE",
"20 -92 LINE",
"53 -63 OFFCURVE",
"78 -43 OFFCURVE",
"87 0 CURVE",
"64 0 OFFCURVE",
"31 36 OFFCURVE",
"31 72 CURVE SMOOTH",
"31 108 OFFCURVE",
"63 146 OFFCURVE",
"104 146 CURVE SMOOTH"
);
}
);
width = 394;
}
);
unicode = 201E;
},
{
glyphname = periodcentered;
lastChange = "2015-05-09 22:18:31 +0000";
layers = (
{
layerId = "E854A3C3-7B98-494E-8852-CB9ED5BB8961";
paths = (
{
closed = 1;
nodes = (
"56 201 OFFCURVE",
"30 229 OFFCURVE",
"30 262 CURVE SMOOTH",
"30 295 OFFCURVE",
"56 322 OFFCURVE",
"91 322 CURVE SMOOTH",
"124 322 OFFCURVE",
"150 295 OFFCURVE",
"150 262 CURVE SMOOTH",
"150 229 OFFCURVE",
"124 201 OFFCURVE",
"91 201 CURVE SMOOTH"
);
}
);
width = 180;
},
{
layerId = "24C3257D-BF04-43D4-ADFB-51EF390723A7";
paths = (
{
closed = 1;
nodes = (
"63 189 OFFCURVE",
"30 221 OFFCURVE",
"30 262 CURVE SMOOTH",
"30 303 OFFCURVE",
"63 335 OFFCURVE",
"104 335 CURVE SMOOTH",
"145 335 OFFCURVE",
"176 303 OFFCURVE",
"176 262 CURVE SMOOTH",
"176 221 OFFCURVE",
"145 189 OFFCURVE",
"104 189 CURVE SMOOTH"
);
}
);
width = 206;
}
);
unicode = 00B7;
},
{
glyphname = parenleft;
lastChange = "2015-05-09 19:39:39 +0000";
layers = (
{
layerId = "E854A3C3-7B98-494E-8852-CB9ED5BB8961";
paths = (
{
closed = 1;
nodes = (
"173 -38 LINE",
"92 67 OFFCURVE",
"50 200 OFFCURVE",
"50 320 CURVE SMOOTH",
"50 437 OFFCURVE",
"90 567 OFFCURVE",
"173 678 CURVE",
"249 651 LINE",
"192 580 OFFCURVE",
"141 418 OFFCURVE",
"141 321 CURVE SMOOTH",
"141 221 OFFCURVE",
"192 55 OFFCURVE",
"249 -10 CURVE"
);
}
);
width = 279;
},
{
layerId = "24C3257D-BF04-43D4-ADFB-51EF390723A7";
paths = (
{
closed = 1;
nodes = (
"177 -39 LINE",
"98 65 OFFCURVE",
"50 189 OFFCURVE",
"50 321 CURVE SMOOTH",
"50 450 OFFCURVE",
"96 566 OFFCURVE",
"177 682 CURVE",
"278 645 LINE",
"221 566 OFFCURVE",
"170 422 OFFCURVE",
"170 322 CURVE SMOOTH",
"170 219 OFFCURVE",
"220 68 OFFCURVE",
"277 -1 CURVE"
);
}
);
width = 308;
}
);
unicode = 0028;
},
{
glyphname = parenright;
lastChange = "2015-05-09 19:39:39 +0000";
layers = (
{
layerId = "E854A3C3-7B98-494E-8852-CB9ED5BB8961";
paths = (
{
closed = 1;
nodes = (
"106 678 LINE",
"186 573 OFFCURVE",
"229 440 OFFCURVE",
"229 320 CURVE SMOOTH",
"229 203 OFFCURVE",
"186 74 OFFCURVE",
"106 -38 CURVE",
"30 -11 LINE",
"87 60 OFFCURVE",
"137 223 OFFCURVE",
"137 320 CURVE SMOOTH",
"137 419 OFFCURVE",
"87 585 OFFCURVE",
"30 650 CURVE"
);
}
);
width = 279;
},
{
layerId = "24C3257D-BF04-43D4-ADFB-51EF390723A7";
paths = (
{
closed = 1;
nodes = (
"131 682 LINE",
"208 578 OFFCURVE",
"258 453 OFFCURVE",
"258 321 CURVE SMOOTH",
"258 193 OFFCURVE",
"210 77 OFFCURVE",
"130 -39 CURVE",
"30 -2 LINE",
"87 77 OFFCURVE",
"136 221 OFFCURVE",
"136 321 CURVE SMOOTH",
"136 422 OFFCURVE",
"88 575 OFFCURVE",
"31 643 CURVE"
);
}
);
width = 308;
}
);
unicode = 0029;
},
{
glyphname = bracketleft;
lastChange = "2015-05-09 22:15:55 +0000";
layers = (
{
layerId = "E854A3C3-7B98-494E-8852-CB9ED5BB8961";
paths = (
{
closed = 1;
nodes = (
"100 696 LINE",
"308 696 LINE",
"294 622 LINE",
"193 622 LINE",
"193 -15 LINE",
"294 -15 LINE",
"308 -88 LINE",
"100 -88 LINE"
);
}
);
width = 318;
},
{
layerId = "24C3257D-BF04-43D4-ADFB-51EF390723A7";
paths = (
{
closed = 1;
nodes = (
"100 696 LINE",
"352 696 LINE",
"332 594 LINE",
"229 594 LINE",
"229 13 LINE",
"332 13 LINE",
"352 -88 LINE",
"100 -88 LINE"
);
}
);
width = 362;
}
);
unicode = 005B;
},
{
glyphname = bracketright;
lastChange = "2015-05-09 22:15:49 +0000";
layers = (
{
layerId = "E854A3C3-7B98-494E-8852-CB9ED5BB8961";
paths = (
{
closed = 1;
nodes = (
"217 -88 LINE",
"10 -88 LINE",
"23 -15 LINE",
"123 -15 LINE",
"123 622 LINE",
"23 622 LINE",
"10 696 LINE",
"217 696 LINE"
);
}
);
width = 317;
},
{
layerId = "24C3257D-BF04-43D4-ADFB-51EF390723A7";
paths = (
{
closed = 1;
nodes = (
"262 -88 LINE",
"10 -88 LINE",
"28 13 LINE",
"131 13 LINE",
"131 594 LINE",
"28 594 LINE",
"10 696 LINE",
"262 696 LINE"
);
}
);
width = 362;
}
);
unicode = 005D;
},
{
glyphname = braceleft;
lastChange = "2015-05-09 21:07:51 +0000";
layers = (
{
layerId = "E854A3C3-7B98-494E-8852-CB9ED5BB8961";
paths = (
{
closed = 1;
nodes = (
"194 289 OFFCURVE",
"211 252 OFFCURVE",
"211 204 CURVE SMOOTH",
"211 158 OFFCURVE",
"176 114 OFFCURVE",
"176 70 CURVE SMOOTH",
"176 51 OFFCURVE",
"193 30 OFFCURVE",
"230 30 CURVE SMOOTH",
"260 30 LINE",
"269 -42 LINE",
"242 -42 LINE SMOOTH",
"139 -42 OFFCURVE",
"94 -3 OFFCURVE",
"94 74 CURVE SMOOTH",
"94 121 OFFCURVE",
"129 168 OFFCURVE",
"129 214 CURVE SMOOTH",
"129 249 OFFCURVE",
"97 276 OFFCURVE",
"69 276 CURVE SMOOTH",
"30 276 LINE",
"30 339 LINE",
"69 339 LINE SMOOTH",
"101 339 OFFCURVE",
"123 370 OFFCURVE",
"123 409 CURVE SMOOTH",
"123 468 OFFCURVE",
"96 494 OFFCURVE",
"96 553 CURVE SMOOTH",
"96 624 OFFCURVE",
"149 659 OFFCURVE",
"242 659 CURVE SMOOTH",
"269 659 LINE",
"260 586 LINE",
"230 586 LINE SMOOTH",
"190 586 OFFCURVE",
"176 564 OFFCURVE",
"176 547 CURVE SMOOTH",
"176 506 OFFCURVE",
"211 463 OFFCURVE",
"211 413 CURVE SMOOTH",
"211 361 OFFCURVE",
"197 329 OFFCURVE",
"162 310 CURVE"
);
}
);
width = 279;
},
{
layerId = "24C3257D-BF04-43D4-ADFB-51EF390723A7";
paths = (
{
closed = 1;
nodes = (
"215 285 OFFCURVE",
"226 250 OFFCURVE",
"226 209 CURVE SMOOTH",
"226 157 OFFCURVE",
"191 135 OFFCURVE",
"191 85 CURVE SMOOTH",
"191 74 OFFCURVE",
"204 58 OFFCURVE",
"229 58 CURVE SMOOTH",
"271 58 LINE",
"284 -42 LINE",
"226 -42 LINE SMOOTH",
"127 -42 OFFCURVE",
"84 9 OFFCURVE",
"84 85 CURVE SMOOTH",
"84 124 OFFCURVE",
"117 186 OFFCURVE",
"117 221 CURVE SMOOTH",
"117 248 OFFCURVE",
"96 265 OFFCURVE",
"75 265 CURVE SMOOTH",
"30 265 LINE",
"30 351 LINE",
"75 351 LINE SMOOTH",
"96 351 OFFCURVE",
"117 368 OFFCURVE",
"117 395 CURVE SMOOTH",
"117 422 OFFCURVE",
"84 489 OFFCURVE",
"84 533 CURVE SMOOTH",
"84 609 OFFCURVE",
"127 659 OFFCURVE",
"226 659 CURVE SMOOTH",
"284 659 LINE",
"271 559 LINE",
"229 559 LINE SMOOTH",
"204 559 OFFCURVE",
"191 543 OFFCURVE",
"191 532 CURVE SMOOTH",
"191 483 OFFCURVE",
"226 465 OFFCURVE",
"226 408 CURVE SMOOTH",
"226 363 OFFCURVE",
"216 332 OFFCURVE",
"191 309 CURVE"
);
}
);
width = 294;
}
);
unicode = 007B;
},
{
glyphname = braceright;
lastChange = "2015-05-09 21:08:21 +0000";
layers = (
{
layerId = "E854A3C3-7B98-494E-8852-CB9ED5BB8961";
paths = (
{
closed = 1;
nodes = (
"81 329 OFFCURVE",
"67 361 OFFCURVE",
"67 413 CURVE SMOOTH",
"67 463 OFFCURVE",
"102 506 OFFCURVE",
"102 547 CURVE SMOOTH",
"102 564 OFFCURVE",
"88 586 OFFCURVE",
"48 586 CURVE SMOOTH",
"18 586 LINE",
"9 659 LINE",
"36 659 LINE SMOOTH",
"129 659 OFFCURVE",
"182 624 OFFCURVE",
"182 553 CURVE SMOOTH",
"182 494 OFFCURVE",
"155 468 OFFCURVE",
"155 409 CURVE SMOOTH",
"155 370 OFFCURVE",
"177 339 OFFCURVE",
"209 339 CURVE SMOOTH",
"248 339 LINE",
"248 276 LINE",
"209 276 LINE SMOOTH",
"181 276 OFFCURVE",
"149 249 OFFCURVE",
"149 214 CURVE SMOOTH",
"149 168 OFFCURVE",
"184 121 OFFCURVE",
"184 74 CURVE SMOOTH",
"184 -3 OFFCURVE",
"139 -42 OFFCURVE",
"36 -42 CURVE SMOOTH",
"9 -42 LINE",
"18 30 LINE",
"48 30 LINE SMOOTH",
"85 30 OFFCURVE",
"102 51 OFFCURVE",
"102 70 CURVE SMOOTH",
"102 114 OFFCURVE",
"67 158 OFFCURVE",
"67 204 CURVE SMOOTH",
"67 252 OFFCURVE",
"84 289 OFFCURVE",
"116 310 CURVE"
);
}
);
width = 278;
},
{
layerId = "24C3257D-BF04-43D4-ADFB-51EF390723A7";
paths = (
{
closed = 1;
nodes = (
"76 332 OFFCURVE",
"66 363 OFFCURVE",
"66 408 CURVE SMOOTH",
"66 465 OFFCURVE",
"101 483 OFFCURVE",
"101 532 CURVE SMOOTH",
"101 543 OFFCURVE",
"88 559 OFFCURVE",
"63 559 CURVE SMOOTH",
"21 559 LINE",
"8 659 LINE",
"66 659 LINE SMOOTH",
"165 659 OFFCURVE",
"208 609 OFFCURVE",
"208 533 CURVE SMOOTH",
"208 489 OFFCURVE",
"175 422 OFFCURVE",
"175 395 CURVE SMOOTH",
"175 368 OFFCURVE",
"196 351 OFFCURVE",
"217 351 CURVE SMOOTH",
"262 351 LINE",
"262 265 LINE",
"217 265 LINE SMOOTH",
"196 265 OFFCURVE",
"175 248 OFFCURVE",
"175 221 CURVE SMOOTH",
"175 186 OFFCURVE",
"208 124 OFFCURVE",
"208 85 CURVE SMOOTH",
"208 9 OFFCURVE",
"165 -42 OFFCURVE",
"66 -42 CURVE SMOOTH",
"8 -42 LINE",
"21 58 LINE",
"63 58 LINE SMOOTH",
"88 58 OFFCURVE",
"101 74 OFFCURVE",
"101 85 CURVE SMOOTH",
"101 135 OFFCURVE",
"66 157 OFFCURVE",
"66 209 CURVE SMOOTH",
"66 250 OFFCURVE",
"77 285 OFFCURVE",
"101 309 CURVE"
);
}
);
width = 292;
}
);
unicode = 007D;
},
{
glyphname = slash;
lastChange = "2015-05-09 19:39:39 +0000";
layers = (
{
layerId = "E854A3C3-7B98-494E-8852-CB9ED5BB8961";
paths = (
{
closed = 1;
nodes = (
"409 706 LINE",
"105 -4 LINE",
"10 0 LINE",
"313 710 LINE"
);
}
);
width = 419;
},
{
layerId = "24C3257D-BF04-43D4-ADFB-51EF390723A7";
paths = (
{
closed = 1;
nodes = (
"444 706 LINE",
"145 -4 LINE",
"10 0 LINE",
"308 710 LINE"
);
}
);
width = 454;
}
);
unicode = 002F;
},
{
glyphname = backslash;
lastChange = "2015-05-09 19:39:39 +0000";
layers = (
{
layerId = "E854A3C3-7B98-494E-8852-CB9ED5BB8961";
paths = (
{
closed = 1;
nodes = (
"313 -4 LINE",
"10 706 LINE",
"106 710 LINE",
"409 0 LINE"
);
}
);
width = 419;
},
{
layerId = "24C3257D-BF04-43D4-ADFB-51EF390723A7";
paths = (
{
closed = 1;
nodes = (
"308 -4 LINE",
"10 706 LINE",
"145 710 LINE",
"444 0 LINE"
);
}
);
width = 454;
}
);
unicode = 005C;
},
{
glyphname = bar;
lastChange = "2015-05-09 19:39:39 +0000";
layers = (
{
layerId = "E854A3C3-7B98-494E-8852-CB9ED5BB8961";
paths = (
{
closed = 1;
nodes = (
"185 704 LINE",
"185 -7 LINE",
"90 0 LINE",
"90 711 LINE"
);
}
);
width = 275;
},
{
layerId = "24C3257D-BF04-43D4-ADFB-51EF390723A7";
paths = (
{
closed = 1;
nodes = (
"214 703 LINE",
"214 -10 LINE",
"85 0 LINE",
"85 713 LINE"
);
}
);
width = 299;
}
);
unicode = 007C;
},
{
glyphname = brokenbar;
lastChange = "2015-05-09 19:39:39 +0000";
layers = (
{
layerId = "E854A3C3-7B98-494E-8852-CB9ED5BB8961";
paths = (
{
closed = 1;
nodes = (
"185 704 LINE",
"185 406 LINE",
"90 413 LINE",
"90 711 LINE"
);
},
{
closed = 1;
nodes = (
"185 288 LINE",
"185 -7 LINE",
"90 0 LINE",
"90 294 LINE"
);
}
);
width = 275;
},
{
layerId = "24C3257D-BF04-43D4-ADFB-51EF390723A7";
paths = (
{
closed = 1;
nodes = (
"214 703 LINE",
"214 406 LINE",
"85 417 LINE",
"85 713 LINE"
);
},
{
closed = 1;
nodes = (
"214 288 LINE",
"214 -10 LINE",
"85 0 LINE",
"85 297 LINE"
);
}
);
width = 299;
}
);
unicode = 00A6;
},
{
glyphname = guillemotleft;
lastChange = "2015-05-09 22:17:06 +0000";
layers = (
{
layerId = "E854A3C3-7B98-494E-8852-CB9ED5BB8961";
paths = (
{
closed = 1;
nodes = (
"190 268 LINE",
"341 407 LINE",
"362 343 LINE",
"263 245 LINE",
"362 147 LINE",
"341 83 LINE",
"190 222 LINE"
);
},
{
closed = 1;
nodes = (
"30 268 LINE",
"180 407 LINE",
"202 343 LINE",
"103 245 LINE",
"202 147 LINE",
"180 83 LINE",
"30 222 LINE"
);
}
);
width = 382;
},
{
layerId = "24C3257D-BF04-43D4-ADFB-51EF390723A7";
paths = (
{
closed = 1;
nodes = (
"199 269 LINE",
"360 408 LINE",
"381 321 LINE",
"297 245 LINE",
"381 169 LINE",
"360 83 LINE",
"199 221 LINE"
);
},
{
closed = 1;
nodes = (
"30 269 LINE",
"190 408 LINE",
"213 321 LINE",
"128 245 LINE",
"213 169 LINE",
"190 83 LINE",
"30 221 LINE"
);
}
);
width = 401;
}
);
unicode = 00AB;
},
{
glyphname = guillemotright;
lastChange = "2015-05-09 22:16:58 +0000";
layers = (
{
layerId = "E854A3C3-7B98-494E-8852-CB9ED5BB8961";
paths = (
{
closed = 1;
nodes = (
"192 222 LINE",
"43 83 LINE",
"20 147 LINE",
"119 245 LINE",
"20 343 LINE",
"43 407 LINE",
"192 268 LINE"
);
},
{
closed = 1;
nodes = (
"353 222 LINE",
"203 83 LINE",
"181 147 LINE",
"280 245 LINE",
"181 343 LINE",
"203 407 LINE",
"353 268 LINE"
);
}
);
width = 383;
},
{
layerId = "24C3257D-BF04-43D4-ADFB-51EF390723A7";
paths = (
{
closed = 1;
nodes = (
"202 221 LINE",
"43 83 LINE",
"20 169 LINE",
"105 245 LINE",
"20 321 LINE",
"43 408 LINE",
"202 269 LINE"
);
},
{
closed = 1;
nodes = (
"373 221 LINE",
"212 83 LINE",
"190 169 LINE",
"275 245 LINE",
"190 321 LINE",
"212 408 LINE",
"373 269 LINE"
);
}
);
width = 403;
}
);
unicode = 00BB;
},
{
glyphname = pi;
lastChange = "2015-05-09 22:16:05 +0000";
layers = (
{
layerId = "E854A3C3-7B98-494E-8852-CB9ED5BB8961";
paths = (
{
closed = 1;
nodes = (
"107 0 LINE",
"107 409 LINE",
"10 409 LINE",
"10 485 LINE",
"609 485 LINE",
"609 409 LINE",
"511 409 LINE",
"511 0 LINE",
"415 0 LINE",
"415 409 LINE",
"203 409 LINE",
"203 0 LINE"
);
}
);
width = 619;
},
{
layerId = "24C3257D-BF04-43D4-ADFB-51EF390723A7";
paths = (
{
closed = 1;
nodes = (
"115 0 LINE",
"115 384 LINE",
"10 384 LINE",
"10 485 LINE",
"648 485 LINE",
"648 384 LINE",
"543 384 LINE",
"543 0 LINE",
"413 0 LINE",
"413 384 LINE",
"244 384 LINE",
"244 0 LINE"
);
}
);
width = 658;
}
);
unicode = 03C0;
},
{
glyphname = dagger;
lastChange = "2015-05-09 19:39:39 +0000";
layers = (
{
layerId = "E854A3C3-7B98-494E-8852-CB9ED5BB8961";
paths = (
{
closed = 1;
nodes = (
"258 780 LINE",
"258 625 LINE",
"361 625 LINE",
"380 540 LINE",
"258 540 LINE",
"247 -4 LINE",
"165 0 LINE",
"155 540 LINE",
"49 540 LINE",
"30 625 LINE",
"155 625 LINE",
"155 783 LINE"
);
}
);
width = 410;
},
{
layerId = "24C3257D-BF04-43D4-ADFB-51EF390723A7";
paths = (
{
closed = 1;
nodes = (
"295 780 LINE",
"295 625 LINE",
"398 625 LINE",
"416 503 LINE",
"295 503 LINE",
"284 -4 LINE",
"165 0 LINE",
"155 503 LINE",
"49 503 LINE",
"30 625 LINE",
"155 625 LINE",
"155 783 LINE"
);
}
);
width = 446;
}
);
unicode = 2020;
},
